{
.appVersion = "1286";
copyright = "Copyright © 2019 by Lucas Descroix. All rights reserved.";
customParameters = (
{
name = panose;
value = (
0,
0,
5,
0,
0,
0,
0,
0,
0,
0
);
},
{
name = unicodeRanges;
value = (
0,
1,
2
);
},
{
name = codePageRanges;
value = (
1252,
1250,
1254,
1257
);
},
{
name = glyphOrder;
value = (
.notdef,
space,
A,
Aacute,
Abreve,
Acircumflex,
Adieresis,
Agrave,
Amacron,
Aogonek,
Aring,
Atilde,
AE,
B,
C,
Cacute,
Ccaron,
Ccedilla,
Cdotaccent,
D,
Eth,
Dcaron,
Dcroat,
E,
Eacute,
Ecaron,
Ecircumflex,
Edieresis,
Edotaccent,
Egrave,
Emacron,
Eogonek,
F,
G,
Gbreve,
Gcommaaccent,
Gdotaccent,
H,
Hbar,
I,
IJ,
Iacute,
Icircumflex,
Idieresis,
Idotaccent,
Igrave,
Imacron,
Iogonek,
J,
K,
Kcommaaccent,
L,
Lacute,
Lcaron,
Lcommaaccent,
Ldot,
Lslash,
M,
N,
Nacute,
Ncaron,
Ncommaaccent,
Eng,
Ntilde,
O,
Oacute,
Ocircumflex,
Odieresis,
Ograve,
Ohungarumlaut,
Omacron,
Oslash,
Otilde,
OE,
P,
Thorn,
Q,
R,
Racute,
Rcaron,
Rcommaaccent,
S,
Sacute,
Scaron,
Scedilla,
Scommaaccent,
T,
Tbar,
Tcaron,
uni0162,
uni021A,
U,
Uacute,
Ucircumflex,
Udieresis,
Ugrave,
Uhungarumlaut,
Umacron,
Uogonek,
Uring,
V,
W,
Wacute,
Wcircumflex,
Wdieresis,
Wgrave,
X,
Y,
Yacute,
Ycircumflex,
Ydieresis,
Ygrave,
Z,
Zacute,
Zcaron,
Zdotaccent,
a,
aacute,
abreve,
acircumflex,
adieresis,
agrave,
amacron,
aogonek,
aring,
atilde,
ae,
b,
c,
cacute,
ccaron,
ccedilla,
cdotaccent,
d,
eth,
dcaron,
dcroat,
e,
eacute,
ecaron,
ecircumflex,
edieresis,
edotaccent,
egrave,
emacron,
eogonek,
f,
g,
gbreve,
gcommaaccent,
gdotaccent,
h,
hbar,
i,
dotlessi,
iacute,
icircumflex,
idieresis,
i.loclTRK,
igrave,
imacron,
iogonek,
j,
k,
kcommaaccent,
l,
lacute,
lcaron,
lcommaaccent,
ldot,
lslash,
m,
n,
nacute,
ncaron,
ncommaaccent,
eng,
ntilde,
o,
oacute,
ocircumflex,
odieresis,
ograve,
ohungarumlaut,
omacron,
oslash,
otilde,
oe,
p,
thorn,
q,
r,
racute,
rcaron,
rcommaaccent,
s,
sacute,
scaron,
scedilla,
scommaaccent,
germandbls,
t,
tbar,
tcaron,
uni0163,
uni021B,
u,
uacute,
ucircumflex,
udieresis,
ugrave,
uhungarumlaut,

glyphs = (
{
glyphname = A;
lastChange = "2020-07-29 06:27:51 +0000";
layers = (
{
anchors = (
{
name = bottom;
position = "{275, 0}";
},
{
name = ogonek;
position = "{495, 10}";
},
{
name = top;
position = "{275, 650}";
}
);
layerId = "DA2C6654-D585-4A87-87E3-B198D23B8793";
paths = (
{
closed = 1;
nodes = (
"534 0 OFFCURVE",
"330 660 OFFCURVE",
"274 660 CURVE SMOOTH",
"218 660 OFFCURVE",
"16 0 OFFCURVE",
"72 0 CURVE SMOOTH",
"100 0 OFFCURVE",
"122 28 OFFCURVE",
"139 85 CURVE SMOOTH",
"156 142 OFFCURVE",
"201 170 OFFCURVE",
"274 170 CURVE SMOOTH",
"347 170 OFFCURVE",
"384 170 OFFCURVE",
"384 170 CURVE SMOOTH",
"384 170 OFFCURVE",
"420 0 OFFCURVE",
"477 0 CURVE SMOOTH"
);
},
{
closed = 1;
nodes = (
"215 246 OFFCURVE",
"201 296 OFFCURVE",
"230 396 CURVE SMOOTH",
"259 495 OFFCURVE",
"289 495 OFFCURVE",
"318 396 CURVE SMOOTH",
"347 296 OFFCURVE",
"333 246 OFFCURVE",
"274 246 CURVE SMOOTH"
);
}
);
width = 550;
}
);
note = A;
unicode = 0041;
},
{
glyphname = AE;
lastChange = "2020-07-29 06:27:51 +0000";
layers = (
{
anchors = (
{
name = bottom;
position = "{275, 0}";
},
{
name = top;
position = "{275, 650}";
}
);
layerId = "DA2C6654-D585-4A87-87E3-B198D23B8793";
paths = (
{
closed = 1;
nodes = (
"379 75 OFFCURVE",
"355 110 OFFCURVE",
"355 181 CURVE SMOOTH",
"355 251 OFFCURVE",
"372 286 OFFCURVE",
"405 286 CURVE SMOOTH",
"438 286 OFFCURVE",
"455 299 OFFCURVE",
"455 324 CURVE SMOOTH",
"455 349 OFFCURVE",
"438 361 OFFCURVE",
"405 361 CURVE SMOOTH",
"372 361 OFFCURVE",
"355 397 OFFCURVE",
"355 468 CURVE SMOOTH",
"355 539 OFFCURVE",
"379 575 OFFCURVE",
"427 575 CURVE SMOOTH",
"475 575 OFFCURVE",
"499 588 OFFCURVE",
"499 613 CURVE SMOOTH",
"499 638 OFFCURVE",
"454 650 OFFCURVE",
"363 650 CURVE SMOOTH",
"181 650 OFFCURVE",
"16 0 OFFCURVE",
"72 0 CURVE SMOOTH",
"100 0 OFFCURVE",
"123 30 OFFCURVE",
"140 91 CURVE SMOOTH",
"157 151 OFFCURVE",
"183 181 OFFCURVE",
"220 181 CURVE SMOOTH",
"257 181 OFFCURVE",
"275 151 OFFCURVE",
"275 91 CURVE SMOOTH",
"275 30 OFFCURVE",
"313 0 OFFCURVE",
"388 0 CURVE SMOOTH",
"463 0 OFFCURVE",
"500 13 OFFCURVE",
"500 38 CURVE SMOOTH",
"500 63 OFFCURVE",
"476 75 OFFCURVE",
"428 75 CURVE SMOOTH"
);
},
{
closed = 1;
nodes = (
"200 251 OFFCURVE",
"200 304 OFFCURVE",
"230 409 CURVE SMOOTH",
"260 514 OFFCURVE",
"275 514 OFFCURVE",
"275 409 CURVE SMOOTH",
"275 304 OFFCURVE",
"260 251 OFFCURVE",
"230 251 CURVE SMOOTH"
);
}
);
width = 550;
}
);
note = AE;
unicode = 00C6;
},
{
glyphname = B;
lastChange = "2020-07-29 06:27:51 +0000";
layers = (
{
anchors = (
{
name = bottom;
position = "{275, 0}";
},
{
name = top;
position = "{275, 650}";
}
);
layerId = "DA2C6654-D585-4A87-87E3-B198D23B8793";
paths = (
{
closed = 1;
nodes = (
"496 153 OFFCURVE",
"496 206 OFFCURVE",
"496 255 CURVE",
"412 320 LINE",
"363 325 OFFCURVE",
"360 332 OFFCURVE",
"404 339 CURVE",
"475 409 LINE",
"475 454 OFFCURVE",
"475 503 OFFCURVE",
"475 558 CURVE",
"362 650 LINE",
"295 650 OFFCURVE",
"225 650 OFFCURVE",
"153 650 CURVE SMOOTH",
"81 650 OFFCURVE",
"45 542 OFFCURVE",
"45 325 CURVE SMOOTH",
"45 108 OFFCURVE",
"86 0 OFFCURVE",
"168 0 CURVE SMOOTH",
"250 0 OFFCURVE",
"291 0 OFFCURVE",
"291 0 CURVE SMOOTH",
"291 0 OFFCURVE",
"322 2 OFFCURVE",
"385 5 CURVE",
"496 96 LINE"
);
},
{
closed = 1;
nodes = (
"238 572 OFFCURVE",
"282 572 OFFCURVE",
"323 572 CURVE",
"396 524 LINE",
"396 490 OFFCURVE",
"396 455 OFFCURVE",
"396 418 CURVE",
"320 361 LINE",
"274 361 OFFCURVE",
"230 361 OFFCURVE",
"188 361 CURVE SMOOTH",
"146 361 OFFCURVE",
"125 396 OFFCURVE",
"125 467 CURVE SMOOTH",
"125 537 OFFCURVE",
"148 572 OFFCURVE",
"193 572 CURVE SMOOTH"
);
},
{
closed = 1;
nodes = (
"319 78 OFFCURVE",
"247 78 OFFCURVE",
"198 78 CURVE SMOOTH",
"149 78 OFFCURVE",
"125 112 OFFCURVE",
"125 181 CURVE SMOOTH",
"125 249 OFFCURVE",
"146 283 OFFCURVE",
"188 283 CURVE SMOOTH",
"230 283 OFFCURVE",
"275 283 OFFCURVE",
"324 283 CURVE",
"416 240 LINE",
"416 201 OFFCURVE",
"416 147 OFFCURVE",
"416 78 CURVE"
);
}
);
width = 550;
}
);
note = B;
unicode = 0042;
},
{
glyphname = C;
lastChange = "2020-07-29 06:27:51 +0000";
layers = (
{
anchors = (
{
name = bottom;
position = "{275, 0}";
},
{
name = top;
position = "{275, 650}";
}
);
layerId = "DA2C6654-D585-4A87-87E3-B198D23B8793";
paths = (
{
closed = 1;
nodes = (
"505 181 OFFCURVE",
"493 217 OFFCURVE",
"468 217 CURVE SMOOTH",
"443 217 OFFCURVE",
"428 192 OFFCURVE",
"424 141 CURVE",
"357 65 LINE",
"312 65 OFFCURVE",
"259 65 OFFCURVE",
"199 65 CURVE",
"115 196 LINE",
"115 282 OFFCURVE",
"115 368 OFFCURVE",
"115 453 CURVE",
"199 585 LINE",
"259 585 OFFCURVE",
"312 585 OFFCURVE",
"357 585 CURVE",
"427 509 LINE",
"436 457 OFFCURVE",
"453 431 OFFCURVE",
"478 431 CURVE SMOOTH",
"503 431 OFFCURVE",
"512 468 OFFCURVE",
"507 541 CURVE",
"395 660 LINE",
"324 660 OFFCURVE",
"246 660 OFFCURVE",
"160 660 CURVE",
"35 484 LINE",
"35 378 OFFCURVE",
"35 272 OFFCURVE",
"35 166 CURVE",
"160 -10 LINE",
"246 -10 OFFCURVE",
"324 -10 OFFCURVE",
"395 -10 CURVE",
"505 109 LINE"
);
}
);
width = 550;
}
);
note = C;
unicode = 0043;
},
{
glyphname = D;
lastChange = "2020-07-29 06:27:51 +0000";
layers = (
{
anchors = (
{
name = bottom;
position = "{275, 0}";
},
{
name = center;
position = "{275, 325}";
},
{
name = top;
position = "{275, 650}";
}
);
background = {
paths = (
{
closed = 1;
nodes = (
"515 215 OFFCURVE",
"515 370 OFFCURVE",
"515 466 CURVE",
"370 650 LINE",
"263 650 OFFCURVE",
"182 650 OFFCURVE",
"127 650 CURVE SMOOTH",
"72 650 OFFCURVE",
"45 542 OFFCURVE",
"45 325 CURVE SMOOTH",
"45 108 OFFCURVE",
"72 0 OFFCURVE",
"127 0 CURVE SMOOTH",
"182 0 OFFCURVE",
"311 0 OFFCURVE",
"515 0 CURVE"
);
},
{
closed = 1;
nodes = (
"436 433 LINE",
"436 359 OFFCURVE",
"436 285 OFFCURVE",
"436 212 CURVE",
"339 77 LINE",
"252 77 OFFCURVE",
"195 77 OFFCURVE",
"167 77 CURVE SMOOTH",
"139 77 OFFCURVE",
"125 160 OFFCURVE",
"125 325 CURVE SMOOTH",
"125 490 OFFCURVE",
"139 573 OFFCURVE",
"167 573 CURVE SMOOTH",
"195 573 OFFCURVE",
"252 573 OFFCURVE",
"338 573 CURVE"
);
}
);
};
layerId = "DA2C6654-D585-4A87-87E3-B198D23B8793";
paths = (
{
closed = 1;
nodes = (
"370 650 LINE",
"248 650 OFFCURVE",
"168 650 OFFCURVE",
"127 650 CURVE SMOOTH",
"72 650 OFFCURVE",
"45 542 OFFCURVE",
"45 325 CURVE SMOOTH",
"45 108 OFFCURVE",
"72 0 OFFCURVE",
"127 0 CURVE SMOOTH",
"182 0 OFFCURVE",
"263 0 OFFCURVE",
"370 0 CURVE",
"515 184 LINE",
"515 250 OFFCURVE",
"515 344 OFFCURVE",
"515 466 CURVE"
);
},
{
closed = 1;
nodes = (
"252 77 OFFCURVE",
"195 77 OFFCURVE",
"167 77 CURVE SMOOTH",
"139 77 OFFCURVE",
"125 160 OFFCURVE",
"125 325 CURVE SMOOTH",
"125 490 OFFCURVE",
"139 573 OFFCURVE",
"167 573 CURVE SMOOTH",
"195 573 OFFCURVE",
"252 573 OFFCURVE",
"339 573 CURVE",
"436 438 LINE",
"436 365 OFFCURVE",
"436 291 OFFCURVE",
"436 217 CURVE",
"338 77 LINE"
);
}
);
width = 550;
}
);
note = D;
unicode = 0044;
},
{
glyphname = E;
lastChange = "2020-07-29 06:27:51 +0000";
layers = (
{
anchors = (
{
name = bottom;
position = "{275, 0}";
},
{
name = ogonek;
position = "{495, 10}";
},
{
name = top;
position = "{305, 650}";
},
{
name = topleft;
position = "{20, 650}";
}
);
layerId = "DA2C6654-D585-4A87-87E3-B198D23B8793";
paths = (
{
closed = 1;
nodes = (
"189 75 OFFCURVE",
"125 110 OFFCURVE",
"125 181 CURVE SMOOTH",
"125 251 OFFCURVE",
"177 286 OFFCURVE",
"281 286 CURVE SMOOTH",
"384 286 OFFCURVE",
"436 299 OFFCURVE",
"436 324 CURVE SMOOTH",
"436 349 OFFCURVE",
"384 361 OFFCURVE",
"281 361 CURVE SMOOTH",
"177 361 OFFCURVE",
"125 397 OFFCURVE",
"125 468 CURVE SMOOTH",
"125 539 OFFCURVE",
"188 575 OFFCURVE",
"315 575 CURVE SMOOTH",
"442 575 OFFCURVE",
"505 588 OFFCURVE",
"505 613 CURVE SMOOTH",
"505 638 OFFCURVE",
"428 650 OFFCURVE",
"275 650 CURVE SMOOTH",
"122 650 OFFCURVE",
"45 542 OFFCURVE",
"45 325 CURVE SMOOTH",
"45 108 OFFCURVE",
"122 0 OFFCURVE",
"276 0 CURVE SMOOTH",
"429 0 OFFCURVE",
"506 13 OFFCURVE",
"506 38 CURVE SMOOTH",
"506 63 OFFCURVE",
"443 75 OFFCURVE",
"316 75 CURVE SMOOTH"
);
}
);
width = 550;
}
);
note = E;
unicode = 0045;
},
{
glyphname = F;
lastChange = "2020-07-29 06:27:51 +0000";
layers = (
{
anchors = (
{
name = bottom;
position = "{275, 0}";
},
{
name = top;
position = "{275, 650}";
}
);
layerId = "DA2C6654-D585-4A87-87E3-B198D23B8793";
paths = (
{
closed = 1;
nodes = (
"442 573 OFFCURVE",
"505 586 OFFCURVE",
"505 612 CURVE SMOOTH",
"505 637 OFFCURVE",
"428 650 OFFCURVE",
"275 650 CURVE SMOOTH",
"122 650 OFFCURVE",
"45 542 OFFCURVE",
"45 325 CURVE SMOOTH",
"45 108 OFFCURVE",
"58 0 OFFCURVE",
"85 0 CURVE SMOOTH",
"112 0 OFFCURVE",
"125 48 OFFCURVE",
"125 143 CURVE SMOOTH",
"125 238 OFFCURVE",
"177 285 OFFCURVE",
"281 285 CURVE SMOOTH",
"384 285 OFFCURVE",
"436 298 OFFCURVE",
"436 324 CURVE SMOOTH",
"436 349 OFFCURVE",
"384 362 OFFCURVE",
"281 362 CURVE SMOOTH",
"177 362 OFFCURVE",
"125 397 OFFCURVE",
"125 468 CURVE SMOOTH",
"125 538 OFFCURVE",
"188 573 OFFCURVE",
"315 573 CURVE SMOOTH"
);
}
);
width = 550;
}
);
note = F;
unicode = 0046;
},
{
glyphname = G;
lastChange = "2020-07-29 06:27:51 +0000";
layers = (
{
anchors = (
{
name = bottom;
position = "{270, 0}";
},
{
name = top;
position = "{270, 650}";
}
);
layerId = "DA2C6654-D585-4A87-87E3-B198D23B8793";
paths = (
{
closed = 1;
nodes = (
"505 259 OFFCURVE",
"469 311 OFFCURVE",
"397 311 CURVE SMOOTH",
"325 311 OFFCURVE",
"289 299 OFFCURVE",
"289 274 CURVE SMOOTH",
"289 249 OFFCURVE",
"310 237 OFFCURVE",
"351 238 CURVE SMOOTH",
"392 239 OFFCURVE",
"404 209 OFFCURVE",
"389 149 CURVE",
"313 67 LINE",
"275 67 OFFCURVE",
"233 67 OFFCURVE",
"188 67 CURVE",
"115 200 LINE",
"115 283 OFFCURVE",
"115 411 OFFCURVE",
"115 583 CURVE",
"224 583 OFFCURVE",
"301 583 OFFCURVE",
"345 583 CURVE",
"415 507 LINE",
"422 456 OFFCURVE",
"437 431 OFFCURVE",
"460 431 CURVE SMOOTH",
"483 431 OFFCURVE",
"491 467 OFFCURVE",
"483 540 CURVE",
"374 660 LINE",
"311 660 OFFCURVE",
"238 660 OFFCURVE",
"156 660 CURVE",
"35 483 LINE",
"35 378 OFFCURVE",
"35 273 OFFCURVE",
"35 168 CURVE",
"146 -10 LINE",
"217 -10 OFFCURVE",
"307 -10 OFFCURVE",
"364 -10 CURVE",
"432 143 OFFCURVE",
"440 173 OFFCURVE",
"437 81 CURVE SMOOTH",
"437 27 OFFCURVE",
"448 0 OFFCURVE",
"471 0 CURVE SMOOTH",
"494 0 OFFCURVE",
"505 52 OFFCURVE",
"505 156 CURVE SMOOTH"
);
}
);
width = 550;
}
);
note = G;
unicode = 0047;
},
{
glyphname = H;
lastChange = "2020-07-29 06:27:51 +0000";
layers = (
{
anchors = (
{
name = bottom;
position = "{275, 0}";
},
{
name = center;
position = "{275, 325}";
},
{
name = top;
position = "{275, 650}";
},
{
name = topleft;
position = "{20, 650}";
}
);
layerId = "DA2C6654-D585-4A87-87E3-B198D23B8793";
paths = (
{
closed = 1;
nodes = (
"438 650 OFFCURVE",
"425 602 OFFCURVE",
"425 506 CURVE SMOOTH",
"425 410 OFFCURVE",
"375 362 OFFCURVE",
"275 362 CURVE SMOOTH",
"175 362 OFFCURVE",
"125 410 OFFCURVE",
"125 506 CURVE SMOOTH",
"125 602 OFFCURVE",
"112 650 OFFCURVE",
"85 650 CURVE SMOOTH",
"58 650 OFFCURVE",
"45 542 OFFCURVE",
"45 325 CURVE SMOOTH",
"45 108 OFFCURVE",
"58 0 OFFCURVE",
"85 0 CURVE SMOOTH",
"112 0 OFFCURVE",
"125 48 OFFCURVE",
"125 144 CURVE SMOOTH",
"125 239 OFFCURVE",
"175 287 OFFCURVE",
"275 287 CURVE SMOOTH",
"375 287 OFFCURVE",
"425 239 OFFCURVE",
"425 144 CURVE SMOOTH",
"425 48 OFFCURVE",
"438 0 OFFCURVE",
"465 0 CURVE SMOOTH",
"492 0 OFFCURVE",
"505 108 OFFCURVE",
"505 325 CURVE SMOOTH",
"505 542 OFFCURVE",
"492 650 OFFCURVE",
"465 650 CURVE SMOOTH"
);
}
);
width = 550;
}
);
note = H;
unicode = 0048;
},
{
glyphname = Hbar;
lastChange = "2020-07-29 06:27:51 +0000";
layers = (
{
layerId = "DA2C6654-D585-4A87-87E3-B198D23B8793";
paths = (
{
closed = 1;
nodes = (
"540 495 OFFCURVE",
"534 507 OFFCURVE",
"523 507 CURVE SMOOTH",
"511 507 OFFCURVE",
"505 531 OFFCURVE",
"505 579 CURVE SMOOTH",
"505 626 OFFCURVE",
"492 650 OFFCURVE",
"465 650 CURVE SMOOTH",
"438 650 OFFCURVE",
"425 626 OFFCURVE",
"425 579 CURVE SMOOTH",
"425 531 OFFCURVE",
"375 507 OFFCURVE",
"275 507 CURVE SMOOTH",
"175 507 OFFCURVE",
"125 531 OFFCURVE",
"125 579 CURVE SMOOTH",
"125 626 OFFCURVE",
"112 650 OFFCURVE",
"85 650 CURVE SMOOTH",
"58 650 OFFCURVE",
"45 626 OFFCURVE",
"45 579 CURVE SMOOTH",
"45 531 OFFCURVE",
"39 507 OFFCURVE",
"28 507 CURVE SMOOTH",
"16 507 OFFCURVE",
"10 495 OFFCURVE",
"10 470 CURVE SMOOTH",
"10 445 OFFCURVE",
"16 432 OFFCURVE",
"28 432 CURVE SMOOTH",
"39 432 OFFCURVE",
"45 360 OFFCURVE",
"45 216 CURVE SMOOTH",
"45 72 OFFCURVE",
"58 0 OFFCURVE",
"85 0 CURVE SMOOTH",
"112 0 OFFCURVE",
"125 48 OFFCURVE",
"125 144 CURVE SMOOTH",
"125 239 OFFCURVE",
"175 287 OFFCURVE",
"275 287 CURVE SMOOTH",
"375 287 OFFCURVE",
"425 239 OFFCURVE",
"425 144 CURVE SMOOTH",
"425 48 OFFCURVE",
"438 0 OFFCURVE",
"465 0 CURVE SMOOTH",
"492 0 OFFCURVE",
"505 72 OFFCURVE",
"505 216 CURVE SMOOTH",
"505 360 OFFCURVE",
"511 432 OFFCURVE",
"523 432 CURVE SMOOTH",
"534 432 OFFCURVE",
"540 445 OFFCURVE",
"540 470 CURVE SMOOTH"
);
},
{
closed = 1;
nodes = (
"425 374 OFFCURVE",
"375 362 OFFCURVE",
"275 362 CURVE SMOOTH",
"175 362 OFFCURVE",
"125 374 OFFCURVE",
"125 397 CURVE SMOOTH",
"125 420 OFFCURVE",
"175 432 OFFCURVE",
"275 432 CURVE SMOOTH",
"375 432 OFFCURVE",
"425 420 OFFCURVE",
"425 397 CURVE SMOOTH"
);
}
);
width = 550;
}
);
note = Hbar;
unicode = 0126;
},
{
glyphname = I;
lastChange = "2020-07-29 06:27:51 +0000";
layers = (
{
anchors = (
{
name = bottom;
position = "{275, 0}";
},
{
name = ogonek;
position = "{275, 10}";
},
{
name = top;
position = "{275, 650}";
},
{
name = topleft;
position = "{20, 650}";
}
);
layerId = "DA2C6654-D585-4A87-87E3-B198D23B8793";
paths = (
{
closed = 1;
nodes = (
"423 575 OFFCURVE",
"445 588 OFFCURVE",
"445 613 CURVE SMOOTH",
"445 638 OFFCURVE",
"388 650 OFFCURVE",
"275 650 CURVE SMOOTH",
"162 650 OFFCURVE",
"105 638 OFFCURVE",
"105 613 CURVE SMOOTH",
"105 588 OFFCURVE",
"127 575 OFFCURVE",
"170 575 CURVE SMOOTH",
"213 575 OFFCURVE",
"235 492 OFFCURVE",
"235 325 CURVE SMOOTH",
"235 158 OFFCURVE",
"213 75 OFFCURVE",
"170 75 CURVE SMOOTH",
"127 75 OFFCURVE",
"105 63 OFFCURVE",
"105 38 CURVE SMOOTH",
"105 13 OFFCURVE",
"127 0 OFFCURVE",
"170 0 CURVE SMOOTH",
"213 0 OFFCURVE",
"235 0 OFFCURVE",
"235 0 CURVE SMOOTH",
"235 0 OFFCURVE",
"248 0 OFFCURVE",
"275 0 CURVE SMOOTH",
"302 0 OFFCURVE",
"315 0 OFFCURVE",
"315 0 CURVE SMOOTH",
"315 0 OFFCURVE",
"337 0 OFFCURVE",
"380 0 CURVE SMOOTH",
"423 0 OFFCURVE",
"445 13 OFFCURVE",
"445 38 CURVE SMOOTH",
"445 63 OFFCURVE",
"423 75 OFFCURVE",
"380 75 CURVE SMOOTH",
"337 75 OFFCURVE",
"315 158 OFFCURVE",
"315 325 CURVE SMOOTH",
"315 492 OFFCURVE",
"337 575 OFFCURVE",
"380 575 CURVE SMOOTH"
);
}
);
width = 550;
}
);
note = I;
unicode = 0049;
},
{
glyphname = IJ;
lastChange = "2020-07-29 06:27:51 +0000";
layers = (
{
layerId = "DA2C6654-D585-4A87-87E3-B198D23B8793";
paths = (
{
closed = 1;
nodes = (
"418 650 OFFCURVE",
"405 578 OFFCURVE",
"405 435 CURVE SMOOTH",
"405 291 OFFCURVE",
"405 197 OFFCURVE",
"405 152 CURVE",
"336 68 LINE",
"295 68 OFFCURVE",
"254 68 OFFCURVE",
"211 68 CURVE",
"128 130 LINE",
"121 169 OFFCURVE",
"106 188 OFFCURVE",
"82 188 CURVE SMOOTH",
"57 188 OFFCURVE",
"46 157 OFFCURVE",
"49 96 CURVE",
"175 -10 LINE",
"242 -10 OFFCURVE",
"296 -10 OFFCURVE",
"338 -10 CURVE",
"433 49 LINE",
"485 154 LINE",
"485 197 OFFCURVE",
"485 291 OFFCURVE",
"485 435 CURVE SMOOTH",
"485 578 OFFCURVE",
"472 650 OFFCURVE",
"445 650 CURVE SMOOTH"
);
},
{
closed = 1;
nodes = (
"132 586 OFFCURVE",
"119 650 OFFCURVE",
"92 650 CURVE SMOOTH",
"65 650 OFFCURVE",
"52 586 OFFCURVE",
"52 457 CURVE SMOOTH",
"52 328 OFFCURVE",
"65 263 OFFCURVE",
"92 263 CURVE SMOOTH",
"119 263 OFFCURVE",
"132 328 OFFCURVE",
"132 457 CURVE SMOOTH"
);
}
);
width = 550;
}
);
note = IJ;
unicode = 0132;
},
{
glyphname = J;
lastChange = "2020-07-29 06:27:51 +0000";
layers = (
{
anchors = (
{
name = bottom;
position = "{275, 0}";
},
{
name = top;
position = "{275, 650}";
}
);
layerId = "DA2C6654-D585-4A87-87E3-B198D23B8793";
paths = (
{
closed = 1;
nodes = (
"418 650 OFFCURVE",
"405 578 OFFCURVE",
"405 435 CURVE SMOOTH",
"405 291 OFFCURVE",
"405 197 OFFCURVE",
"405 152 CURVE",
"336 68 LINE",
"295 68 OFFCURVE",
"254 68 OFFCURVE",
"211 68 CURVE",
"128 130 LINE",
"121 169 OFFCURVE",
"106 188 OFFCURVE",
"82 188 CURVE SMOOTH",
"57 188 OFFCURVE",
"46 157 OFFCURVE",
"49 96 CURVE",
"175 -10 LINE",
"242 -10 OFFCURVE",
"296 -10 OFFCURVE",
"338 -10 CURVE",
"433 49 LINE",
"485 154 LINE",
"485 197 OFFCURVE",
"485 291 OFFCURVE",
"485 435 CURVE SMOOTH",
"485 578 OFFCURVE",
"472 650 OFFCURVE",
"445 650 CURVE SMOOTH"
);
}
);
width = 550;
}
);
note = J;
unicode = 004A;
},
{
glyphname = K;
lastChange = "2020-07-29 06:27:51 +0000";
layers = (
{
anchors = (
{
name = bottom;
position = "{245, 0}";
},
{
name = top;
position = "{275, 650}";
}
);
layerId = "DA2C6654-D585-4A87-87E3-B198D23B8793";
paths = (
{
closed = 1;
nodes = (
"512 0 OFFCURVE",
"479 57 OFFCURVE",
"376 172 CURVE SMOOTH",
"251 311 OFFCURVE",
"244 370 OFFCURVE",
"355 497 CURVE SMOOTH",
"444 599 OFFCURVE",
"470 650 OFFCURVE",
"434 650 CURVE SMOOTH",
"398 650 OFFCURVE",
"338 598 OFFCURVE",
"253 495 CURVE SMOOTH",
"168 392 OFFCURVE",
"125 392 OFFCURVE",
"125 495 CURVE SMOOTH",
"125 598 OFFCURVE",
"112 650 OFFCURVE",
"85 650 CURVE SMOOTH",
"58 650 OFFCURVE",
"45 542 OFFCURVE",
"45 325 CURVE SMOOTH",
"45 108 OFFCURVE",
"58 0 OFFCURVE",
"85 0 CURVE SMOOTH",
"112 0 OFFCURVE",
"125 57 OFFCURVE",
"125 170 CURVE SMOOTH",
"125 283 OFFCURVE",
"175 283 OFFCURVE",
"275 170 CURVE SMOOTH",
"374 57 OFFCURVE",
"442 0 OFFCURVE",
"477 0 CURVE SMOOTH"
);
}
);
width = 550;
}
);
note = K;
unicode = 004B;
},
{
glyphname = L;
lastChange = "2020-07-29 06:27:51 +0000";
layers = (
{
anchors = (
{
name = bottom;
position = "{275, 0}";
},
{
name = center;
position = "{275, 325}";
},
{
name = top;
position = "{115, 650}";
},
{
name = topright;
position = "{530, 650}";
}
);
layerId = "DA2C6654-D585-4A87-87E3-B198D23B8793";
paths = (
{
closed = 1;
nodes = (
"188 75 OFFCURVE",
"125 171 OFFCURVE",
"125 363 CURVE SMOOTH",
"125 554 OFFCURVE",
"112 650 OFFCURVE",
"85 650 CURVE SMOOTH",
"58 650 OFFCURVE",
"45 542 OFFCURVE",
"45 325 CURVE SMOOTH",
"45 108 OFFCURVE",
"57 0 OFFCURVE",
"82 0 CURVE SMOOTH",
"106 0 OFFCURVE",
"118 0 OFFCURVE",
"118 0 CURVE SMOOTH",
"118 0 OFFCURVE",
"183 0 OFFCURVE",
"312 0 CURVE SMOOTH",
"441 0 OFFCURVE",
"505 13 OFFCURVE",
"505 38 CURVE SMOOTH",
"505 63 OFFCURVE",
"442 75 OFFCURVE",
"315 75 CURVE SMOOTH"
);
}
);
width = 550;
}
);
note = L;
unicode = 004C;
},
{
glyphname = M;
lastChange = "2020-07-29 06:27:51 +0000";
layers = (
{
anchors = (
{
name = bottom;
position = "{275, 0}";
},
{
name = top;
position = "{275, 650}";
}
);
layerId = "DA2C6654-D585-4A87-87E3-B198D23B8793";
paths = (
{
closed = 1;
nodes = (
"438 650 OFFCURVE",
"400 560 OFFCURVE",
"350 379 CURVE SMOOTH",
"300 198 OFFCURVE",
"250 198 OFFCURVE",
"200 379 CURVE SMOOTH",
"150 560 OFFCURVE",
"112 650 OFFCURVE",
"85 650 CURVE SMOOTH",
"58 650 OFFCURVE",
"45 542 OFFCURVE",
"45 325 CURVE SMOOTH",
"45 108 OFFCURVE",
"58 0 OFFCURVE",
"85 0 CURVE SMOOTH",
"112 0 OFFCURVE",
"125 71 OFFCURVE",
"125 213 CURVE SMOOTH",
"125 355 OFFCURVE",
"143 355 OFFCURVE",
"180 213 CURVE SMOOTH",
"217 71 OFFCURVE",
"248 0 OFFCURVE",
"275 0 CURVE SMOOTH",
"302 0 OFFCURVE",
"333 72 OFFCURVE",
"370 215 CURVE SMOOTH",
"407 358 OFFCURVE",
"425 358 OFFCURVE",
"425 215 CURVE SMOOTH",
"425 72 OFFCURVE",
"438 0 OFFCURVE",
"465 0 CURVE SMOOTH",
"492 0 OFFCURVE",
"505 108 OFFCURVE",
"505 325 CURVE SMOOTH",
"505 542 OFFCURVE",
"492 650 OFFCURVE",
"465 650 CURVE SMOOTH"
);
}
);
width = 550;
}
);
note = M;
unicode = 004D;
},
{
glyphname = N;
lastChange = "2020-07-29 06:27:51 +0000";
layers = (
{
anchors = (
{
name = bottom;
position = "{275, 0}";
},
{
name = top;
position = "{275, 650}";
}
);
layerId = "DA2C6654-D585-4A87-87E3-B198D23B8793";
paths = (
{
closed = 1;
nodes = (
"438 650 OFFCURVE",
"425 564 OFFCURVE",
"425 393 CURVE SMOOTH",
"425 221 OFFCURVE",
"375 221 OFFCURVE",
"275 393 CURVE SMOOTH",
"175 564 OFFCURVE",
"112 650 OFFCURVE",
"85 650 CURVE SMOOTH",
"58 650 OFFCURVE",
"45 542 OFFCURVE",
"45 325 CURVE SMOOTH",
"45 108 OFFCURVE",
"58 0 OFFCURVE",
"85 0 CURVE SMOOTH",
"112 0 OFFCURVE",
"125 85 OFFCURVE",
"125 255 CURVE SMOOTH",
"125 424 OFFCURVE",
"175 424 OFFCURVE",
"275 255 CURVE SMOOTH",
"375 85 OFFCURVE",
"438 0 OFFCURVE",
"465 0 CURVE SMOOTH",
"492 0 OFFCURVE",
"505 108 OFFCURVE",
"505 325 CURVE SMOOTH",
"505 542 OFFCURVE",
"492 650 OFFCURVE",
"465 650 CURVE SMOOTH"
);
}
);
width = 550;
}
);
note = N;
unicode = 004E;
},
{
glyphname = Eng;
lastChange = "2020-07-29 06:27:51 +0000";
layers = (
{
layerId = "DA2C6654-D585-4A87-87E3-B198D23B8793";
paths = (
{
closed = 1;
nodes = (
"505 542 OFFCURVE",
"492 650 OFFCURVE",
"465 650 CURVE SMOOTH",
"438 650 OFFCURVE",
"425 564 OFFCURVE",
"425 393 CURVE SMOOTH",
"425 221 OFFCURVE",
"375 221 OFFCURVE",
"275 393 CURVE SMOOTH",
"175 564 OFFCURVE",
"112 650 OFFCURVE",
"85 650 CURVE SMOOTH",
"58 650 OFFCURVE",
"45 542 OFFCURVE",
"45 325 CURVE SMOOTH",
"45 108 OFFCURVE",
"58 0 OFFCURVE",
"85 0 CURVE SMOOTH",
"112 0 OFFCURVE",
"125 85 OFFCURVE",
"125 255 CURVE SMOOTH",
"125 424 OFFCURVE",
"175 424 OFFCURVE",
"275 255 CURVE SMOOTH",
"375 86 OFFCURVE",
"425 1 OFFCURVE",
"425 1 CURVE",
"425 0 OFFCURVE",
"425 -25 OFFCURVE",
"425 -75 CURVE",
"359 -130 LINE",
"323 -130 OFFCURVE",
"305 -143 OFFCURVE",
"305 -170 CURVE SMOOTH",
"305 -197 OFFCURVE",
"322 -210 OFFCURVE",
"357 -210 CURVE",
"449 -168 LINE",
"505 -82 LINE",
"505 -41 OFFCURVE",
"505 -17 OFFCURVE",
"505 -10 CURVE SMOOTH",
"505 -3 OFFCURVE",
"505 0 OFFCURVE",
"505 0 CURVE SMOOTH",
"505 0 OFFCURVE",
"505 108 OFFCURVE",
"505 325 CURVE SMOOTH"
);
}
);
width = 550;
}
);
note = Eng;
unicode = 014A;
},
{
glyphname = O;
lastChange = "2020-07-29 06:27:51 +0000";
layers = (
{
anchors = (
{
name = bottom;
position = "{275, 0}";
},
{
name = center;
position = "{275, 325}";
},
{
name = ogonek;
position = "{495, 10}";
},
{
name = top;
position = "{275, 650}";
},
{
name = topleft;
position = "{20, 650}";
},
{
name = topright;
position = "{530, 650}";
}
);
layerId = "DA2C6654-D585-4A87-87E3-B198D23B8793";
paths = (
{
closed = 1;
nodes = (
"234 -10 OFFCURVE",
"316 -10 OFFCURVE",
"397 -10 CURVE",
"515 166 LINE",
"515 272 OFFCURVE",
"515 378 OFFCURVE",
"515 484 CURVE",
"397 660 LINE",
"316 660 OFFCURVE",
"236 660 OFFCURVE",
"159 660 CURVE",
"35 481 LINE",
"35 377 OFFCURVE",
"35 272 OFFCURVE",
"35 166 CURVE",
"153 -10 LINE"
);
},
{
closed = 1;
nodes = (
"303 67 OFFCURVE",
"247 67 OFFCURVE",
"192 67 CURVE",
"115 196 LINE",
"115 282 OFFCURVE",
"115 368 OFFCURVE",
"115 453 CURVE",
"192 583 LINE",
"247 583 OFFCURVE",
"303 583 OFFCURVE",
"358 583 CURVE",
"435 453 LINE",
"435 368 OFFCURVE",
"435 282 OFFCURVE",
"435 196 CURVE",
"358 67 LINE"
);
}
);
width = 550;
}
);
note = O;
unicode = 004F;
},
{
glyphname = OE;
lastChange = "2020-07-29 06:27:51 +0000";
layers = (
{
anchors = (
{
name = bottom;
position = "{275, 0}";
},
{
name = top;
position = "{275, 650}";
}
);
layerId = "DA2C6654-D585-4A87-87E3-B198D23B8793";
paths = (
{
closed = 1;
nodes = (
"506 64 OFFCURVE",
"479 77 OFFCURVE",
"426 77 CURVE SMOOTH",
"373 77 OFFCURVE",
"358 102 OFFCURVE",
"381 151 CURVE",
"383 240 OFFCURVE",
"398 285 OFFCURVE",
"425 285 CURVE SMOOTH",
"452 285 OFFCURVE",
"466 298 OFFCURVE",
"466 324 CURVE SMOOTH",
"466 349 OFFCURVE",
"453 362 OFFCURVE",
"426 362 CURVE SMOOTH",
"399 362 OFFCURVE",
"383 409 OFFCURVE",
"380 503 CURVE",
"357 550 OFFCURVE",
"373 573 OFFCURVE",
"426 573 CURVE SMOOTH",
"479 573 OFFCURVE",
"505 586 OFFCURVE",
"505 612 CURVE SMOOTH",
"505 637 OFFCURVE",
"466 650 OFFCURVE",
"388 650 CURVE SMOOTH",
"309 650 OFFCURVE",
"262 653 OFFCURVE",
"247 660 CURVE",
"226 660 OFFCURVE",
"186 660 OFFCURVE",
"128 660 CURVE",
"35 481 LINE",
"35 377 OFFCURVE",
"35 272 OFFCURVE",
"35 165 CURVE",
"122 -10 LINE",
"184 -10 OFFCURVE",
"226 -10 OFFCURVE",
"247 -10 CURVE",
"262 -3 OFFCURVE",
"309 0 OFFCURVE",
"388 0 CURVE SMOOTH",
"467 0 OFFCURVE",
"506 13 OFFCURVE",
"506 39 CURVE SMOOTH"
);
},
{
closed = 1;
nodes = (
"115 282 OFFCURVE",
"115 368 OFFCURVE",
"115 454 CURVE",
"162 583 LINE",
"197 583 OFFCURVE",
"232 583 OFFCURVE",
"267 583 CURVE",
"305 459 LINE",
"305 370 OFFCURVE",
"305 280 OFFCURVE",
"305 190 CURVE",
"267 67 LINE",
"232 67 OFFCURVE",
"197 67 OFFCURVE",
"162 67 CURVE",
"115 195 LINE"
);
}
);
width = 550;
}
);
note = OE;
unicode = 0152;
},
{
glyphname = P;
lastChange = "2020-07-29 06:27:51 +0000";
layers = (
{
anchors = (
{
name = bottom;
position = "{275, 0}";
},
{
name = top;
position = "{275, 650}";
}
);
layerId = "DA2C6654-D585-4A87-87E3-B198D23B8793";
paths = (
{
closed = 1;
nodes = (
"315 650 OFFCURVE",
"253 650 OFFCURVE",
"170 650 CURVE SMOOTH",
"87 650 OFFCURVE",
"45 542 OFFCURVE",
"45 325 CURVE SMOOTH",
"45 108 OFFCURVE",
"58 0 OFFCURVE",
"85 0 CURVE SMOOTH",
"112 0 OFFCURVE",
"125 38 OFFCURVE",
"125 115 CURVE SMOOTH",
"125 192 OFFCURVE",
"153 230 OFFCURVE",
"210 230 CURVE SMOOTH",
"267 230 OFFCURVE",
"315 230 OFFCURVE",
"356 230 CURVE",
"453 280 LINE",
"510 375 LINE",
"510 418 OFFCURVE",
"510 462 OFFCURVE",
"510 505 CURVE",
"453 600 LINE",
"356 650 LINE"
);
},
{
closed = 1;
nodes = (
"315 307 OFFCURVE",
"267 307 OFFCURVE",
"210 307 CURVE SMOOTH",
"153 307 OFFCURVE",
"125 351 OFFCURVE",
"125 440 CURVE SMOOTH",
"125 529 OFFCURVE",
"153 573 OFFCURVE",
"210 573 CURVE SMOOTH",
"267 573 OFFCURVE",
"315 573 OFFCURVE",
"356 573 CURVE",
"430 502 LINE",
"430 461 OFFCURVE",
"430 420 OFFCURVE",
"430 380 CURVE",
"355 307 LINE"
);
}
);
width = 550;
}
);
note = P;
unicode = 0050;
},
{
glyphname = Thorn;
lastChange = "2020-07-29 06:27:51 +0000";
layers = (
{
anchors = (
{
name = bottom;
position = "{275, 0}";
},
{
name = top;
position = "{275, 650}";
}
);
layerId = "DA2C6654-D585-4A87-87E3-B198D23B8793";
paths = (
{
closed = 1;
nodes = (
"315 535 OFFCURVE",
"267 535 OFFCURVE",
"210 535 CURVE SMOOTH",
"153 535 OFFCURVE",
"125 554 OFFCURVE",
"125 593 CURVE SMOOTH",
"125 631 OFFCURVE",
"112 650 OFFCURVE",
"85 650 CURVE SMOOTH",
"58 650 OFFCURVE",
"45 542 OFFCURVE",
"45 325 CURVE SMOOTH",
"45 108 OFFCURVE",
"58 0 OFFCURVE",
"85 0 CURVE SMOOTH",
"112 0 OFFCURVE",
"125 19 OFFCURVE",
"125 58 CURVE SMOOTH",
"125 96 OFFCURVE",
"153 115 OFFCURVE",
"210 115 CURVE SMOOTH",
"267 115 OFFCURVE",
"315 115 OFFCURVE",
"356 115 CURVE",
"453 165 LINE",
"510 260 LINE",
"510 303 OFFCURVE",
"510 347 OFFCURVE",
"510 390 CURVE",
"453 485 LINE",
"356 535 LINE"
);
},
{
closed = 1;
nodes = (
"315 192 OFFCURVE",
"267 192 OFFCURVE",
"210 192 CURVE SMOOTH",
"153 192 OFFCURVE",
"125 236 OFFCURVE",
"125 325 CURVE SMOOTH",
"125 414 OFFCURVE",
"153 458 OFFCURVE",
"210 458 CURVE SMOOTH",
"267 458 OFFCURVE",
"315 458 OFFCURVE",
"356 458 CURVE",
"430 387 LINE",
"430 346 OFFCURVE",
"430 305 OFFCURVE",
"430 265 CURVE",
"355 192 LINE"
);
}
);
width = 550;
}
);
note = Thorn;
unicode = 00DE;
},
{
glyphname = Q;
lastChange = "2020-07-29 06:27:51 +0000";
layers = (
{
anchors = (
{
name = bottom;
position = "{275, 0}";
},
{
name = top;
position = "{275, 650}";
}
);
layerId = "DA2C6654-D585-4A87-87E3-B198D23B8793";
paths = (
{
closed = 1;
nodes = (
"515 277 OFFCURVE",
"515 378 OFFCURVE",
"515 484 CURVE",
"397 660 LINE",
"316 660 OFFCURVE",
"236 660 OFFCURVE",
"159 660 CURVE",
"35 481 LINE",
"35 377 OFFCURVE",
"35 277 OFFCURVE",
"35 180 CURVE",
"134 7 LINE",
"201 -2 OFFCURVE",
"235 -39 OFFCURVE",
"235 -103 CURVE SMOOTH",
"235 -168 OFFCURVE",
"248 -200 OFFCURVE",
"275 -200 CURVE SMOOTH",
"302 -200 OFFCURVE",
"315 -168 OFFCURVE",
"315 -103 CURVE SMOOTH",
"315 -39 OFFCURVE",
"349 -2 OFFCURVE",
"416 7 CURVE",
"515 180 LINE"
);
},
{
closed = 1;
nodes = (
"303 67 OFFCURVE",
"247 67 OFFCURVE",
"192 67 CURVE",
"115 196 LINE",
"115 282 OFFCURVE",
"115 368 OFFCURVE",
"115 453 CURVE",
"192 583 LINE",
"247 583 OFFCURVE",
"303 583 OFFCURVE",
"358 583 CURVE",
"435 453 LINE",
"435 368 OFFCURVE",
"435 282 OFFCURVE",
"435 196 CURVE",
"358 67 LINE"
);
}
);
width = 550;
}
);
note = Q;
unicode = 0051;
},
{
glyphname = R;
lastChange = "2020-07-29 06:27:51 +0000";
layers = (
{
anchors = (
{
name = bottom;
position = "{275, 0}";
},
{
name = top;
position = "{275, 650}";
}
);
layerId = "DA2C6654-D585-4A87-87E3-B198D23B8793";
paths = (
{
closed = 1;
nodes = (
"336 298 OFFCURVE",
"345 301 OFFCURVE",
"400 306 CURVE",
"497 386 LINE",
"497 439 OFFCURVE",
"497 495 OFFCURVE",
"497 556 CURVE",
"385 650 LINE",
"316 650 OFFCURVE",
"243 650 OFFCURVE",
"164 650 CURVE SMOOTH",
"85 650 OFFCURVE",
"45 542 OFFCURVE",
"45 325 CURVE SMOOTH",
"45 108 OFFCURVE",
"58 0 OFFCURVE",
"85 0 CURVE SMOOTH",
"112 0 OFFCURVE",
"125 44 OFFCURVE",
"125 133 CURVE SMOOTH",
"125 221 OFFCURVE",
"148 265 OFFCURVE",
"194 265 CURVE SMOOTH",
"239 265 OFFCURVE",
"310 265 OFFCURVE",
"407 265 CURVE",
"407 196 OFFCURVE",
"407 135 OFFCURVE",
"408 81 CURVE SMOOTH",
"408 27 OFFCURVE",
"421 0 OFFCURVE",
"448 0 CURVE SMOOTH",
"474 0 OFFCURVE",
"487 27 OFFCURVE",
"487 81 CURVE SMOOTH",
"487 135 OFFCURVE",
"487 180 OFFCURVE",
"487 217 CURVE",
"447 275 LINE",
"375 297 LINE"
);
},
{
closed = 1;
nodes = (
"151 342 OFFCURVE",
"125 381 OFFCURVE",
"125 458 CURVE SMOOTH",
"125 535 OFFCURVE",
"151 573 OFFCURVE",
"204 573 CURVE SMOOTH",
"256 573 OFFCURVE",
"302 573 OFFCURVE",
"343 573 CURVE",
"417 517 LINE",
"417 483 OFFCURVE",
"417 448 OFFCURVE",
"417 411 CURVE",
"342 342 LINE",
"302 342 OFFCURVE",
"256 342 OFFCURVE",
"204 342 CURVE SMOOTH"
);
}
);
width = 550;
}
);
note = R;
unicode = 0052;
},
{
glyphname = S;
lastChange = "2020-07-29 06:27:51 +0000";
layers = (
{
anchors = (
{
name = bottom;
position = "{275, 0}";
},
{
name = top;
position = "{275, 650}";
}
);
layerId = "DA2C6654-D585-4A87-87E3-B198D23B8793";
paths = (
{
closed = 1;
nodes = (
"41 211 OFFCURVE",
"51 206 OFFCURVE",
"51 155 CURVE",
"101 60 LINE",
"214 -10 LINE",
"272 -10 OFFCURVE",
"331 -10 OFFCURVE",
"392 -10 CURVE",
"498 89 LINE",
"498 144 OFFCURVE",
"498 188 OFFCURVE",
"498 223 CURVE",
"452 289 LINE",
"404 326 LINE",
"364 341 OFFCURVE",
"340 351 OFFCURVE",
"331 355 CURVE",
"322 358 OFFCURVE",
"312 362 OFFCURVE",
"303 366 CURVE",
"293 369 OFFCURVE",
"268 377 OFFCURVE",
"239 388 CURVE",
"189 412 LINE",
"154 454 LINE",
"154 475 OFFCURVE",
"154 502 OFFCURVE",
"154 534 CURVE",
"223 584 LINE",
"257 584 OFFCURVE",
"298 584 OFFCURVE",
"336 584 CURVE",
"412 519 LINE",
"413 474 OFFCURVE",
"426 452 OFFCURVE",
"450 452 CURVE SMOOTH",
"473 452 OFFCURVE",
"486 484 OFFCURVE",
"487 547 CURVE",
"379 660 LINE",
"315 660 OFFCURVE",
"257 660 OFFCURVE",
"216 660 CURVE",
"123 612 LINE",
"74 531 LINE",
"74 499 OFFCURVE",
"74 464 OFFCURVE",
"74 425 CURVE",
"136 351 LINE",
"216 313 LINE",
"267 294 OFFCURVE",
"315 279 OFFCURVE",
"349 266 CURVE",
"381 243 LINE",
"418 202 LINE",
"418 181 OFFCURVE",
"418 155 OFFCURVE",
"418 122 CURVE",
"350 65 LINE",
"314 65 OFFCURVE",
"273 65 OFFCURVE",
"227 65 CURVE",
"129 147 LINE",
"126 190 OFFCURVE",
"113 211 OFFCURVE",
"89 211 CURVE SMOOTH"
);
}
);
width = 550;
}
);
note = S;
unicode = 0053;
},
{
glyphname = T;
lastChange = "2020-07-29 06:27:51 +0000";
layers = (
{
anchors = (
{
name = bottom;
position = "{275, 0}";
},
{
name = center;
position = "{275, 325}";
},
{
name = top;
position = "{275, 650}";
}
);
layerId = "DA2C6654-D585-4A87-87E3-B198D23B8793";
paths = (
{
closed = 1;
nodes = (
"535 638 OFFCURVE",
"448 650 OFFCURVE",
"275 650 CURVE SMOOTH",
"102 650 OFFCURVE",
"15 638 OFFCURVE",
"15 613 CURVE SMOOTH",
"15 588 OFFCURVE",
"52 575 OFFCURVE",
"125 575 CURVE SMOOTH",
"198 575 OFFCURVE",
"235 479 OFFCURVE",
"235 288 CURVE SMOOTH",
"235 96 OFFCURVE",
"248 0 OFFCURVE",
"275 0 CURVE SMOOTH",
"302 0 OFFCURVE",
"315 96 OFFCURVE",
"315 288 CURVE SMOOTH",
"315 479 OFFCURVE",
"352 575 OFFCURVE",
"425 575 CURVE SMOOTH",
"498 575 OFFCURVE",
"535 588 OFFCURVE",
"535 613 CURVE SMOOTH"
);
}
);
width = 550;
}
);
note = T;
unicode = 0054;
},
{
glyphname = U;
lastChange = "2020-07-29 06:27:51 +0000";
layers = (
{
anchors = (
{
name = bottom;
position = "{275, 0}";
},
{
name = ogonek;
position = "{495, 10}";
},
{
name = top;
position = "{275, 650}";
},
{
name = topright;
position = "{530, 650}";
}
);
layerId = "DA2C6654-D585-4A87-87E3-B198D23B8793";
paths = (
{
closed = 1;
nodes = (
"438 650 OFFCURVE",
"425 583 OFFCURVE",
"425 450 CURVE SMOOTH",
"425 317 OFFCURVE",
"425 216 OFFCURVE",
"425 147 CURVE",
"346 67 LINE",
"300 67 OFFCURVE",
"253 67 OFFCURVE",
"205 67 CURVE",
"125 147 LINE",
"125 216 OFFCURVE",
"125 317 OFFCURVE",
"125 450 CURVE SMOOTH",
"125 583 OFFCURVE",
"112 650 OFFCURVE",
"85 650 CURVE SMOOTH",
"58 650 OFFCURVE",
"45 583 OFFCURVE",
"45 450 CURVE SMOOTH",
"45 317 OFFCURVE",
"45 206 OFFCURVE",
"45 117 CURVE",
"167 -10 LINE",
"240 -10 OFFCURVE",
"313 -10 OFFCURVE",
"384 -10 CURVE",
"505 117 LINE",
"505 206 OFFCURVE",
"505 317 OFFCURVE",
"505 450 CURVE SMOOTH",
"505 583 OFFCURVE",
"492 650 OFFCURVE",
"465 650 CURVE SMOOTH"
);
}
);
width = 550;
}
);
note = U;
unicode = 0055;
},
{
glyphname = V;
lastChange = "2020-07-29 06:27:51 +0000";
layers = (
{
anchors = (
{
name = bottom;
position = "{275, 0}";
},
{
name = top;
position = "{275, 650}";
}
);
layerId = "DA2C6654-D585-4A87-87E3-B198D23B8793";
paths = (
{
closed = 1;
nodes = (
"460 650 OFFCURVE",
"418 561 OFFCURVE",
"361 382 CURVE SMOOTH",
"304 203 OFFCURVE",
"248 203 OFFCURVE",
"191 382 CURVE SMOOTH",
"134 561 OFFCURVE",
"92 650 OFFCURVE",
"63 650 CURVE SMOOTH",
"6 650 OFFCURVE",
"220 0 OFFCURVE",
"276 0 CURVE SMOOTH",
"332 0 OFFCURVE",
"544 650 OFFCURVE",
"488 650 CURVE SMOOTH"
);
}
);
width = 550;
}
);
note = V;
unicode = 0056;
},
{
glyphname = W;
lastChange = "2020-07-29 06:27:51 +0000";
layers = (
{
anchors = (
{
name = bottom;
position = "{275, 0}";
},
{
name = top;
position = "{275, 650}";
}
);
layerId = "DA2C6654-D585-4A87-87E3-B198D23B8793";
paths = (
{
closed = 1;
nodes = (
"460 650 OFFCURVE",
"436 578 OFFCURVE",
"417 434 CURVE SMOOTH",
"397 290 OFFCURVE",
"376 290 OFFCURVE",
"353 434 CURVE SMOOTH",
"330 578 OFFCURVE",
"305 650 OFFCURVE",
"276 650 CURVE SMOOTH",
"247 650 OFFCURVE",
"222 578 OFFCURVE",
"199 434 CURVE SMOOTH",
"176 290 OFFCURVE",
"155 290 OFFCURVE",
"136 434 CURVE SMOOTH",
"116 578 OFFCURVE",
"92 650 OFFCURVE",
"63 650 CURVE SMOOTH",
"6 650 OFFCURVE",
"97 0 OFFCURVE",
"153 0 CURVE SMOOTH",
"181 0 OFFCURVE",
"209 84 OFFCURVE",
"236 253 CURVE SMOOTH",
"263 422 OFFCURVE",
"290 422 OFFCURVE",
"317 253 CURVE SMOOTH",
"344 84 OFFCURVE",
"371 0 OFFCURVE",
"399 0 CURVE SMOOTH",
"455 0 OFFCURVE",
"544 650 OFFCURVE",
"488 650 CURVE SMOOTH"
);
}
);
width = 550;
}
);
note = W;
unicode = 0057;
},
{
glyphname = X;
lastChange = "2020-07-29 06:27:51 +0000";
layers = (
{
anchors = (
{
name = bottom;
position = "{275, 0}";
},
{
name = top;
position = "{275, 650}";
}
);
layerId = "DA2C6654-D585-4A87-87E3-B198D23B8793";
paths = (
{
closed = 1;
nodes = (
"475 597 OFFCURVE",
"492 650 OFFCURVE",
"462 650 CURVE SMOOTH",
"432 650 OFFCURVE",
"394 609 OFFCURVE",
"347 527 CURVE SMOOTH",
"300 445 OFFCURVE",
"255 445 OFFCURVE",
"210 527 CURVE SMOOTH",
"165 609 OFFCURVE",
"128 650 OFFCURVE",
"98 650 CURVE SMOOTH",
"68 650 OFFCURVE",
"83 597 OFFCURVE",
"144 491 CURVE SMOOTH",
"204 384 OFFCURVE",
"202 276 OFFCURVE",
"139 166 CURVE SMOOTH",
"75 55 OFFCURVE",
"58 0 OFFCURVE",
"88 0 CURVE SMOOTH",
"118 0 OFFCURVE",
"157 43 OFFCURVE",
"204 129 CURVE SMOOTH",
"251 215 OFFCURVE",
"296 215 OFFCURVE",
"341 129 CURVE SMOOTH",
"385 43 OFFCURVE",
"424 0 OFFCURVE",
"457 0 CURVE SMOOTH",
"490 0 OFFCURVE",
"475 55 OFFCURVE",
"412 166 CURVE SMOOTH",
"349 277 OFFCURVE",
"349 385 OFFCURVE",
"412 491 CURVE SMOOTH"
);
}
);
width = 550;
}
);
note = X;
unicode = 0058;
},
{
glyphname = Y;
lastChange = "2020-07-29 06:27:51 +0000";
layers = (
{
anchors = (
{
name = bottom;
position = "{275, 0}";
},
{
name = top;
position = "{275, 650}";
},
{
name = topleft;
position = "{20, 650}";
}
);
layerId = "DA2C6654-D585-4A87-87E3-B198D23B8793";
paths = (
{
closed = 1;
nodes = (
"450 650 OFFCURVE",
"409 592 OFFCURVE",
"356 476 CURVE SMOOTH",
"303 359 OFFCURVE",
"250 359 OFFCURVE",
"196 476 CURVE SMOOTH",
"142 592 OFFCURVE",
"100 650 OFFCURVE",
"70 650 CURVE SMOOTH",
"40 650 OFFCURVE",
"60 579 OFFCURVE",
"130 437 CURVE SMOOTH",
"200 294 OFFCURVE",
"235 186 OFFCURVE",
"235 112 CURVE SMOOTH",
"235 37 OFFCURVE",
"248 0 OFFCURVE",
"275 0 CURVE SMOOTH",
"302 0 OFFCURVE",
"315 37 OFFCURVE",
"315 112 CURVE SMOOTH",
"315 186 OFFCURVE",
"350 294 OFFCURVE",
"420 437 CURVE SMOOTH",
"490 579 OFFCURVE",
"510 650 OFFCURVE",
"480 650 CURVE SMOOTH"
);
}
);
width = 550;
}
);
note = Y;
unicode = 0059;
},
{
glyphname = Z;
lastChange = "2020-07-29 06:27:51 +0000";
layers = (
{
anchors = (
{
name = bottom;
position = "{275, 0}";
},
{
name = center;
position = "{275, 325}";
},
{
name = top;
position = "{275, 650}";
}
);
layerId = "DA2C6654-D585-4A87-87E3-B198D23B8793";
paths = (
{
closed = 1;
nodes = (
"495 638 OFFCURVE",
"422 650 OFFCURVE",
"275 650 CURVE SMOOTH",
"128 650 OFFCURVE",
"55 638 OFFCURVE",
"55 613 CURVE SMOOTH",
"55 588 OFFCURVE",
"113 575 OFFCURVE",
"228 575 CURVE SMOOTH",
"343 575 OFFCURVE",
"343 492 OFFCURVE",
"228 325 CURVE SMOOTH",
"113 158 OFFCURVE",
"55 63 OFFCURVE",
"55 38 CURVE SMOOTH",
"55 13 OFFCURVE",
"128 0 OFFCURVE",
"275 0 CURVE SMOOTH",
"422 0 OFFCURVE",
"495 13 OFFCURVE",
"495 38 CURVE SMOOTH",
"495 63 OFFCURVE",
"438 75 OFFCURVE",
"323 75 CURVE SMOOTH",
"208 75 OFFCURVE",
"208 158 OFFCURVE",
"323 325 CURVE SMOOTH",
"438 492 OFFCURVE",
"495 588 OFFCURVE",
"495 613 CURVE SMOOTH"
);
}
);
width = 550;
}
);
note = Z;
unicode = 005A;
},
{
glyphname = a;
lastChange = "2020-07-29 06:27:51 +0000";
layers = (
{
anchors = (
{
name = bottom;
position = "{275, 0}";
},
{
name = ogonek;
position = "{435, 10}";
},
{
name = top;
position = "{275, 500}";
}
);
layerId = "DA2C6654-D585-4A87-87E3-B198D23B8793";
paths = (
{
closed = 1;
nodes = (
"420 500 OFFCURVE",
"407 476 OFFCURVE",
"407 427 CURVE SMOOTH",
"407 378 OFFCURVE",
"402 377 OFFCURVE",
"393 424 CURVE",
"319 510 LINE",
"275 510 OFFCURVE",
"233 510 OFFCURVE",
"193 510 CURVE",
"101 443 LINE",
"51 324 LINE",
"51 274 OFFCURVE",
"51 224 OFFCURVE",
"51 174 CURVE",
"100 56 LINE",
"187 -10 LINE",
"224 -10 OFFCURVE",
"266 -10 OFFCURVE",
"311 -10 CURVE",
"391 93 LINE",
"402 142 OFFCURVE",
"407 155 OFFCURVE",
"407 133 CURVE SMOOTH",
"407 111 OFFCURVE",
"407 93 OFFCURVE",
"407 79 CURVE",
"413 11 LINE",
"414 4 OFFCURVE",
"426 0 OFFCURVE",
"451 0 CURVE SMOOTH",
"475 0 OFFCURVE",
"487 83 OFFCURVE",
"487 250 CURVE SMOOTH",
"487 417 OFFCURVE",
"474 500 OFFCURVE",
"447 500 CURVE SMOOTH"
);
},
{
closed = 1;
nodes = (
"286 67 OFFCURVE",
"242 67 OFFCURVE",
"200 67 CURVE",
"131 167 LINE",
"131 222 OFFCURVE",
"131 277 OFFCURVE",
"131 334 CURVE",
"195 432 LINE",
"240 432 OFFCURVE",
"286 432 OFFCURVE",
"332 432 CURVE",
"407 333 LINE",
"407 277 OFFCURVE",
"407 223 OFFCURVE",
"407 170 CURVE",
"332 67 LINE"
);
}
);
width = 550;
}
);
note = a;
unicode = 0061;
},
{
glyphname = ae;
lastChange = "2020-07-29 06:27:51 +0000";
layers = (
{
anchors = (
{
name = bottom;
position = "{275, 0}";
},
{
name = top;
position = "{275, 500}";
}
);
layerId = "DA2C6654-D585-4A87-87E3-B198D23B8793";
paths = (
{
closed = 1;
nodes = (
"419 510 OFFCURVE",
"373 510 OFFCURVE",
"328 510 CURVE",
"303 468 OFFCURVE",
"285 457 OFFCURVE",
"274 477 CURVE",
"217 510 LINE",
"190 510 OFFCURVE",
"152 510 OFFCURVE",
"104 510 CURVE",
"23 423 LINE",
"22 374 OFFCURVE",
"33 349 OFFCURVE",
"56 349 CURVE SMOOTH",
"79 349 OFFCURVE",
"93 363 OFFCURVE",
"98 391 CURVE",
"146 431 LINE",
"168 431 OFFCURVE",
"203 431 OFFCURVE",
"250 431 CURVE",
"250 369 OFFCURVE",
"250 324 OFFCURVE",
"250 297 CURVE SMOOTH",
"250 269 OFFCURVE",
"241 274 OFFCURVE",
"223 313 CURVE",
"178 313 OFFCURVE",
"135 313 OFFCURVE",
"93 313 CURVE",
"21 223 LINE",
"21 175 OFFCURVE",
"21 127 OFFCURVE",
"21 79 CURVE",
"94 -10 LINE",
"138 -10 OFFCURVE",
"174 -10 OFFCURVE",
"203 -10 CURVE",
"268 36 LINE",
"276 63 OFFCURVE",
"293 48 OFFCURVE",
"318 -10 CURVE",
"373 -10 OFFCURVE",
"421 -10 OFFCURVE",
"460 -10 CURVE",
"519 82 LINE",
"522 135 OFFCURVE",
"512 161 OFFCURVE",
"487 161 CURVE SMOOTH",
"462 161 OFFCURVE",
"448 145 OFFCURVE",
"446 114 CURVE",
"423 67 LINE",
"402 67 OFFCURVE",
"379 67 OFFCURVE",
"352 67 CURVE",
"310 150 LINE",
"310 203 OFFCURVE",
"346 229 OFFCURVE",
"419 229 CURVE SMOOTH",
"563 229 OFFCURVE",
"528 237 OFFCURVE",
"528 393 CURVE",
"466 510 LINE"
);
},
{
closed = 1;
nodes = (
"338 299 OFFCURVE",
"315 319 OFFCURVE",
"315 358 CURVE",
"354 433 LINE",
"376 433 OFFCURVE",
"399 433 OFFCURVE",
"422 433 CURVE",
"450 364 LINE",
"450 321 OFFCURVE",
"428 299 OFFCURVE",
"383 299 CURVE SMOOTH"
);
},
{
closed = 1;
nodes = (
"185 66 OFFCURVE",
"160 66 OFFCURVE",
"137 66 CURVE",
"99 113 LINE",
"99 138 OFFCURVE",
"99 164 OFFCURVE",
"99 190 CURVE",
"135 236 LINE",
"159 236 OFFCURVE",
"185 236 OFFCURVE",
"213 236 CURVE",
"255 191 LINE",
"255 164 OFFCURVE",
"255 139 OFFCURVE",
"255 114 CURVE",
"212 66 LINE"
);
}
);
width = 550;
}
);
note = ae;
unicode = 00E6;
},
{
glyphname = c;
lastChange = "2020-07-29 06:27:51 +0000";
layers = (
{
anchors = (
{
name = bottom;
position = "{275, 0}";
},
{
name = top;
position = "{275, 500}";
}
);
layerId = "DA2C6654-D585-4A87-87E3-B198D23B8793";
paths = (
{
closed = 1;
nodes = (
"495 157 OFFCURVE",
"487 188 OFFCURVE",
"463 188 CURVE SMOOTH",
"439 188 OFFCURVE",
"421 168 OFFCURVE",
"409 128 CURVE",
"340 67 LINE",
"303 67 OFFCURVE",
"270 67 OFFCURVE",
"242 67 CURVE",
"172 110 LINE",
"131 192 LINE",
"131 230 OFFCURVE",
"131 268 OFFCURVE",
"131 306 CURVE",
"172 389 LINE",
"242 433 LINE",
"270 433 OFFCURVE",
"302 433 OFFCURVE",
"339 433 CURVE",
"408 372 LINE",
"420 333 OFFCURVE",
"438 313 OFFCURVE",
"463 313 CURVE SMOOTH",
"487 313 OFFCURVE",
"495 343 OFFCURVE",
"487 404 CURVE",
"370 510 LINE",
"313 510 OFFCURVE",
"262 510 OFFCURVE",
"219 510 CURVE",
"113 446 LINE",
"51 327 LINE",
"51 275 OFFCURVE",
"51 223 OFFCURVE",
"51 171 CURVE",
"113 53 LINE",
"219 -10 LINE",
"262 -10 OFFCURVE",
"313 -10 OFFCURVE",
"371 -10 CURVE",
"488 96 LINE"
);
}
);
width = 550;
}
);
note = c;
unicode = 0063;
},
{
glyphname = d;
lastChange = "2020-07-29 06:27:51 +0000";
layers = (
{
anchors = (
{
name = bottom;
position = "{275, 0}";
},
{
name = center;
position = "{275, 250}";
},
{
name = top;
position = "{275, 800}";
},
{
name = topright;
position = "{530, 500}";
}
);
layerId = "DA2C6654-D585-4A87-87E3-B198D23B8793";
paths = (
{
closed = 1;
nodes = (
"420 700 OFFCURVE",
"407 643 OFFCURVE",
"407 530 CURVE SMOOTH",
"407 416 OFFCURVE",
"397 409 OFFCURVE",
"376 510 CURVE",
"294 510 OFFCURVE",
"233 510 OFFCURVE",
"193 510 CURVE",
"101 443 LINE",
"51 324 LINE",
"51 274 OFFCURVE",
"51 224 OFFCURVE",
"51 174 CURVE",
"100 56 LINE",
"187 -10 LINE",
"224 -10 OFFCURVE",
"266 -10 OFFCURVE",
"311 -10 CURVE",
"391 90 LINE",
"402 138 OFFCURVE",
"407 152 OFFCURVE",
"407 131 CURVE SMOOTH",
"407 110 OFFCURVE",
"407 93 OFFCURVE",
"407 79 CURVE",
"413 11 LINE",
"414 4 OFFCURVE",
"426 0 OFFCURVE",
"451 0 CURVE SMOOTH",
"475 0 OFFCURVE",
"487 117 OFFCURVE",
"487 350 CURVE SMOOTH",
"487 583 OFFCURVE",
"474 700 OFFCURVE",
"447 700 CURVE SMOOTH"
);
},
{
closed = 1;
nodes = (
"286 67 OFFCURVE",
"242 67 OFFCURVE",
"200 67 CURVE",
"131 167 LINE",
"131 222 OFFCURVE",
"131 277 OFFCURVE",
"131 334 CURVE",
"195 432 LINE",
"240 432 OFFCURVE",
"286 432 OFFCURVE",
"332 432 CURVE",
"407 333 LINE",
"407 277 OFFCURVE",
"407 223 OFFCURVE",
"407 170 CURVE",
"332 67 LINE"
);
}
);
width = 550;
}
);
note = d;
unicode = 0064;
},
{
glyphname = eth;
lastChange = "2020-07-29 06:27:51 +0000";
layers = (
{
layerId = "DA2C6654-D585-4A87-87E3-B198D23B8793";
paths = (
{
closed = 1;
nodes = (
"394 562 OFFCURVE",
"348 615 OFFCURVE",
"368 634 CURVE SMOOTH",
"408 671 OFFCURVE",
"366 721 OFFCURVE",
"319 677 CURVE SMOOTH",
"296 655 OFFCURVE",
"263 657 OFFCURVE",
"221 684 CURVE",
"172 701 OFFCURVE",
"143 699 OFFCURVE",
"134 676 CURVE",
"124 653 OFFCURVE",
"186 618 OFFCURVE",
"320 569 CURVE",
"365 488 OFFCURVE",
"373 468 OFFCURVE",
"343 510 CURVE",
"284 510 OFFCURVE",
"234 510 OFFCURVE",
"193 510 CURVE",
"101 443 LINE",
"51 324 LINE",
"51 274 OFFCURVE",
"51 210 OFFCURVE",
"51 133 CURVE",
"169 -10 LINE",
"240 -10 OFFCURVE",
"300 -10 OFFCURVE",
"349 -10 CURVE",
"453 67 LINE",
"505 188 LINE",
"505 231 OFFCURVE",
"505 327 OFFCURVE",
"505 474 CURVE"
);
},
{
closed = 1;
nodes = (
"299 67 OFFCURVE",
"252 67 OFFCURVE",
"206 67 CURVE",
"131 167 LINE",
"131 222 OFFCURVE",
"131 277 OFFCURVE",
"131 333 CURVE",
"203 433 LINE",
"251 433 OFFCURVE",
"299 433 OFFCURVE",
"348 433 CURVE",
"425 334 LINE",
"425 277 OFFCURVE",
"425 223 OFFCURVE",
"425 170 CURVE",
"348 67 LINE"
);
}
);
width = 550;
}
);
note = eth;
unicode = 00F0;
},
{
glyphname = e;
lastChange = "2020-07-29 06:27:51 +0000";
layers = (
{
anchors = (
{
name = bottom;
position = "{275, 0}";
},
{
name = ogonek;
position = "{495, 10}";
},
{
name = top;
position = "{275, 500}";
}
);
layerId = "DA2C6654-D585-4A87-87E3-B198D23B8793";
paths = (
{
closed = 1;
nodes = (
"433 161 OFFCURVE",
"410 130 OFFCURVE",
"391 67 CURVE",
"325 67 OFFCURVE",
"269 67 OFFCURVE",
"224 67 CURVE",
"138 156 LINE",
"133 205 OFFCURVE",
"192 229 OFFCURVE",
"315 229 CURVE SMOOTH",
"437 229 OFFCURVE",
"500 274 OFFCURVE",
"504 365 CURVE",
"395 510 LINE",
"323 510 OFFCURVE",
"264 510 OFFCURVE",
"217 510 CURVE",
"110 443 LINE",
"51 324 LINE",
"51 274 OFFCURVE",
"51 224 OFFCURVE",
"51 174 CURVE",
"112 56 LINE",
"221 -10 LINE",
"268 -10 OFFCURVE",
"321 -10 OFFCURVE",
"378 -10 CURVE",
"483 85 LINE",
"492 136 OFFCURVE",
"483 161 OFFCURVE",
"458 161 CURVE SMOOTH"
);
},
{
closed = 1;
nodes = (
"263 433 OFFCURVE",
"302 433 OFFCURVE",
"343 433 CURVE",
"412 365 LINE",
"415 322 OFFCURVE",
"369 301 OFFCURVE",
"276 301 CURVE SMOOTH",
"183 301 OFFCURVE",
"141 322 OFFCURVE",
"151 363 CURVE",
"224 433 LINE"
);
}
);
width = 550;
}
);
note = e;
unicode = 0065;
},
{
glyphname = f;
lastChange = "2020-07-29 06:27:51 +0000";
layers = (
{
anchors = (
{
name = bottom;
position = "{275, 0}";
},
{
name = top;
position = "{275, 800}";
}
);
layerId = "DA2C6654-D585-4A87-87E3-B198D23B8793";
paths = (
{
closed = 1;
nodes = (
"327 621 OFFCURVE",
"380 620 OFFCURVE",
"425 620 CURVE SMOOTH",
"470 620 OFFCURVE",
"493 633 OFFCURVE",
"493 660 CURVE SMOOTH",
"493 687 OFFCURVE",
"470 700 OFFCURVE",
"425 700 CURVE SMOOTH",
"380 700 OFFCURVE",
"331 700 OFFCURVE",
"278 700 CURVE",
"187 616 LINE",
"187 559 OFFCURVE",
"187 525 OFFCURVE",
"187 515 CURVE SMOOTH",
"187 505 OFFCURVE",
"167 500 OFFCURVE",
"128 500 CURVE SMOOTH",
"88 500 OFFCURVE",
"68 488 OFFCURVE",
"68 463 CURVE SMOOTH",
"68 438 OFFCURVE",
"88 425 OFFCURVE",
"128 425 CURVE SMOOTH",
"167 425 OFFCURVE",
"187 354 OFFCURVE",
"187 213 CURVE SMOOTH",
"187 71 OFFCURVE",
"200 0 OFFCURVE",
"227 0 CURVE SMOOTH",
"254 0 OFFCURVE",
"267 71 OFFCURVE",
"267 213 CURVE SMOOTH",
"267 354 OFFCURVE",
"303 425 OFFCURVE",
"375 425 CURVE SMOOTH",
"446 425 OFFCURVE",
"482 438 OFFCURVE",
"482 463 CURVE SMOOTH",
"482 488 OFFCURVE",
"446 500 OFFCURVE",
"375 500 CURVE SMOOTH",
"303 500 OFFCURVE",
"267 505 OFFCURVE",
"267 515 CURVE SMOOTH",
"267 525 OFFCURVE",
"267 561 OFFCURVE",
"267 622 CURVE"
);
}
);
width = 550;
}
);
note = f;
unicode = 0066;
},
{
glyphname = g;
lastChange = "2020-07-29 06:27:51 +0000";
layers = (
{
anchors = (
{
name = bottom;
position = "{275, -200}";
},
{
name = top;
position = "{275, 500}";
}
);
layerId = "DA2C6654-D585-4A87-87E3-B198D23B8793";
paths = (
{
closed = 1;
nodes = (
"533 487 OFFCURVE",
"499 501 OFFCURVE",
"412 501 CURVE SMOOTH",
"345 500 OFFCURVE",
"301 503 OFFCURVE",
"282 510 CURVE",
"259 510 OFFCURVE",
"230 510 OFFCURVE",
"193 510 CURVE",
"98 456 LINE",
"41 357 LINE",
"41 314 OFFCURVE",
"41 268 OFFCURVE",
"41 219 CURVE",
"114 115 LINE",
"153 100 OFFCURVE",
"157 93 OFFCURVE",
"124 94 CURVE",
"55 54 LINE",
"55 23 OFFCURVE",
"55 -20 OFFCURVE",
"55 -77 CURVE",
"142 -77 OFFCURVE",
"202 -77 OFFCURVE",
"235 -77 CURVE SMOOTH",
"268 -77 OFFCURVE",
"303 -77 OFFCURVE",
"340 -77 CURVE",
"395 -126 LINE",
"395 -161 OFFCURVE",
"395 -182 OFFCURVE",
"395 -189 CURVE SMOOTH",
"395 -196 OFFCURVE",
"408 -200 OFFCURVE",
"435 -200 CURVE SMOOTH",
"462 -200 OFFCURVE",
"475 -193 OFFCURVE",
"475 -179 CURVE SMOOTH",
"475 -165 OFFCURVE",
"475 -130 OFFCURVE",
"475 -74 CURVE",
"371 0 LINE",
"314 0 OFFCURVE",
"268 0 OFFCURVE",
"233 0 CURVE SMOOTH",
"198 0 OFFCURVE",
"173 0 OFFCURVE",
"158 0 CURVE",
"135 18 LINE",
"135 29 OFFCURVE",
"135 42 OFFCURVE",
"135 58 CURVE",
"188 76 LINE",
"228 78 OFFCURVE",
"267 79 OFFCURVE",
"304 79 CURVE",
"398 131 LINE",
"454 228 LINE",
"454 271 OFFCURVE",
"454 327 OFFCURVE",
"454 386 CURVE",
"400 434 OFFCURVE",
"398 440 OFFCURVE",
"469 414 CURVE",
"512 414 OFFCURVE",
"533 429 OFFCURVE",
"533 458 CURVE SMOOTH"
);
},
{
closed = 1;
nodes = (
"265 154 OFFCURVE",
"231 154 OFFCURVE",
"196 154 CURVE",
"121 229 LINE",
"121 272 OFFCURVE",
"121 314 OFFCURVE",
"121 357 CURVE",
"196 432 LINE",
"231 432 OFFCURVE",
"265 432 OFFCURVE",
"300 432 CURVE",
"374 356 LINE",
"374 314 OFFCURVE",
"374 272 OFFCURVE",
"374 229 CURVE",
"300 154 LINE"
);
}
);
width = 550;
}
);
note = g;
unicode = 0067;
},
{
glyphname = h;
lastChange = "2020-07-29 06:27:51 +0000";
layers = (
{
anchors = (
{
name = bottom;
position = "{275, 0}";
},
{
name = center;
position = "{275, 400}";
},
{
name = top;
position = "{275, 800}";
}
);
layerId = "DA2C6654-D585-4A87-87E3-B198D23B8793";
paths = (
{
closed = 1;
nodes = (
"336 510 OFFCURVE",
"299 510 OFFCURVE",
"251 510 CURVE",
"161 409 LINE",
"149 370 OFFCURVE",
"143 409 OFFCURVE",
"143 526 CURVE SMOOTH",
"143 642 OFFCURVE",
"130 700 OFFCURVE",
"103 700 CURVE SMOOTH",
"76 700 OFFCURVE",
"63 583 OFFCURVE",
"63 350 CURVE SMOOTH",
"63 117 OFFCURVE",
"76 0 OFFCURVE",
"103 0 CURVE SMOOTH",
"130 0 OFFCURVE",
"143 49 OFFCURVE",
"143 147 CURVE SMOOTH",
"143 244 OFFCURVE",
"147 310 OFFCURVE",
"156 345 CURVE",
"228 430 LINE",
"274 430 OFFCURVE",
"334 430 OFFCURVE",
"407 430 CURVE",
"407 351 OFFCURVE",
"407 260 OFFCURVE",
"407 156 CURVE SMOOTH",
"407 52 OFFCURVE",
"420 0 OFFCURVE",
"447 0 CURVE SMOOTH",
"474 0 OFFCURVE",
"487 55 OFFCURVE",
"487 166 CURVE SMOOTH",
"487 277 OFFCURVE",
"487 354 OFFCURVE",
"487 397 CURVE",
"436 477 LINE",
"362 510 LINE"
);
}
);
width = 550;
}
);
note = h;
unicode = 0068;
},
{
glyphname = i;
lastChange = "2020-07-29 06:27:51 +0000";
layers = (
{
anchors = (
{
name = bottom;
position = "{275, 0}";
}
);
layerId = "DA2C6654-D585-4A87-87E3-B198D23B8793";
paths = (
{
closed = 1;
nodes = (
"337 684 OFFCURVE",
"320 700 OFFCURVE",
"285 700 CURVE SMOOTH",
"250 700 OFFCURVE",
"233 684 OFFCURVE",
"233 652 CURVE SMOOTH",
"233 619 OFFCURVE",
"250 603 OFFCURVE",
"285 603 CURVE SMOOTH",
"320 603 OFFCURVE",
"337 619 OFFCURVE",
"337 652 CURVE SMOOTH"
);
},
{
closed = 1;
nodes = (
"348 75 OFFCURVE",
"325 146 OFFCURVE",
"325 288 CURVE SMOOTH",
"325 429 OFFCURVE",
"285 500 OFFCURVE",
"205 500 CURVE SMOOTH",
"125 500 OFFCURVE",
"85 488 OFFCURVE",
"85 463 CURVE SMOOTH",
"85 438 OFFCURVE",
"112 425 OFFCURVE",
"165 425 CURVE SMOOTH",
"218 425 OFFCURVE",
"245 367 OFFCURVE",
"245 250 CURVE SMOOTH",
"245 133 OFFCURVE",
"218 75 OFFCURVE",
"165 75 CURVE SMOOTH",
"112 75 OFFCURVE",
"85 63 OFFCURVE",
"85 38 CURVE SMOOTH",
"85 13 OFFCURVE",
"148 0 OFFCURVE",
"275 0 CURVE SMOOTH",
"402 0 OFFCURVE",
"465 13 OFFCURVE",
"465 38 CURVE SMOOTH",
"465 63 OFFCURVE",
"442 75 OFFCURVE",
"395 75 CURVE SMOOTH"
);
}
);
width = 550;
}
);
note = i;
unicode = 0069;
},
{
glyphname = dotlessi;
lastChange = "2020-07-29 06:27:51 +0000";
layers = (
{
anchors = (
{
name = bottom;
position = "{275, 0}";
},
{
name = ogonek;
position = "{495, 10}";
},
{
name = top;
position = "{275, 500}";
}
);
layerId = "DA2C6654-D585-4A87-87E3-B198D23B8793";
paths = (
{
closed = 1;
nodes = (
"348 75 OFFCURVE",
"325 146 OFFCURVE",
"325 288 CURVE SMOOTH",
"325 429 OFFCURVE",
"285 500 OFFCURVE",
"205 500 CURVE SMOOTH",
"125 500 OFFCURVE",
"85 488 OFFCURVE",
"85 463 CURVE SMOOTH",
"85 438 OFFCURVE",
"112 425 OFFCURVE",
"165 425 CURVE SMOOTH",
"218 425 OFFCURVE",
"245 367 OFFCURVE",
"245 250 CURVE SMOOTH",
"245 133 OFFCURVE",
"218 75 OFFCURVE",
"165 75 CURVE SMOOTH",
"112 75 OFFCURVE",
"85 63 OFFCURVE",
"85 38 CURVE SMOOTH",
"85 13 OFFCURVE",
"148 0 OFFCURVE",
"275 0 CURVE SMOOTH",
"402 0 OFFCURVE",
"465 13 OFFCURVE",
"465 38 CURVE SMOOTH",
"465 63 OFFCURVE",
"442 75 OFFCURVE",
"395 75 CURVE SMOOTH"
);
}
);
width = 550;
}
);
note = dotlessi;
unicode = 0131;
},
{
glyphname = j;
lastChange = "2020-07-29 06:27:51 +0000";
layers = (
{
layerId = "DA2C6654-D585-4A87-87E3-B198D23B8793";
paths = (
{
closed = 1;
nodes = (
"415 684 OFFCURVE",
"398 700 OFFCURVE",
"363 700 CURVE SMOOTH",
"328 700 OFFCURVE",
"311 684 OFFCURVE",
"311 652 CURVE SMOOTH",
"311 619 OFFCURVE",
"328 603 OFFCURVE",
"363 603 CURVE SMOOTH",
"398 603 OFFCURVE",
"415 619 OFFCURVE",
"415 652 CURVE SMOOTH"
);
},
{
closed = 1;
nodes = (
"415 412 OFFCURVE",
"362 500 OFFCURVE",
"257 500 CURVE SMOOTH",
"152 500 OFFCURVE",
"99 488 OFFCURVE",
"99 463 CURVE SMOOTH",
"99 438 OFFCURVE",
"138 425 OFFCURVE",
"217 425 CURVE SMOOTH",
"296 425 OFFCURVE",
"335 349 OFFCURVE",
"335 198 CURVE SMOOTH",
"335 46 OFFCURVE",
"335 -48 OFFCURVE",
"335 -83 CURVE",
"287 -126 LINE",
"259 -125 OFFCURVE",
"221 -125 OFFCURVE",
"172 -125 CURVE SMOOTH",
"123 -125 OFFCURVE",
"99 -137 OFFCURVE",
"99 -162 CURVE SMOOTH",
"99 -187 OFFCURVE",
"123 -200 OFFCURVE",
"172 -200 CURVE SMOOTH",
"221 -200 OFFCURVE",
"271 -200 OFFCURVE",
"324 -200 CURVE",
"415 -116 LINE",
"415 -59 OFFCURVE",
"415 58 OFFCURVE",
"415 235 CURVE SMOOTH"
);
}
);
width = 550;
}
);
note = j;
unicode = 006A;
},
{
glyphname = k;
lastChange = "2020-07-29 06:27:51 +0000";
layers = (
{
anchors = (
{
name = bottom;
position = "{245, 0}";
},
{
name = top;
position = "{275, 800}";
}
);
layerId = "DA2C6654-D585-4A87-87E3-B198D23B8793";
paths = (
{
closed = 1;
nodes = (
"63 117 OFFCURVE",
"76 0 OFFCURVE",
"103 0 CURVE SMOOTH",
"130 0 OFFCURVE",
"143 117 OFFCURVE",
"143 350 CURVE SMOOTH",
"143 583 OFFCURVE",
"130 700 OFFCURVE",
"103 700 CURVE SMOOTH",
"76 700 OFFCURVE",
"63 583 OFFCURVE",
"63 350 CURVE SMOOTH"
);
},
{
closed = 1;
nodes = (
"306 232 OFFCURVE",
"303 315 OFFCURVE",
"381 389 CURVE SMOOTH",
"458 463 OFFCURVE",
"478 500 OFFCURVE",
"440 500 CURVE SMOOTH",
"402 500 OFFCURVE",
"348 463 OFFCURVE",
"277 390 CURVE SMOOTH",
"135 242 OFFCURVE",
"395 0 OFFCURVE",
"463 0 CURVE SMOOTH",
"497 0 OFFCURVE",
"472 46 OFFCURVE",
"389 139 CURVE SMOOTH"
);
}
);
width = 550;
}
);
note = k;
unicode = 006B;
},
{
glyphname = l;
lastChange = "2020-07-29 06:27:51 +0000";
layers = (
{
anchors = (
{
name = bottom;
position = "{275, 0}";
},
{
name = center;
position = "{275, 400}";
},
{
name = top;
position = "{275, 800}";
},
{
name = topright;
position = "{530, 800}";
}
);
layerId = "DA2C6654-D585-4A87-87E3-B198D23B8793";
paths = (
{
closed = 1;
nodes = (
"393 75 OFFCURVE",
"361 75 OFFCURVE",
"333 74 CURVE",
"285 117 LINE",
"285 152 OFFCURVE",
"285 258 OFFCURVE",
"285 435 CURVE SMOOTH",
"285 612 OFFCURVE",
"272 700 OFFCURVE",
"245 700 CURVE SMOOTH",
"218 700 OFFCURVE",
"205 700 OFFCURVE",
"205 700 CURVE SMOOTH",
"205 700 OFFCURVE",
"182 700 OFFCURVE",
"135 700 CURVE SMOOTH",
"88 700 OFFCURVE",
"64 688 OFFCURVE",
"64 663 CURVE SMOOTH",
"64 638 OFFCURVE",
"88 625 OFFCURVE",
"135 625 CURVE SMOOTH",
"182 625 OFFCURVE",
"205 549 OFFCURVE",
"205 398 CURVE SMOOTH",
"205 246 OFFCURVE",
"205 141 OFFCURVE",
"205 84 CURVE",
"296 0 LINE",
"349 0 OFFCURVE",
"393 0 OFFCURVE",
"429 0 CURVE SMOOTH",
"464 0 OFFCURVE",
"482 13 OFFCURVE",
"482 38 CURVE SMOOTH",
"482 63 OFFCURVE",
"464 75 OFFCURVE",
"429 75 CURVE SMOOTH"
);
}
);
width = 550;
}
);
note = l;
unicode = 006C;
},
{
glyphname = m;
lastChange = "2020-07-29 06:27:51 +0000";
layers = (
{
anchors = (
{
name = bottom;
position = "{275, 0}";
},
{
name = top;
position = "{275, 500}";
}
);
layerId = "DA2C6654-D585-4A87-87E3-B198D23B8793";
paths = (
{
closed = 1;
nodes = (
"451 510 OFFCURVE",
"406 510 OFFCURVE",
"381 510 CURVE",
"329 433 LINE",
"319 398 OFFCURVE",
"310 423 OFFCURVE",
"282 510 CURVE",
"247 510 OFFCURVE",
"206 510 OFFCURVE",
"180 510 CURVE",
"126 416 LINE",
"117 377 OFFCURVE",
"113 382 OFFCURVE",
"113 429 CURVE SMOOTH",
"113 476 OFFCURVE",
"100 500 OFFCURVE",
"73 500 CURVE SMOOTH",
"46 500 OFFCURVE",
"33 417 OFFCURVE",
"33 250 CURVE SMOOTH",
"33 83 OFFCURVE",
"46 0 OFFCURVE",
"73 0 CURVE SMOOTH",
"100 0 OFFCURVE",
"113 50 OFFCURVE",
"113 149 CURVE SMOOTH",
"113 248 OFFCURVE",
"116 314 OFFCURVE",
"123 348 CURVE",
"163 430 LINE",
"186 430 OFFCURVE",
"205 430 OFFCURVE",
"222 430 CURVE",
"240 389 LINE",
"240 358 OFFCURVE",
"240 285 OFFCURVE",
"240 171 CURVE SMOOTH",
"240 57 OFFCURVE",
"253 0 OFFCURVE",
"278 0 CURVE SMOOTH",
"303 0 OFFCURVE",
"316 55 OFFCURVE",
"316 166 CURVE SMOOTH",
"316 276 OFFCURVE",
"325 364 OFFCURVE",
"344 430 CURVE",
"376 430 OFFCURVE",
"400 430 OFFCURVE",
"416 430 CURVE",
"437 388 LINE",
"437 357 OFFCURVE",
"437 285 OFFCURVE",
"437 171 CURVE SMOOTH",
"437 57 OFFCURVE",
"450 0 OFFCURVE",
"477 0 CURVE SMOOTH",
"504 0 OFFCURVE",
"517 55 OFFCURVE",
"517 166 CURVE SMOOTH",
"517 277 OFFCURVE",
"517 391 OFFCURVE",
"517 510 CURVE"
);
}
);
width = 550;
}
);
note = m;
unicode = 006D;
},
{
glyphname = n;
lastChange = "2020-07-29 06:27:51 +0000";
layers = (
{
anchors = (
{
name = bottom;
position = "{275, 0}";
},
{
name = top;
position = "{295, 500}";
}
);
layerId = "DA2C6654-D585-4A87-87E3-B198D23B8793";
paths = (
{
closed = 1;
nodes = (
"336 510 OFFCURVE",
"299 510 OFFCURVE",
"251 510 CURVE",
"161 409 LINE",
"149 370 OFFCURVE",
"143 376 OFFCURVE",
"143 426 CURVE SMOOTH",
"143 475 OFFCURVE",
"130 500 OFFCURVE",
"103 500 CURVE SMOOTH",
"76 500 OFFCURVE",
"63 417 OFFCURVE",
"63 250 CURVE SMOOTH",
"63 83 OFFCURVE",
"76 0 OFFCURVE",
"103 0 CURVE SMOOTH",
"130 0 OFFCURVE",
"143 49 OFFCURVE",
"143 146 CURVE SMOOTH",
"143 243 OFFCURVE",
"148 309 OFFCURVE",
"157 344 CURVE",
"228 430 LINE",
"274 430 OFFCURVE",
"334 430 OFFCURVE",
"407 430 CURVE",
"407 351 OFFCURVE",
"407 260 OFFCURVE",
"407 156 CURVE SMOOTH",
"407 52 OFFCURVE",
"420 0 OFFCURVE",
"447 0 CURVE SMOOTH",
"474 0 OFFCURVE",
"487 55 OFFCURVE",
"487 166 CURVE SMOOTH",
"487 277 OFFCURVE",
"487 354 OFFCURVE",
"487 397 CURVE",
"436 477 LINE",
"362 510 LINE"
);
}
);
width = 550;
}
);
note = n;
unicode = 006E;
},
{
glyphname = eng;
lastChange = "2020-07-29 06:27:51 +0000";
layers = (
{
layerId = "DA2C6654-D585-4A87-87E3-B198D23B8793";
paths = (
{
closed = 1;
nodes = (
"336 510 OFFCURVE",
"299 510 OFFCURVE",
"251 510 CURVE",
"161 409 LINE",
"149 370 OFFCURVE",
"143 376 OFFCURVE",
"143 426 CURVE SMOOTH",
"143 475 OFFCURVE",
"130 500 OFFCURVE",
"103 500 CURVE SMOOTH",
"76 500 OFFCURVE",
"63 417 OFFCURVE",
"63 250 CURVE SMOOTH",
"63 83 OFFCURVE",
"76 0 OFFCURVE",
"103 0 CURVE SMOOTH",
"130 0 OFFCURVE",
"143 49 OFFCURVE",
"143 146 CURVE SMOOTH",
"143 243 OFFCURVE",
"148 309 OFFCURVE",
"157 344 CURVE",
"228 430 LINE",
"274 430 OFFCURVE",
"334 430 OFFCURVE",
"407 430 CURVE",
"407 351 OFFCURVE",
"407 260 OFFCURVE",
"407 156 CURVE SMOOTH",
"407 52 OFFCURVE",
"407 -25 OFFCURVE",
"407 -75 CURVE",
"341 -130 LINE",
"305 -130 OFFCURVE",
"287 -143 OFFCURVE",
"287 -170 CURVE SMOOTH",
"287 -197 OFFCURVE",
"304 -210 OFFCURVE",
"339 -210 CURVE",
"431 -168 LINE",
"487 -82 LINE",
"487 -41 OFFCURVE",
"487 39 OFFCURVE",
"487 156 CURVE SMOOTH",
"487 273 OFFCURVE",
"487 354 OFFCURVE",
"487 397 CURVE",
"436 477 LINE",
"362 510 LINE"
);
}
);
width = 550;
}
);
note = eng;
unicode = 014B;
},
{
glyphname = o;
lastChange = "2020-07-29 06:27:51 +0000";
layers = (
{
anchors = (
{
name = bottom;
position = "{275, 0}";
},
{
name = center;
position = "{275, 250}";
},
{
name = ogonek;
position = "{495, 10}";
},
{
name = top;
position = "{275, 500}";
},
{
name = topright;
position = "{530, 500}";
}
);
layerId = "DA2C6654-D585-4A87-87E3-B198D23B8793";
paths = (
{
closed = 1;
nodes = (
"254 -10 OFFCURVE",
"298 -10 OFFCURVE",
"342 -10 CURVE",
"443 53 LINE",
"499 170 LINE",
"499 223 OFFCURVE",
"499 275 OFFCURVE",
"499 328 CURVE",
"442 446 LINE",
"341 510 LINE",
"298 510 OFFCURVE",
"254 510 OFFCURVE",
"210 510 CURVE",
"108 446 LINE",
"51 328 LINE",
"51 275 OFFCURVE",
"51 223 OFFCURVE",
"51 170 CURVE",
"108 53 LINE",
"210 -10 LINE"
);
},
{
closed = 1;
nodes = (
"298 67 OFFCURVE",
"254 67 OFFCURVE",
"210 67 CURVE",
"131 163 LINE",
"131 220 OFFCURVE",
"131 278 OFFCURVE",
"131 335 CURVE",
"211 433 LINE",
"254 433 OFFCURVE",
"298 433 OFFCURVE",
"341 433 CURVE",
"419 335 LINE",
"419 278 OFFCURVE",
"419 220 OFFCURVE",
"419 163 CURVE",
"341 67 LINE"
);
}
);
width = 550;
}
);
note = o;
unicode = 006F;
},
{
glyphname = oslash;
lastChange = "2020-07-29 06:27:51 +0000";
layers = (
{
anchors = (
{
name = top;
position = "{275, 500}";
}
);
layerId = "DA2C6654-D585-4A87-87E3-B198D23B8793";
paths = (
{
closed = 1;
nodes = (
"442 434 OFFCURVE",
"436 453 OFFCURVE",
"446 470 CURVE SMOOTH",
"466 503 OFFCURVE",
"411 532 OFFCURVE",
"395 505 CURVE SMOOTH",
"387 491 OFFCURVE",
"367 493 OFFCURVE",
"336 510 CURVE",
"296 510 OFFCURVE",
"254 510 OFFCURVE",
"210 510 CURVE",
"108 446 LINE",
"51 328 LINE",
"51 275 OFFCURVE",
"51 227 OFFCURVE",
"51 184 CURVE",
"90 82 LINE",
"113 59 OFFCURVE",
"121 41 OFFCURVE",
"113 28 CURVE SMOOTH",
"97 0 OFFCURVE",
"149 -31 OFFCURVE",
"164 -6 CURVE SMOOTH",
"171 6 OFFCURVE",
"191 5 OFFCURVE",
"222 -10 CURVE",
"258 -10 OFFCURVE",
"298 -10 OFFCURVE",
"342 -10 CURVE",
"443 53 LINE",
"499 170 LINE",
"499 223 OFFCURVE",
"499 270 OFFCURVE",
"499 311 CURVE",
"464 411 LINE"
);
},
{
closed = 1;
nodes = (
"131 222 OFFCURVE",
"131 278 OFFCURVE",
"131 335 CURVE",
"211 433 LINE",
"254 433 OFFCURVE",
"288 433 OFFCURVE",
"312 433 CURVE",
"353 410 OFFCURVE",
"179 103 OFFCURVE",
"131 168 CURVE"
);
},
{
closed = 1;
nodes = (
"298 67 OFFCURVE",
"264 67 OFFCURVE",
"241 67 CURVE",
"206 84 OFFCURVE",
"378 388 OFFCURVE",
"419 324 CURVE",
"419 274 OFFCURVE",
"419 220 OFFCURVE",
"419 163 CURVE",
"341 67 LINE"
);
}
);
width = 550;
}
);
note = oslash;
unicode = 00F8;
},
{
glyphname = oe;
lastChange = "2020-07-29 06:27:51 +0000";
layers = (
{
anchors = (
{
name = bottom;
position = "{275, 0}";
},
{
name = top;
position = "{275, 500}";
}
);
layerId = "DA2C6654-D585-4A87-87E3-B198D23B8793";
paths = (
{
closed = 1;
nodes = (
"418 510 OFFCURVE",
"369 510 OFFCURVE",
"318 510 CURVE",
"293 457 OFFCURVE",
"269 457 OFFCURVE",
"246 510 CURVE",
"199 510 OFFCURVE",
"151 510 OFFCURVE",
"101 510 CURVE",
"21 371 LINE",
"21 290 OFFCURVE",
"21 208 OFFCURVE",
"21 126 CURVE",
"101 -10 LINE",
"151 -10 OFFCURVE",
"200 -10 OFFCURVE",
"249 -10 CURVE",
"271 43 OFFCURVE",
"295 43 OFFCURVE",
"322 -10 CURVE",
"374 -10 OFFCURVE",
"420 -10 OFFCURVE",
"459 -10 CURVE",
"519 83 LINE",
"522 135 OFFCURVE",
"511 161 OFFCURVE",
"486 161 CURVE SMOOTH",
"461 161 OFFCURVE",
"447 145 OFFCURVE",
"445 114 CURVE",
"422 67 LINE",
"401 67 OFFCURVE",
"378 67 OFFCURVE",
"351 67 CURVE",
"309 150 LINE",
"309 203 OFFCURVE",
"345 229 OFFCURVE",
"418 229 CURVE SMOOTH",
"563 229 OFFCURVE",
"528 237 OFFCURVE",
"528 393 CURVE",
"465 510 LINE"
);
},
{
closed = 1;
nodes = (
"188 67 OFFCURVE",
"162 67 OFFCURVE",
"135 67 CURVE",
"101 157 LINE",
"101 218 OFFCURVE",
"101 279 OFFCURVE",
"101 340 CURVE",
"136 433 LINE",
"163 433 OFFCURVE",
"188 433 OFFCURVE",
"212 433 CURVE",
"249 337 LINE",
"249 278 OFFCURVE",
"249 219 OFFCURVE",
"249 160 CURVE",
"212 67 LINE"
);
},
{
closed = 1;
nodes = (
"337 299 OFFCURVE",
"314 319 OFFCURVE",
"314 358 CURVE",
"353 433 LINE",
"375 433 OFFCURVE",
"398 433 OFFCURVE",
"421 433 CURVE",
"449 364 LINE",
"449 321 OFFCURVE",
"427 299 OFFCURVE",
"382 299 CURVE SMOOTH"
);
}
);
width = 550;
}
);
note = oe;
unicode = 0153;
},
{
glyphname = p;
lastChange = "2020-07-29 06:27:51 +0000";
layers = (
{
anchors = (
{
name = bottom;
position = "{275, 0}";
},
{
name = top;
position = "{275, 500}";
}
);
layerId = "DA2C6654-D585-4A87-87E3-B198D23B8793";
paths = (
{
closed = 1;
nodes = (
"326 510 OFFCURVE",
"284 510 OFFCURVE",
"239 510 CURVE",
"159 410 LINE",
"148 362 OFFCURVE",
"143 348 OFFCURVE",
"143 369 CURVE SMOOTH",
"143 390 OFFCURVE",
"143 410 OFFCURVE",
"143 430 CURVE",
"140 489 LINE",
"140 496 OFFCURVE",
"127 500 OFFCURVE",
"102 500 CURVE SMOOTH",
"76 500 OFFCURVE",
"63 383 OFFCURVE",
"63 150 CURVE SMOOTH",
"63 -83 OFFCURVE",
"76 -200 OFFCURVE",
"103 -200 CURVE SMOOTH",
"130 -200 OFFCURVE",
"143 -143 OFFCURVE",
"143 -29 CURVE SMOOTH",
"143 84 OFFCURVE",
"153 91 OFFCURVE",
"174 -10 CURVE",
"256 -10 OFFCURVE",
"317 -10 OFFCURVE",
"357 -10 CURVE",
"449 57 LINE",
"499 176 LINE",
"499 226 OFFCURVE",
"499 276 OFFCURVE",
"499 326 CURVE",
"450 444 LINE",
"363 510 LINE"
);
},
{
closed = 1;
nodes = (
"310 68 OFFCURVE",
"264 68 OFFCURVE",
"218 68 CURVE",
"143 167 LINE",
"143 223 OFFCURVE",
"143 277 OFFCURVE",
"143 330 CURVE",
"218 433 LINE",
"264 433 OFFCURVE",
"308 433 OFFCURVE",
"350 433 CURVE",
"419 333 LINE",
"419 278 OFFCURVE",
"419 223 OFFCURVE",
"419 166 CURVE",
"355 68 LINE"
);
}
);
width = 550;
}
);
note = p;
unicode = 0070;
},
{
glyphname = thorn;
lastChange = "2020-07-29 06:27:51 +0000";
layers = (
{
anchors = (
{
name = bottom;
position = "{275, 0}";
},
{
name = top;
position = "{275, 500}";
}
);
layerId = "DA2C6654-D585-4A87-87E3-B198D23B8793";
paths = (
{
closed = 1;
nodes = (
"326 510 OFFCURVE",
"284 510 OFFCURVE",
"239 510 CURVE",
"159 410 LINE",
"148 362 OFFCURVE",
"143 348 OFFCURVE",
"143 369 CURVE SMOOTH",
"143 410 OFFCURVE",
"153 700 OFFCURVE",
"102 700 CURVE SMOOTH",
"76 700 OFFCURVE",
"63 550 OFFCURVE",
"63 250 CURVE SMOOTH",
"63 -50 OFFCURVE",
"76 -200 OFFCURVE",
"103 -200 CURVE SMOOTH",
"130 -200 OFFCURVE",
"143 -143 OFFCURVE",
"143 -29 CURVE SMOOTH",
"143 84 OFFCURVE",
"153 91 OFFCURVE",
"174 -10 CURVE",
"256 -10 OFFCURVE",
"317 -10 OFFCURVE",
"357 -10 CURVE",
"449 57 LINE",
"499 176 LINE",
"499 226 OFFCURVE",
"499 276 OFFCURVE",
"499 326 CURVE",
"450 444 LINE",
"363 510 LINE"
);
},
{
closed = 1;
nodes = (
"310 68 OFFCURVE",
"264 68 OFFCURVE",
"218 68 CURVE",
"143 167 LINE",
"143 223 OFFCURVE",
"143 277 OFFCURVE",
"143 330 CURVE",
"218 433 LINE",
"264 433 OFFCURVE",
"308 433 OFFCURVE",
"350 433 CURVE",
"419 333 LINE",
"419 278 OFFCURVE",
"419 223 OFFCURVE",
"419 166 CURVE",
"355 68 LINE"
);
}
);
width = 550;
}
);
note = thorn;
unicode = 00FE;
},
{
glyphname = q;
lastChange = "2020-07-29 06:27:51 +0000";
layers = (
{
anchors = (
{
name = bottom;
position = "{275, 0}";
},
{
name = top;
position = "{275, 500}";
}
);
layerId = "DA2C6654-D585-4A87-87E3-B198D23B8793";
paths = (
{
closed = 1;
nodes = (
"420 500 OFFCURVE",
"407 478 OFFCURVE",
"407 434 CURVE SMOOTH",
"407 389 OFFCURVE",
"402 390 OFFCURVE",
"393 435 CURVE",
"318 510 LINE",
"271 510 OFFCURVE",
"229 510 OFFCURVE",
"190 510 CURVE",
"100 442 LINE",
"51 324 LINE",
"51 274 OFFCURVE",
"51 224 OFFCURVE",
"51 174 CURVE",
"100 56 LINE",
"190 -10 LINE",
"229 -10 OFFCURVE",
"270 -10 OFFCURVE",
"314 -10 CURVE",
"392 82 LINE",
"402 129 OFFCURVE",
"407 94 OFFCURVE",
"407 -23 CURVE SMOOTH",
"407 -141 OFFCURVE",
"420 -200 OFFCURVE",
"447 -200 CURVE SMOOTH",
"474 -200 OFFCURVE",
"487 -83 OFFCURVE",
"487 150 CURVE SMOOTH",
"487 383 OFFCURVE",
"474 500 OFFCURVE",
"447 500 CURVE SMOOTH"
);
},
{
closed = 1;
nodes = (
"290 67 OFFCURVE",
"246 67 OFFCURVE",
"202 67 CURVE",
"131 166 LINE",
"131 221 OFFCURVE",
"131 278 OFFCURVE",
"131 335 CURVE",
"197 433 LINE",
"244 433 OFFCURVE",
"290 433 OFFCURVE",
"334 433 CURVE",
"407 333 LINE",
"407 277 OFFCURVE",
"407 223 OFFCURVE",
"407 170 CURVE",
"334 67 LINE"
);
}
);
width = 550;
}
);
note = q;
unicode = 0071;
},
{
glyphname = r;
lastChange = "2020-07-29 06:27:51 +0000";
layers = (
{
anchors = (
{
name = bottom;
position = "{245, 0}";
},
{
name = top;
position = "{295, 500}";
}
);
layerId = "DA2C6654-D585-4A87-87E3-B198D23B8793";
paths = (
{
closed = 1;
nodes = (
"429 428 OFFCURVE",
"464 442 OFFCURVE",
"464 469 CURVE SMOOTH",
"464 496 OFFCURVE",
"430 510 OFFCURVE",
"362 510 CURVE",
"259 422 LINE",
"248 387 OFFCURVE",
"242 392 OFFCURVE",
"242 435 CURVE SMOOTH",
"242 478 OFFCURVE",
"229 500 OFFCURVE",
"202 500 CURVE SMOOTH",
"175 500 OFFCURVE",
"162 429 OFFCURVE",
"162 288 CURVE SMOOTH",
"162 146 OFFCURVE",
"146 75 OFFCURVE",
"113 75 CURVE SMOOTH",
"80 75 OFFCURVE",
"63 63 OFFCURVE",
"63 38 CURVE SMOOTH",
"63 13 OFFCURVE",
"122 0 OFFCURVE",
"239 0 CURVE SMOOTH",
"356 0 OFFCURVE",
"415 13 OFFCURVE",
"415 38 CURVE SMOOTH",
"415 63 OFFCURVE",
"386 75 OFFCURVE",
"329 75 CURVE SMOOTH",
"271 75 OFFCURVE",
"242 117 OFFCURVE",
"242 200 CURVE SMOOTH",
"242 283 OFFCURVE",
"247 337 OFFCURVE",
"257 363 CURVE",
"358 428 LINE"
);
}
);
width = 550;
}
);
note = r;
unicode = 0072;
},
{
glyphname = s;
lastChange = "2020-07-29 06:27:51 +0000";
layers = (
{
anchors = (
{
name = bottom;
position = "{275, 0}";
},
{
name = top;
position = "{275, 500}";
}
);
layerId = "DA2C6654-D585-4A87-87E3-B198D23B8793";
paths = (
{
closed = 1;
nodes = (
"79 161 OFFCURVE",
"66 152 OFFCURVE",
"64 135 CURVE",
"107 54 LINE",
"217 -10 LINE",
"278 -10 OFFCURVE",
"336 -10 OFFCURVE",
"391 -10 CURVE",
"484 66 LINE",
"484 109 OFFCURVE",
"484 154 OFFCURVE",
"484 202 CURVE",
"398 269 LINE",
"335 280 OFFCURVE",
"280 291 OFFCURVE",
"232 300 CURVE",
"176 335 LINE",
"176 357 OFFCURVE",
"176 378 OFFCURVE",
"176 397 CURVE",
"228 431 LINE",
"261 431 OFFCURVE",
"295 431 OFFCURVE",
"371 431 CURVE",
"380 376 OFFCURVE",
"397 349 OFFCURVE",
"420 349 CURVE SMOOTH",
"443 349 OFFCURVE",
"454 374 OFFCURVE",
"453 424 CURVE",
"354 510 LINE",
"291 510 OFFCURVE",
"251 510 OFFCURVE",
"193 510 CURVE",
"96 429 LINE",
"96 386 OFFCURVE",
"96 343 OFFCURVE",
"96 298 CURVE",
"194 227 LINE",
"257 216 OFFCURVE",
"311 206 OFFCURVE",
"358 198 CURVE",
"404 166 LINE",
"404 142 OFFCURVE",
"404 120 OFFCURVE",
"404 100 CURVE",
"356 66 LINE",
"321 66 OFFCURVE",
"280 66 OFFCURVE",
"233 66 CURVE",
"151 120 LINE",
"144 147 OFFCURVE",
"129 161 OFFCURVE",
"104 161 CURVE SMOOTH"
);
}
);
width = 550;
}
);
note = s;
unicode = 0073;
},
{
glyphname = germandbls;
lastChange = "2020-07-29 06:27:51 +0000";
layers = (
{
anchors = (
{
name = bottom;
position = "{275, 0}";
},
{
name = top;
position = "{275, 500}";
}
);
layerId = "DA2C6654-D585-4A87-87E3-B198D23B8793";
paths = (
{
closed = 1;
nodes = (
"341 202 OFFCURVE",
"335 241 OFFCURVE",
"376 316 CURVE SMOOTH",
"417 390 OFFCURVE",
"437 439 OFFCURVE",
"437 464 CURVE SMOOTH",
"437 488 OFFCURVE",
"390 500 OFFCURVE",
"296 500 CURVE SMOOTH",
"202 500 OFFCURVE",
"155 505 OFFCURVE",
"155 515 CURVE SMOOTH",
"155 525 OFFCURVE",
"155 561 OFFCURVE",
"155 622 CURVE",
"215 621 OFFCURVE",
"253 620 OFFCURVE",
"268 620 CURVE SMOOTH",
"283 620 OFFCURVE",
"291 633 OFFCURVE",
"291 660 CURVE SMOOTH",
"291 687 OFFCURVE",
"283 700 OFFCURVE",
"268 700 CURVE SMOOTH",
"253 700 OFFCURVE",
"219 700 OFFCURVE",
"166 700 CURVE",
"75 616 LINE",
"75 559 OFFCURVE",
"75 442 OFFCURVE",
"75 265 CURVE SMOOTH",
"75 88 OFFCURVE",
"88 0 OFFCURVE",
"115 0 CURVE SMOOTH",
"142 0 OFFCURVE",
"155 71 OFFCURVE",
"155 213 CURVE SMOOTH",
"155 354 OFFCURVE",
"187 425 OFFCURVE",
"251 425 CURVE SMOOTH",
"315 425 OFFCURVE",
"329 392 OFFCURVE",
"292 325 CURVE SMOOTH",
"255 258 OFFCURVE",
"237 212 OFFCURVE",
"237 187 CURVE SMOOTH",
"237 162 OFFCURVE",
"243 150 OFFCURVE",
"256 150 CURVE SMOOTH",
"269 150 OFFCURVE",
"298 150 OFFCURVE",
"343 150 CURVE",
"409 87 LINE",
"409 50 OFFCURVE",
"409 13 OFFCURVE",
"409 -25 CURVE",
"338 -86 LINE",
"290 -86 OFFCURVE",
"266 -98 OFFCURVE",
"266 -123 CURVE SMOOTH",
"266 -148 OFFCURVE",
"289 -160 OFFCURVE",
"336 -160 CURVE",
"437 -108 LINE",
"489 -21 LINE",
"489 14 OFFCURVE",
"489 59 OFFCURVE",
"489 114 CURVE",
"394 199 LINE"
);
}
);
width = 550;
}
);
note = germandbls;
unicode = 00DF;
},
{
glyphname = t;
lastChange = "2020-07-29 06:27:51 +0000";
layers = (
{
anchors = (
{
name = bottom;
position = "{275, 0}";
},
{
name = center;
position = "{275, 250}";
},
{
name = top;
position = "{275, 500}";
},
{
name = topright;
position = "{530, 500}";
}
);
layerId = "DA2C6654-D585-4A87-87E3-B198D23B8793";
paths = (
{
closed = 1;
nodes = (
"439 425 OFFCURVE",
"472 438 OFFCURVE",
"472 463 CURVE SMOOTH",
"472 488 OFFCURVE",
"439 500 OFFCURVE",
"374 500 CURVE SMOOTH",
"308 500 OFFCURVE",
"275 522 OFFCURVE",
"275 565 CURVE SMOOTH",
"275 608 OFFCURVE",
"262 630 OFFCURVE",
"235 630 CURVE SMOOTH",
"208 630 OFFCURVE",
"195 608 OFFCURVE",
"195 565 CURVE SMOOTH",
"195 522 OFFCURVE",
"174 500 OFFCURVE",
"132 500 CURVE SMOOTH",
"89 500 OFFCURVE",
"68 488 OFFCURVE",
"68 463 CURVE SMOOTH",
"68 438 OFFCURVE",
"89 425 OFFCURVE",
"132 425 CURVE SMOOTH",
"174 425 OFFCURVE",
"195 383 OFFCURVE",
"195 298 CURVE SMOOTH",
"195 213 OFFCURVE",
"195 141 OFFCURVE",
"195 84 CURVE",
"286 0 LINE",
"339 0 OFFCURVE",
"383 0 OFFCURVE",
"419 0 CURVE SMOOTH",
"454 0 OFFCURVE",
"472 13 OFFCURVE",
"472 38 CURVE SMOOTH",
"472 63 OFFCURVE",
"454 75 OFFCURVE",
"419 75 CURVE SMOOTH",
"383 75 OFFCURVE",
"351 75 OFFCURVE",
"323 74 CURVE",
"275 117 LINE",
"275 152 OFFCURVE",
"275 213 OFFCURVE",
"275 298 CURVE SMOOTH",
"275 383 OFFCURVE",
"308 425 OFFCURVE",
"374 425 CURVE SMOOTH"
);
}
);
width = 550;
}
);
note = t;
unicode = 0074;
},
{
glyphname = u;
lastChange = "2020-07-29 06:27:51 +0000";
layers = (
{
anchors = (
{
name = bottom;
position = "{275, 0}";
},
{
name = ogonek;
position = "{495, 10}";
},
{
name = top;
position = "{275, 500}";
},
{
name = topright;
position = "{530, 500}";
}
);
layerId = "DA2C6654-D585-4A87-87E3-B198D23B8793";
paths = (
{
closed = 1;
nodes = (
"420 500 OFFCURVE",
"407 451 OFFCURVE",
"407 354 CURVE SMOOTH",
"407 257 OFFCURVE",
"402 191 OFFCURVE",
"393 156 CURVE",
"322 70 LINE",
"276 70 OFFCURVE",
"216 70 OFFCURVE",
"143 70 CURVE",
"143 149 OFFCURVE",
"143 240 OFFCURVE",
"143 344 CURVE SMOOTH",
"143 448 OFFCURVE",
"130 500 OFFCURVE",
"103 500 CURVE SMOOTH",
"76 500 OFFCURVE",
"63 445 OFFCURVE",
"63 334 CURVE SMOOTH",
"63 223 OFFCURVE",
"63 146 OFFCURVE",
"63 103 CURVE",
"114 23 LINE",
"188 -10 LINE",
"214 -10 OFFCURVE",
"253 -10 OFFCURVE",
"304 -10 CURVE",
"389 88 LINE",
"401 131 OFFCURVE",
"407 127 OFFCURVE",
"407 76 CURVE SMOOTH",
"407 25 OFFCURVE",
"420 0 OFFCURVE",
"447 0 CURVE SMOOTH",
"474 0 OFFCURVE",
"487 83 OFFCURVE",
"487 250 CURVE SMOOTH",
"487 417 OFFCURVE",
"474 500 OFFCURVE",
"447 500 CURVE SMOOTH"
);
}
);
width = 550;
}
);
note = u;
unicode = 0075;
},
{
glyphname = v;
lastChange = "2020-07-29 06:27:51 +0000";
layers = (
{
anchors = (
{
name = bottom;
position = "{275, 0}";
},
{
name = top;
position = "{275, 500}";
}
);
layerId = "DA2C6654-D585-4A87-87E3-B198D23B8793";
paths = (
{
closed = 1;
nodes = (
"440 500 OFFCURVE",
"400 433 OFFCURVE",
"350 299 CURVE SMOOTH",
"299 165 OFFCURVE",
"249 165 OFFCURVE",
"200 299 CURVE SMOOTH",
"150 433 OFFCURVE",
"111 500 OFFCURVE",
"82 500 CURVE SMOOTH",
"24 500 OFFCURVE",
"225 0 OFFCURVE",
"275 0 CURVE SMOOTH",
"325 0 OFFCURVE",
"527 500 OFFCURVE",
"469 500 CURVE SMOOTH"
);
}
);
width = 550;
}
);
note = v;
unicode = 0076;
},
{
glyphname = w;
lastChange = "2020-07-29 06:27:51 +0000";
layers = (
{
anchors = (
{
name = bottom;
position = "{275, 0}";
},
{
name = top;
position = "{275, 500}";
}
);
layerId = "DA2C6654-D585-4A87-87E3-B198D23B8793";
paths = (
{
closed = 1;
nodes = (
"440 500 OFFCURVE",
"415 439 OFFCURVE",
"394 318 CURVE SMOOTH",
"373 196 OFFCURVE",
"353 196 OFFCURVE",
"336 318 CURVE SMOOTH",
"318 439 OFFCURVE",
"296 500 OFFCURVE",
"271 500 CURVE SMOOTH",
"245 500 OFFCURVE",
"223 441 OFFCURVE",
"205 322 CURVE SMOOTH",
"186 203 OFFCURVE",
"168 203 OFFCURVE",
"151 322 CURVE SMOOTH",
"134 441 OFFCURVE",
"111 500 OFFCURVE",
"82 500 CURVE SMOOTH",
"24 500 OFFCURVE",
"115 0 OFFCURVE",
"164 0 CURVE SMOOTH",
"188 0 OFFCURVE",
"212 59 OFFCURVE",
"235 177 CURVE SMOOTH",
"258 295 OFFCURVE",
"282 295 OFFCURVE",
"305 177 CURVE SMOOTH",
"328 59 OFFCURVE",
"351 0 OFFCURVE",
"376 0 CURVE SMOOTH",
"424 0 OFFCURVE",
"527 500 OFFCURVE",
"469 500 CURVE SMOOTH"
);
}
);
width = 550;
}
);
note = w;
unicode = 0077;
},
{
glyphname = x;
lastChange = "2020-07-29 06:27:51 +0000";
layers = (
{
anchors = (
{
name = bottom;
position = "{275, 0}";
},
{
name = top;
position = "{275, 500}";
}
);
layerId = "DA2C6654-D585-4A87-87E3-B198D23B8793";
paths = (
{
closed = 1;
nodes = (
"494 0 OFFCURVE",
"479 43 OFFCURVE",
"416 129 CURVE SMOOTH",
"353 214 OFFCURVE",
"352 298 OFFCURVE",
"411 379 CURVE SMOOTH",
"470 460 OFFCURVE",
"484 500 OFFCURVE",
"452 500 CURVE SMOOTH",
"419 500 OFFCURVE",
"382 470 OFFCURVE",
"339 410 CURVE SMOOTH",
"296 350 OFFCURVE",
"252 350 OFFCURVE",
"206 410 CURVE SMOOTH",
"160 470 OFFCURVE",
"121 500 OFFCURVE",
"89 500 CURVE SMOOTH",
"56 500 OFFCURVE",
"71 459 OFFCURVE",
"134 377 CURVE SMOOTH",
"196 294 OFFCURVE",
"196 211 OFFCURVE",
"134 127 CURVE SMOOTH",
"71 42 OFFCURVE",
"56 0 OFFCURVE",
"89 0 CURVE SMOOTH",
"121 0 OFFCURVE",
"160 32 OFFCURVE",
"206 95 CURVE SMOOTH",
"251 158 OFFCURVE",
"297 158 OFFCURVE",
"344 95 CURVE SMOOTH",
"390 32 OFFCURVE",
"429 0 OFFCURVE",
"462 0 CURVE SMOOTH"
);
}
);
width = 550;
}
);
note = x;
unicode = 0078;
},
{
glyphname = y;
lastChange = "2020-07-29 06:27:51 +0000";
layers = (
{
anchors = (
{
name = bottom;
position = "{275, 0}";
},
{
name = top;
position = "{275, 500}";
}
);
layerId = "DA2C6654-D585-4A87-87E3-B198D23B8793";
paths = (
{
closed = 1;
nodes = (
"441 500 OFFCURVE",
"402 434 OFFCURVE",
"351 302 CURVE SMOOTH",
"300 170 OFFCURVE",
"250 170 OFFCURVE",
"199 302 CURVE SMOOTH",
"148 434 OFFCURVE",
"109 500 OFFCURVE",
"81 500 CURVE SMOOTH",
"52 500 OFFCURVE",
"71 418 OFFCURVE",
"136 254 CURVE SMOOTH",
"201 89 OFFCURVE",
"219 -27 OFFCURVE",
"189 -96 CURVE SMOOTH",
"159 -165 OFFCURVE",
"158 -200 OFFCURVE",
"186 -200 CURVE SMOOTH",
"242 -200 OFFCURVE",
"526 500 OFFCURVE",
"470 500 CURVE SMOOTH"
);
}
);
width = 550;
}
);
note = y;
unicode = 0079;
},
{
glyphname = z;
lastChange = "2020-07-29 06:27:51 +0000";
layers = (
{
anchors = (
{
name = bottom;
position = "{275, 0}";
},
{
name = center;
position = "{275, 250}";
},
{
name = top;
position = "{275, 500}";
}
);
layerId = "DA2C6654-D585-4A87-87E3-B198D23B8793";
paths = (
{
closed = 1;
nodes = (
"224 75 OFFCURVE",
"224 133 OFFCURVE",
"325 250 CURVE SMOOTH",
"426 367 OFFCURVE",
"476 438 OFFCURVE",
"476 463 CURVE SMOOTH",
"476 488 OFFCURVE",
"409 500 OFFCURVE",
"274 500 CURVE SMOOTH",
"139 500 OFFCURVE",
"71 488 OFFCURVE",
"71 463 CURVE SMOOTH",
"71 438 OFFCURVE",
"122 425 OFFCURVE",
"225 425 CURVE SMOOTH",
"328 425 OFFCURVE",
"328 367 OFFCURVE",
"225 250 CURVE SMOOTH",
"122 133 OFFCURVE",
"71 63 OFFCURVE",
"71 38 CURVE SMOOTH",
"71 13 OFFCURVE",
"139 0 OFFCURVE",
"275 0 CURVE SMOOTH",
"411 0 OFFCURVE",
"479 13 OFFCURVE",
"479 38 CURVE SMOOTH",
"479 63 OFFCURVE",
"428 75 OFFCURVE",
"326 75 CURVE SMOOTH"
);
}
);
width = 550;
}
);
note = z;
unicode = 007A;
},
{
glyphname = ordfeminine;
lastChange = "2020-07-29 06:27:51 +0000";
layers = (
{
layerId = "DA2C6654-D585-4A87-87E3-B198D23B8793";
paths = (
{
closed = 1;
nodes = (
"419 700 OFFCURVE",
"406 681 OFFCURVE",
"406 644 CURVE SMOOTH",
"406 606 OFFCURVE",
"401 606 OFFCURVE",
"392 644 CURVE",
"320 710 LINE",
"280 710 OFFCURVE",
"240 710 OFFCURVE",
"200 710 CURVE",
"111 655 LINE",
"63 559 LINE",
"63 519 OFFCURVE",
"63 481 OFFCURVE",
"63 444 CURVE",
"110 353 LINE",
"195 300 LINE",
"232 300 OFFCURVE",
"271 300 OFFCURVE",
"312 300 CURVE",
"389 381 LINE",
"400 419 OFFCURVE",
"406 432 OFFCURVE",
"406 419 CURVE SMOOTH",
"406 406 OFFCURVE",
"406 395 OFFCURVE",
"406 386 CURVE",
"412 321 LINE",
"413 314 OFFCURVE",
"425 310 OFFCURVE",
"450 310 CURVE SMOOTH",
"474 310 OFFCURVE",
"486 375 OFFCURVE",
"486 505 CURVE SMOOTH",
"486 635 OFFCURVE",
"473 700 OFFCURVE",
"446 700 CURVE SMOOTH"
);
},
{
closed = 1;
nodes = (
"284 377 OFFCURVE",
"250 377 OFFCURVE",
"210 377 CURVE",
"143 446 LINE",
"143 481 OFFCURVE",
"143 520 OFFCURVE",
"143 561 CURVE",
"204 632 LINE",
"248 632 OFFCURVE",
"291 632 OFFCURVE",
"334 632 CURVE",
"406 560 LINE",
"406 519 OFFCURVE",
"406 489 OFFCURVE",
"406 468 CURVE",
"374 412 LINE",
"312 377 LINE"
);
}
);
width = 550;
}
);
note = ordfeminine;
unicode = 00AA;
},
{
glyphname = ordmasculine;
lastChange = "2020-07-29 06:27:51 +0000";
layers = (
{
layerId = "DA2C6654-D585-4A87-87E3-B198D23B8793";
paths = (
{
closed = 1;
nodes = (
"255 290 OFFCURVE",
"297 290 OFFCURVE",
"339 290 CURVE",
"436 344 LINE",
"489 439 LINE",
"489 479 OFFCURVE",
"489 519 OFFCURVE",
"489 559 CURVE",
"436 655 LINE",
"339 710 LINE",
"297 710 OFFCURVE",
"255 710 OFFCURVE",
"213 710 CURVE",
"115 655 LINE",
"61 559 LINE",
"61 519 OFFCURVE",
"61 479 OFFCURVE",
"61 439 CURVE",
"115 344 LINE",
"213 290 LINE"
);
},
{
closed = 1;
nodes = (
"296 364 OFFCURVE",
"255 364 OFFCURVE",
"214 364 CURVE",
"140 439 LINE",
"140 479 OFFCURVE",
"140 519 OFFCURVE",
"140 559 CURVE",
"215 636 LINE",
"256 636 OFFCURVE",
"296 636 OFFCURVE",
"337 636 CURVE",
"410 559 LINE",
"410 519 OFFCURVE",
"410 479 OFFCURVE",
"410 439 CURVE",
"336 364 LINE"
);
}
);
width = 550;
}
);
note = ordmasculine;
unicode = 00BA;
},
{
glyphname = uni0394;
lastChange = "2020-07-29 06:27:51 +0000";
layers = (
{
layerId = "DA2C6654-D585-4A87-87E3-B198D23B8793";
paths = (
{
closed = 1;
nodes = (
"236 817 OFFCURVE",
"-38 0 OFFCURVE",
"275 0 CURVE SMOOTH",
"432 0 OFFCURVE",
"471 117 OFFCURVE",
"393 350 CURVE SMOOTH"
);
},
{
closed = 1;
nodes = (
"255 417 OFFCURVE",
"295 417 OFFCURVE",
"335 282 CURVE SMOOTH",
"374 147 OFFCURVE",
"354 80 OFFCURVE",
"275 80 CURVE SMOOTH",
"196 80 OFFCURVE",
"176 147 OFFCURVE",
"216 282 CURVE SMOOTH"
);
}
);
width = 550;
}
);
note = uni0394;
unicode = 0394;
},
{
glyphname = uni03A9;
lastChange = "2020-07-29 06:27:51 +0000";
layers = (
{
anchors = (
{
name = bottom;
position = "{275, 0}";
},
{
name = topleft;
position = "{20, 650}";
}
);
layerId = "DA2C6654-D585-4A87-87E3-B198D23B8793";
paths = (
{
closed = 1;
nodes = (
"384 98 OFFCURVE",
"384 103 OFFCURVE",
"384 103 CURVE SMOOTH",
"383 103 OFFCURVE",
"404 117 OFFCURVE",
"445 146 CURVE",
"520 269 LINE",
"520 332 OFFCURVE",
"520 390 OFFCURVE",
"520 443 CURVE",
"463 579 LINE",
"352 660 LINE",
"301 660 OFFCURVE",
"249 660 OFFCURVE",
"198 660 CURVE",
"87 579 LINE",
"30 444 LINE",
"30 391 OFFCURVE",
"30 332 OFFCURVE",
"30 269 CURVE",
"102 152 LINE",
"147 119 OFFCURVE",
"170 98 OFFCURVE",
"170 89 CURVE SMOOTH",
"170 79 OFFCURVE",
"148 75 OFFCURVE",
"105 77 CURVE SMOOTH",
"62 79 OFFCURVE",
"40 67 OFFCURVE",
"40 40 CURVE SMOOTH",
"40 13 OFFCURVE",
"73 0 OFFCURVE",
"140 0 CURVE SMOOTH",
"207 0 OFFCURVE",
"240 22 OFFCURVE",
"240 65 CURVE SMOOTH",
"240 108 OFFCURVE",
"219 142 OFFCURVE",
"178 165 CURVE",
"110 274 LINE",
"110 334 OFFCURVE",
"110 396 OFFCURVE",
"110 460 CURVE",
"194 580 LINE",
"248 580 OFFCURVE",
"302 580 OFFCURVE",
"356 580 CURVE",
"440 459 LINE",
"440 395 OFFCURVE",
"440 335 OFFCURVE",
"440 278 CURVE",
"372 172 LINE",
"333 144 OFFCURVE",
"314 108 OFFCURVE",
"314 65 CURVE SMOOTH",
"314 22 OFFCURVE",
"347 0 OFFCURVE",
"412 0 CURVE SMOOTH",
"477 0 OFFCURVE",
"510 13 OFFCURVE",
"510 40 CURVE SMOOTH",
"510 67 OFFCURVE",
"489 79 OFFCURVE",
"447 77 CURVE SMOOTH",
"405 75 OFFCURVE",
"384 79 OFFCURVE",
"384 89 CURVE SMOOTH"
);
}
);
width = 550;
}
);
note = uni03A9;
unicode = 03A9;
},
{
glyphname = pi;
lastChange = "2020-07-29 06:27:51 +0000";
layers = (
{
layerId = "DA2C6654-D585-4A87-87E3-B198D23B8793";
paths = (
{
closed = 1;
nodes = (
"495 425 OFFCURVE",
"510 438 OFFCURVE",
"510 463 CURVE SMOOTH",
"510 488 OFFCURVE",
"432 500 OFFCURVE",
"275 500 CURVE SMOOTH",
"118 500 OFFCURVE",
"40 488 OFFCURVE",
"40 463 CURVE SMOOTH",
"40 438 OFFCURVE",
"55 425 OFFCURVE",
"85 425 CURVE SMOOTH",
"115 425 OFFCURVE",
"130 354 OFFCURVE",
"130 213 CURVE SMOOTH",
"130 71 OFFCURVE",
"143 0 OFFCURVE",
"170 0 CURVE SMOOTH",
"197 0 OFFCURVE",
"210 71 OFFCURVE",
"210 213 CURVE SMOOTH",
"210 354 OFFCURVE",
"232 425 OFFCURVE",
"275 425 CURVE SMOOTH",
"318 425 OFFCURVE",
"340 382 OFFCURVE",
"340 297 CURVE SMOOTH",
"340 212 OFFCURVE",
"340 141 OFFCURVE",
"340 84 CURVE",
"425 -10 LINE",
"481 -10 OFFCURVE",
"509 3 OFFCURVE",
"509 30 CURVE SMOOTH",
"509 57 OFFCURVE",
"498 70 OFFCURVE",
"476 70 CURVE",
"439 84 LINE",
"420 127 LINE",
"420 155 OFFCURVE",
"420 212 OFFCURVE",
"420 297 CURVE SMOOTH",
"420 382 OFFCURVE",
"435 425 OFFCURVE",
"465 425 CURVE SMOOTH"
);
}
);
width = 550;
}
);
note = pi;
unicode = 03C0;
},
{
glyphname = two.lf;
lastChange = "2020-07-29 06:27:51 +0000";
layers = (
{
layerId = "DA2C6654-D585-4A87-87E3-B198D23B8793";
paths = (
{
closed = 1;
nodes = (
"225 75 OFFCURVE",
"191 92 OFFCURVE",
"219 125 CURVE SMOOTH",
"247 158 OFFCURVE",
"261 175 OFFCURVE",
"260 174 CURVE",
"276 192 OFFCURVE",
"302 222 OFFCURVE",
"338 265 CURVE",
"402 348 LINE",
"448 442 LINE",
"448 470 OFFCURVE",
"448 501 OFFCURVE",
"448 534 CURVE",
"403 614 LINE",
"321 660 LINE",
"284 660 OFFCURVE",
"250 660 OFFCURVE",
"218 660 CURVE",
"135 618 LINE",
"86 544 LINE",
"86 484 OFFCURVE",
"75 484 OFFCURVE",
"122 484 CURVE SMOOTH",
"145 484 OFFCURVE",
"157 499 OFFCURVE",
"157 528 CURVE",
"221 585 LINE",
"251 585 OFFCURVE",
"281 585 OFFCURVE",
"311 585 CURVE",
"368 529 LINE",
"368 499 OFFCURVE",
"368 472 OFFCURVE",
"368 448 CURVE",
"333 380 LINE",
"239 260 LINE SMOOTH",
"148 150 OFFCURVE",
"102 95 OFFCURVE",
"103 96 CURVE",
"91 82 OFFCURVE",
"85 75 OFFCURVE",
"85 75 CURVE SMOOTH",
"85 75 OFFCURVE",
"85 63 OFFCURVE",
"85 38 CURVE SMOOTH",
"85 13 OFFCURVE",
"148 0 OFFCURVE",
"275 0 CURVE SMOOTH",
"402 0 OFFCURVE",
"465 13 OFFCURVE",
"465 38 CURVE SMOOTH",
"465 63 OFFCURVE",
"417 75 OFFCURVE",
"321 75 CURVE SMOOTH"
);
}
);
width = 550;
}
);
note = two.lf;
},
{
glyphname = three.lf;
lastChange = "2020-07-29 06:27:51 +0000";
layers = (
{
layerId = "DA2C6654-D585-4A87-87E3-B198D23B8793";
paths = (
{
closed = 1;
nodes = (
"319 335 OFFCURVE",
"292 344 OFFCURVE",
"337 349 CURVE",
"409 414 LINE",
"409 461 OFFCURVE",
"409 500 OFFCURVE",
"409 533 CURVE",
"362 614 LINE",
"278 660 LINE",
"241 660 OFFCURVE",
"207 660 OFFCURVE",
"175 660 CURVE",
"94 618 LINE",
"46 545 LINE",
"46 485 OFFCURVE",
"35 484 OFFCURVE",
"82 484 CURVE SMOOTH",
"105 484 OFFCURVE",
"117 499 OFFCURVE",
"117 528 CURVE",
"178 585 LINE",
"208 585 OFFCURVE",
"238 585 OFFCURVE",
"269 585 CURVE",
"329 529 LINE",
"329 499 OFFCURVE",
"329 467 OFFCURVE",
"329 433 CURVE",
"269 374 LINE",
"232 374 OFFCURVE",
"204 374 OFFCURVE",
"185 374 CURVE SMOOTH",
"166 374 OFFCURVE",
"156 362 OFFCURVE",
"156 338 CURVE SMOOTH",
"156 313 OFFCURVE",
"166 301 OFFCURVE",
"185 301 CURVE SMOOTH",
"204 301 OFFCURVE",
"232 301 OFFCURVE",
"270 301 CURVE",
"338 235 LINE",
"338 200 OFFCURVE",
"338 164 OFFCURVE",
"338 128 CURVE",
"277 65 LINE",
"242 65 OFFCURVE",
"209 65 OFFCURVE",
"176 65 CURVE",
"108 130 LINE",
"108 162 OFFCURVE",
"96 178 OFFCURVE",
"73 178 CURVE SMOOTH",
"26 178 OFFCURVE",
"37 178 OFFCURVE",
"37 115 CURVE",
"88 36 LINE",
"174 -10 LINE",
"208 -10 OFFCURVE",
"244 -10 OFFCURVE",
"282 -10 CURVE",
"369 40 LINE",
"418 127 LINE",
"418 161 OFFCURVE",
"418 226 OFFCURVE",
"418 322 CURVE"
);
}
);
width = 550;
}
);
note = three.lf;
},
{
glyphname = four.lf;
lastChange = "2020-07-29 06:27:51 +0000";
layers = (
{
layerId = "DA2C6654-D585-4A87-87E3-B198D23B8793";
paths = (
{
closed = 1;
nodes = (
"492 208 OFFCURVE",
"477 220 OFFCURVE",
"446 220 CURVE SMOOTH",
"415 220 OFFCURVE",
"400 292 OFFCURVE",
"400 435 CURVE SMOOTH",
"400 578 OFFCURVE",
"387 650 OFFCURVE",
"360 650 CURVE SMOOTH",
"307 650 OFFCURVE",
"45 233 OFFCURVE",
"45 183 CURVE SMOOTH",
"45 158 OFFCURVE",
"91 145 OFFCURVE",
"183 145 CURVE SMOOTH",
"274 145 OFFCURVE",
"320 121 OFFCURVE",
"320 73 CURVE SMOOTH",
"320 24 OFFCURVE",
"333 0 OFFCURVE",
"360 0 CURVE SMOOTH",
"387 0 OFFCURVE",
"400 24 OFFCURVE",
"400 73 CURVE SMOOTH",
"400 121 OFFCURVE",
"415 145 OFFCURVE",
"446 145 CURVE SMOOTH",
"477 145 OFFCURVE",
"492 158 OFFCURVE",
"492 183 CURVE SMOOTH"
);
},
{
closed = 1;
nodes = (
"102 220 OFFCURVE",
"320 564 OFFCURVE",
"320 368 CURVE SMOOTH",
"320 269 OFFCURVE",
"289 220 OFFCURVE",
"227 220 CURVE SMOOTH"
);
}
);
width = 550;
}
);
note = four.lf;
},
{
glyphname = five.lf;
lastChange = "2020-07-29 06:27:51 +0000";
layers = (
{
layerId = "DA2C6654-D585-4A87-87E3-B198D23B8793";
paths = (
{
closed = 1;
nodes = (
"310 420 OFFCURVE",
"278 420 OFFCURVE",
"249 420 CURVE",
"178 375 LINE",
"167 346 OFFCURVE",
"163 372 OFFCURVE",
"168 453 CURVE SMOOTH",
"173 534 OFFCURVE",
"217 575 OFFCURVE",
"302 575 CURVE SMOOTH",
"386 575 OFFCURVE",
"428 588 OFFCURVE",
"428 613 CURVE SMOOTH",
"428 638 OFFCURVE",
"373 650 OFFCURVE",
"264 650 CURVE SMOOTH",
"44 650 OFFCURVE",
"67 277 OFFCURVE",
"116 267 CURVE SMOOTH",
"141 262 OFFCURVE",
"165 287 OFFCURVE",
"189 342 CURVE",
"253 342 OFFCURVE",
"296 342 OFFCURVE",
"318 342 CURVE",
"375 309 LINE",
"410 246 LINE",
"410 218 OFFCURVE",
"410 190 OFFCURVE",
"410 162 CURVE",
"373 100 LINE",
"314 68 LINE",
"291 68 OFFCURVE",
"261 68 OFFCURVE",
"223 68 CURVE",
"146 131 LINE",
"142 168 OFFCURVE",
"127 187 OFFCURVE",
"100 187 CURVE SMOOTH",
"73 187 OFFCURVE",
"61 167 OFFCURVE",
"64 127 CURVE",
"124 38 LINE",
"222 -10 LINE",
"261 -10 OFFCURVE",
"299 -10 OFFCURVE",
"336 -10 CURVE",
"432 42 LINE",
"489 140 LINE",
"489 183 OFFCURVE",
"489 225 OFFCURVE",
"489 268 CURVE",
"437 367 LINE",
"347 420 LINE"
);
}
);
width = 550;
}
);
note = five.lf;
},
{
glyphname = six.lf;
lastChange = "2020-07-29 06:27:51 +0000";
layers = (
{
layerId = "DA2C6654-D585-4A87-87E3-B198D23B8793";
paths = (
{
closed = 1;
nodes = (
"274 420 OFFCURVE",
"237 420 OFFCURVE",
"199 420 CURVE",
"169 387 OFFCURVE",
"177 417 OFFCURVE",
"224 510 CURVE SMOOTH",
"271 603 OFFCURVE",
"280 650 OFFCURVE",
"251 650 CURVE SMOOTH",
"222 650 OFFCURVE",
"200 634 OFFCURVE",
"185 601 CURVE SMOOTH",
"56 329 LINE",
"51 317 OFFCURVE",
"41 290 OFFCURVE",
"25 249 CURVE",
"25 215 OFFCURVE",
"25 177 OFFCURVE",
"25 135 CURVE",
"81 41 LINE",
"177 -10 LINE",
"216 -10 OFFCURVE",
"255 -10 OFFCURVE",
"294 -10 CURVE",
"393 43 LINE",
"451 143 LINE",
"451 187 OFFCURVE",
"451 230 OFFCURVE",
"451 272 CURVE",
"398 368 LINE",
"309 420 LINE"
);
},
{
closed = 1;
nodes = (
"371 229 OFFCURVE",
"371 186 OFFCURVE",
"371 143 CURVE",
"292 67 LINE",
"254 67 OFFCURVE",
"217 67 OFFCURVE",
"180 67 CURVE",
"105 138 LINE",
"105 179 OFFCURVE",
"105 220 OFFCURVE",
"105 261 CURVE",
"180 343 LINE",
"221 343 OFFCURVE",
"260 343 OFFCURVE",
"297 343 CURVE",
"371 270 LINE"
);
}
);
width = 550;
}
);
note = six.lf;
},
{
glyphname = seven.lf;
lastChange = "2020-07-29 06:27:51 +0000";
layers = (
{
layerId = "DA2C6654-D585-4A87-87E3-B198D23B8793";
paths = (
{
closed = 1;
nodes = (
"82 650 OFFCURVE",
"20 638 OFFCURVE",
"20 613 CURVE SMOOTH",
"20 588 OFFCURVE",
"68 575 OFFCURVE",
"165 575 CURVE SMOOTH",
"262 575 OFFCURVE",
"273 479 OFFCURVE",
"199 288 CURVE SMOOTH",
"124 96 OFFCURVE",
"100 0 OFFCURVE",
"127 0 CURVE SMOOTH",
"179 0 OFFCURVE",
"391 563 OFFCURVE",
"391 613 CURVE SMOOTH",
"391 638 OFFCURVE",
"329 650 OFFCURVE",
"206 650 CURVE SMOOTH"
);
}
);
width = 550;
}
);
note = seven.lf;
},
{
glyphname = eight.lf;
lastChange = "2020-07-29 06:27:51 +0000";
layers = (
{
layerId = "DA2C6654-D585-4A87-87E3-B198D23B8793";
paths = (
{
closed = 1;
nodes = (
"340 336 OFFCURVE",
"338 347 OFFCURVE",
"369 358 CURVE",
"423 428 LINE",
"423 465 OFFCURVE",
"423 500 OFFCURVE",
"423 533 CURVE",
"377 614 LINE",
"292 660 LINE",
"255 660 OFFCURVE",
"219 660 OFFCURVE",
"182 660 CURVE",
"98 614 LINE",
"51 533 LINE",
"51 500 OFFCURVE",
"51 466 OFFCURVE",
"51 429 CURVE",
"106 358 LINE",
"137 347 OFFCURVE",
"135 336 OFFCURVE",
"100 323 CURVE",
"37 239 LINE",
"37 198 OFFCURVE",
"37 161 OFFCURVE",
"37 126 CURVE",
"87 40 LINE",
"178 -10 LINE",
"217 -10 OFFCURVE",
"257 -10 OFFCURVE",
"297 -10 CURVE",
"388 40 LINE",
"437 126 LINE",
"437 161 OFFCURVE",
"437 198 OFFCURVE",
"437 239 CURVE",
"375 323 LINE"
);
},
{
closed = 1;
nodes = (
"222 585 OFFCURVE",
"252 585 OFFCURVE",
"282 585 CURVE",
"343 528 LINE",
"343 499 OFFCURVE",
"343 469 OFFCURVE",
"343 439 CURVE",
"282 379 LINE",
"252 379 OFFCURVE",
"222 379 OFFCURVE",
"193 379 CURVE",
"131 439 LINE",
"131 469 OFFCURVE",
"131 499 OFFCURVE",
"131 528 CURVE",
"193 585 LINE"
);
},
{
closed = 1;
nodes = (
"254 65 OFFCURVE",
"220 65 OFFCURVE",
"185 65 CURVE",
"117 129 LINE",
"117 162 OFFCURVE",
"117 195 OFFCURVE",
"117 230 CURVE",
"185 296 LINE",
"220 296 OFFCURVE",
"254 296 OFFCURVE",
"289 296 CURVE",
"357 230 LINE",
"357 195 OFFCURVE",
"357 162 OFFCURVE",
"357 129 CURVE",
"289 65 LINE"
);
}
);
width = 550;
}
);
note = eight.lf;
},
{
glyphname = nine.lf;
lastChange = "2020-07-29 06:27:51 +0000";
layers = (
{
layerId = "DA2C6654-D585-4A87-87E3-B198D23B8793";
paths = (
{
closed = 1;
nodes = (
"272 660 OFFCURVE",
"233 660 OFFCURVE",
"194 660 CURVE",
"95 607 LINE",
"37 508 LINE",
"37 464 OFFCURVE",
"37 421 OFFCURVE",
"37 379 CURVE",
"91 283 LINE",
"181 230 LINE",
"215 230 OFFCURVE",
"251 230 OFFCURVE",
"289 230 CURVE",
"319 263 OFFCURVE",
"311 233 OFFCURVE",
"264 140 CURVE SMOOTH",
"217 47 OFFCURVE",
"208 0 OFFCURVE",
"237 0 CURVE SMOOTH",
"266 0 OFFCURVE",
"288 16 OFFCURVE",
"303 49 CURVE SMOOTH",
"432 322 LINE SMOOTH",
"437 333 OFFCURVE",
"447 360 OFFCURVE",
"463 401 CURVE",
"463 435 OFFCURVE",
"463 473 OFFCURVE",
"463 515 CURVE",
"407 609 LINE",
"311 660 LINE"
);
},
{
closed = 1;
nodes = (
"267 307 OFFCURVE",
"228 307 OFFCURVE",
"191 307 CURVE",
"117 380 LINE",
"117 421 OFFCURVE",
"117 464 OFFCURVE",
"117 507 CURVE",
"196 583 LINE",
"234 583 OFFCURVE",
"271 583 OFFCURVE",
"308 583 CURVE",
"383 512 LINE",
"383 471 OFFCURVE",
"383 430 OFFCURVE",
"383 389 CURVE",
"308 307 LINE"
);
}
);
width = 550;
}
);
note = nine.lf;
},
{
glyphname = zero.osf;
lastChange = "2020-07-29 06:27:51 +0000";
layers = (
{
layerId = "DA2C6654-D585-4A87-87E3-B198D23B8793";
paths = (
{
closed = 1;
nodes = (
"260 -10 OFFCURVE",
"304 -10 OFFCURVE",
"347 -10 CURVE",
"458 53 LINE",
"525 171 LINE",
"525 223 OFFCURVE",
"525 275 OFFCURVE",
"525 326 CURVE",
"458 445 LINE",
"347 510 LINE",
"304 510 OFFCURVE",
"260 510 OFFCURVE",
"217 510 CURVE",
"105 445 LINE",
"37 326 LINE",
"37 275 OFFCURVE",
"37 223 OFFCURVE",
"37 171 CURVE",
"104 53 LINE",
"217 -10 LINE"
);
},
{
closed = 1;
nodes = (
"296 67 OFFCURVE",
"268 67 OFFCURVE",
"239 67 CURVE",
"164 110 LINE",
"117 193 LINE",
"117 230 OFFCURVE",
"117 268 OFFCURVE",
"117 305 CURVE",
"164 389 LINE",
"240 433 LINE",
"268 433 OFFCURVE",
"296 433 OFFCURVE",
"324 433 CURVE",
"399 388 LINE",
"445 305 LINE",
"445 268 OFFCURVE",
"445 230 OFFCURVE",
"445 193 CURVE",
"399 110 LINE",
"324 67 LINE"
);
}
);
width = 550;
}
);
note = zero.osf;
},
{
glyphname = one.osf;
lastChange = "2020-07-29 06:27:51 +0000";
layers = (
{
layerId = "DA2C6654-D585-4A87-87E3-B198D23B8793";
paths = (
{
closed = 1;
nodes = (
"349 75 OFFCURVE",
"325 146 OFFCURVE",
"325 288 CURVE SMOOTH",
"325 429 OFFCURVE",
"286 500 OFFCURVE",
"208 500 CURVE SMOOTH",
"129 500 OFFCURVE",
"90 488 OFFCURVE",
"90 463 CURVE SMOOTH",
"90 438 OFFCURVE",
"116 425 OFFCURVE",
"168 425 CURVE SMOOTH",
"219 425 OFFCURVE",
"245 367 OFFCURVE",
"245 250 CURVE SMOOTH",
"245 133 OFFCURVE",
"218 75 OFFCURVE",
"163 75 CURVE SMOOTH",
"108 75 OFFCURVE",
"80 63 OFFCURVE",
"80 38 CURVE SMOOTH",
"80 13 OFFCURVE",
"145 0 OFFCURVE",
"275 0 CURVE SMOOTH",
"405 0 OFFCURVE",
"470 13 OFFCURVE",
"470 38 CURVE SMOOTH",
"470 63 OFFCURVE",
"446 75 OFFCURVE",
"398 75 CURVE SMOOTH"
);
}
);
width = 550;
}
);
note = one.osf;
},
{
glyphname = two.osf;
lastChange = "2020-07-29 06:27:51 +0000";
layers = (
{
layerId = "DA2C6654-D585-4A87-87E3-B198D23B8793";
paths = (
{
closed = 1;
nodes = (
"251 75 OFFCURVE",
"225 88 OFFCURVE",
"260 113 CURVE SMOOTH",
"295 138 OFFCURVE",
"335 168 OFFCURVE",
"381 201 CURVE",
"448 289 LINE",
"448 326 OFFCURVE",
"448 359 OFFCURVE",
"448 389 CURVE",
"405 465 LINE",
"322 510 LINE",
"284 510 OFFCURVE",
"249 510 OFFCURVE",
"217 510 CURVE",
"135 468 LINE",
"86 395 LINE",
"86 335 OFFCURVE",
"75 334 OFFCURVE",
"122 334 CURVE SMOOTH",
"145 334 OFFCURVE",
"157 349 OFFCURVE",
"157 378 CURVE",
"220 435 LINE",
"250 435 OFFCURVE",
"280 435 OFFCURVE",
"310 435 CURVE",
"368 381 LINE",
"368 353 OFFCURVE",
"368 327 OFFCURVE",
"368 304 CURVE",
"334 250 LINE",
"276 202 LINE",
"235 174 OFFCURVE",
"188 141 OFFCURVE",
"134 104 CURVE SMOOTH",
"108 85 OFFCURVE",
"95 75 OFFCURVE",
"95 75 CURVE SMOOTH",
"95 75 OFFCURVE",
"95 63 OFFCURVE",
"95 38 CURVE SMOOTH",
"95 13 OFFCURVE",
"157 0 OFFCURVE",
"280 0 CURVE SMOOTH",
"403 0 OFFCURVE",
"465 13 OFFCURVE",
"465 38 CURVE SMOOTH",
"465 63 OFFCURVE",
"422 75 OFFCURVE",
"337 75 CURVE SMOOTH"
);
}
);
width = 550;
}
);
note = two.osf;
},
{
glyphname = three.osf;
lastChange = "2020-07-29 06:27:51 +0000";
layers = (
{
layerId = "DA2C6654-D585-4A87-87E3-B198D23B8793";
paths = (
{
closed = 1;
nodes = (
"366 184 OFFCURVE",
"338 193 OFFCURVE",
"383 198 CURVE",
"456 264 LINE",
"456 310 OFFCURVE",
"456 349 OFFCURVE",
"456 382 CURVE",
"409 463 LINE",
"325 510 LINE",
"288 510 OFFCURVE",
"254 510 OFFCURVE",
"222 510 CURVE",
"141 468 LINE",
"93 394 LINE",
"93 334 OFFCURVE",
"82 333 OFFCURVE",
"129 333 CURVE SMOOTH",
"152 333 OFFCURVE",
"164 348 OFFCURVE",
"164 377 CURVE",
"225 435 LINE",
"255 435 OFFCURVE",
"285 435 OFFCURVE",
"316 435 CURVE",
"376 378 LINE",
"376 348 OFFCURVE",
"376 316 OFFCURVE",
"376 283 CURVE",
"316 224 LINE",
"279 224 OFFCURVE",
"251 224 OFFCURVE",
"232 224 CURVE SMOOTH",
"213 224 OFFCURVE",
"203 212 OFFCURVE",
"203 187 CURVE SMOOTH",
"203 162 OFFCURVE",
"213 150 OFFCURVE",
"232 150 CURVE SMOOTH",
"251 150 OFFCURVE",
"279 150 OFFCURVE",
"317 150 CURVE",
"385 85 LINE",
"385 49 OFFCURVE",
"385 13 OFFCURVE",
"385 -22 CURVE",
"324 -86 LINE",
"289 -86 OFFCURVE",
"256 -86 OFFCURVE",
"223 -86 CURVE",
"155 -21 LINE",
"155 11 OFFCURVE",
"143 27 OFFCURVE",
"120 27 CURVE SMOOTH",
"73 27 OFFCURVE",
"84 27 OFFCURVE",
"84 -36 CURVE",
"135 -114 LINE",
"221 -160 LINE",
"255 -160 OFFCURVE",
"291 -160 OFFCURVE",
"329 -160 CURVE",
"417 -110 LINE",
"465 -24 LINE",
"465 10 OFFCURVE",
"465 75 OFFCURVE",
"465 171 CURVE"
);
}
);
width = 550;
}
);
note = three.osf;
},
{
glyphname = four.osf;
lastChange = "2020-07-29 06:27:51 +0000";
layers = (
{
layerId = "DA2C6654-D585-4A87-87E3-B198D23B8793";
paths = (
{
closed = 1;
nodes = (
"498 63 OFFCURVE",
"483 75 OFFCURVE",
"452 75 CURVE SMOOTH",
"421 75 OFFCURVE",
"406 147 OFFCURVE",
"406 290 CURVE SMOOTH",
"406 433 OFFCURVE",
"393 505 OFFCURVE",
"366 505 CURVE SMOOTH",
"313 505 OFFCURVE",
"51 88 OFFCURVE",
"51 38 CURVE SMOOTH",
"51 13 OFFCURVE",
"97 0 OFFCURVE",
"189 0 CURVE SMOOTH",
"280 0 OFFCURVE",
"326 -24 OFFCURVE",
"326 -72 CURVE SMOOTH",
"326 -121 OFFCURVE",
"339 -145 OFFCURVE",
"366 -145 CURVE SMOOTH",
"393 -145 OFFCURVE",
"406 -121 OFFCURVE",
"406 -72 CURVE SMOOTH",
"406 -24 OFFCURVE",
"421 0 OFFCURVE",
"452 0 CURVE SMOOTH",
"483 0 OFFCURVE",
"498 13 OFFCURVE",
"498 38 CURVE SMOOTH"
);
},
{
closed = 1;
nodes = (
"108 75 OFFCURVE",
"326 419 OFFCURVE",
"326 223 CURVE SMOOTH",
"326 124 OFFCURVE",
"295 75 OFFCURVE",
"233 75 CURVE SMOOTH"
);
}
);
width = 550;
}
);
note = four.osf;
},
{
glyphname = five.osf;
lastChange = "2020-07-29 06:27:51 +0000";
layers = (
{
layerId = "DA2C6654-D585-4A87-87E3-B198D23B8793";
paths = (
{
closed = 1;
nodes = (
"311 270 OFFCURVE",
"278 270 OFFCURVE",
"249 270 CURVE",
"178 226 LINE",
"167 196 OFFCURVE",
"163 222 OFFCURVE",
"168 303 CURVE SMOOTH",
"173 384 OFFCURVE",
"217 425 OFFCURVE",
"302 425 CURVE SMOOTH",
"386 425 OFFCURVE",
"428 438 OFFCURVE",
"428 463 CURVE SMOOTH",
"428 488 OFFCURVE",
"373 500 OFFCURVE",
"264 500 CURVE SMOOTH",
"44 500 OFFCURVE",
"67 127 OFFCURVE",
"116 117 CURVE SMOOTH",
"141 112 OFFCURVE",
"165 137 OFFCURVE",
"189 192 CURVE",
"253 192 OFFCURVE",
"303 192 OFFCURVE",
"340 192 CURVE",
"410 118 LINE",
"410 75 OFFCURVE",
"410 33 OFFCURVE",
"410 -9 CURVE",
"335 -82 LINE",
"298 -82 OFFCURVE",
"261 -82 OFFCURVE",
"223 -82 CURVE",
"146 -19 LINE",
"142 18 OFFCURVE",
"127 37 OFFCURVE",
"100 37 CURVE SMOOTH",
"73 37 OFFCURVE",
"61 17 OFFCURVE",
"64 -23 CURVE",
"124 -112 LINE",
"222 -160 LINE",
"261 -160 OFFCURVE",
"299 -160 OFFCURVE",
"337 -160 CURVE",
"433 -108 LINE",
"489 -11 LINE",
"489 32 OFFCURVE",
"489 76 OFFCURVE",
"489 119 CURVE",
"439 217 LINE",
"350 270 LINE"
);
}
);
width = 550;
}
);
note = five.osf;
},
{
glyphname = six.osf;
lastChange = "2020-07-29 06:27:51 +0000";
layers = (
{
layerId = "DA2C6654-D585-4A87-87E3-B198D23B8793";
paths = (
{
closed = 1;
nodes = (
"311 420 OFFCURVE",
"274 420 OFFCURVE",
"236 420 CURVE",
"206 387 OFFCURVE",
"214 417 OFFCURVE",
"261 510 CURVE SMOOTH",
"308 603 OFFCURVE",
"317 650 OFFCURVE",
"288 650 CURVE SMOOTH",
"259 650 OFFCURVE",
"237 634 OFFCURVE",
"222 601 CURVE SMOOTH",
"93 329 LINE",
"88 317 OFFCURVE",
"78 290 OFFCURVE",
"62 249 CURVE",
"62 215 OFFCURVE",
"62 177 OFFCURVE",
"62 135 CURVE",
"118 41 LINE",
"214 -10 LINE",
"253 -10 OFFCURVE",
"292 -10 OFFCURVE",
"331 -10 CURVE",
"430 43 LINE",
"488 143 LINE",
"488 187 OFFCURVE",
"488 230 OFFCURVE",
"488 272 CURVE",
"435 368 LINE",
"346 420 LINE"
);
},
{
closed = 1;
nodes = (
"408 229 OFFCURVE",
"408 186 OFFCURVE",
"408 143 CURVE",
"329 67 LINE",
"291 67 OFFCURVE",
"254 67 OFFCURVE",
"217 67 CURVE",
"142 138 LINE",
"142 179 OFFCURVE",
"142 220 OFFCURVE",
"142 261 CURVE",
"217 343 LINE",
"258 343 OFFCURVE",
"297 343 OFFCURVE",
"334 343 CURVE",
"408 270 LINE"
);
}
);
width = 550;
}
);
note = six.osf;
},
{
glyphname = seven.osf;
lastChange = "2020-07-29 06:27:51 +0000";
layers = (
{
layerId = "DA2C6654-D585-4A87-87E3-B198D23B8793";
paths = (
{
closed = 1;
nodes = (
"152 500 OFFCURVE",
"90 488 OFFCURVE",
"90 463 CURVE SMOOTH",
"90 438 OFFCURVE",
"138 425 OFFCURVE",
"235 425 CURVE SMOOTH",
"331 425 OFFCURVE",
"342 329 OFFCURVE",
"268 138 CURVE SMOOTH",
"194 -54 OFFCURVE",
"170 -150 OFFCURVE",
"197 -150 CURVE SMOOTH",
"249 -150 OFFCURVE",
"461 413 OFFCURVE",
"461 463 CURVE SMOOTH",
"461 488 OFFCURVE",
"399 500 OFFCURVE",
"276 500 CURVE SMOOTH"
);
}
);
width = 550;
}
);
note = seven.osf;
},
{
glyphname = eight.osf;
lastChange = "2020-07-29 06:27:51 +0000";
layers = (
{
layerId = "DA2C6654-D585-4A87-87E3-B198D23B8793";
paths = (
{
closed = 1;
nodes = (
"384 336 OFFCURVE",
"382 347 OFFCURVE",
"415 358 CURVE",
"471 428 LINE",
"471 465 OFFCURVE",
"471 501 OFFCURVE",
"471 534 CURVE",
"423 614 LINE",
"335 660 LINE",
"295 660 OFFCURVE",
"255 660 OFFCURVE",
"215 660 CURVE",
"127 614 LINE",
"79 534 LINE",
"79 501 OFFCURVE",
"79 465 OFFCURVE",
"79 428 CURVE",
"135 358 LINE",
"168 347 OFFCURVE",
"166 336 OFFCURVE",
"129 323 CURVE",
"65 240 LINE",
"65 199 OFFCURVE",
"65 161 OFFCURVE",
"65 126 CURVE",
"115 40 LINE",
"210 -10 LINE",
"253 -10 OFFCURVE",
"297 -10 OFFCURVE",
"340 -10 CURVE",
"435 40 LINE",
"485 126 LINE",
"485 161 OFFCURVE",
"485 199 OFFCURVE",
"485 240 CURVE",
"421 323 LINE"
);
},
{
closed = 1;
nodes = (
"258 585 OFFCURVE",
"292 585 OFFCURVE",
"327 585 CURVE",
"391 529 LINE",
"391 499 OFFCURVE",
"391 469 OFFCURVE",
"391 439 CURVE",
"326 379 LINE",
"292 379 OFFCURVE",
"258 379 OFFCURVE",
"224 379 CURVE",
"159 439 LINE",
"159 469 OFFCURVE",
"159 499 OFFCURVE",
"159 529 CURVE",
"223 585 LINE"
);
},
{
closed = 1;
nodes = (
"295 65 OFFCURVE",
"255 65 OFFCURVE",
"216 65 CURVE",
"145 129 LINE",
"145 162 OFFCURVE",
"145 195 OFFCURVE",
"145 230 CURVE",
"216 296 LINE",
"255 296 OFFCURVE",
"295 296 OFFCURVE",
"334 296 CURVE",
"405 230 LINE",
"405 195 OFFCURVE",
"405 162 OFFCURVE",
"405 129 CURVE",
"334 65 LINE"
);
}
);
width = 550;
}
);
note = eight.osf;
},
{
glyphname = nine.osf;
lastChange = "2020-07-29 06:27:51 +0000";
layers = (
{
layerId = "DA2C6654-D585-4A87-87E3-B198D23B8793";
paths = (
{
closed = 1;
nodes = (
"297 510 OFFCURVE",
"258 510 OFFCURVE",
"219 510 CURVE",
"120 457 LINE",
"62 358 LINE",
"62 314 OFFCURVE",
"62 271 OFFCURVE",
"62 229 CURVE",
"116 133 LINE",
"206 80 LINE",
"240 80 OFFCURVE",
"276 80 OFFCURVE",
"314 80 CURVE",
"344 113 OFFCURVE",
"336 83 OFFCURVE",
"289 -10 CURVE SMOOTH",
"242 -103 OFFCURVE",
"233 -150 OFFCURVE",
"262 -150 CURVE SMOOTH",
"291 -150 OFFCURVE",
"313 -134 OFFCURVE",
"328 -101 CURVE SMOOTH",
"457 171 LINE",
"462 183 OFFCURVE",
"472 210 OFFCURVE",
"488 251 CURVE",
"488 285 OFFCURVE",
"488 323 OFFCURVE",
"488 365 CURVE",
"432 459 LINE",
"336 510 LINE"
);
},
{
closed = 1;
nodes = (
"292 157 OFFCURVE",
"253 157 OFFCURVE",
"216 157 CURVE",
"142 230 LINE",
"142 271 OFFCURVE",
"142 314 OFFCURVE",
"142 357 CURVE",
"221 433 LINE",
"259 433 OFFCURVE",
"296 433 OFFCURVE",
"333 433 CURVE",
"408 362 LINE",
"408 321 OFFCURVE",
"408 280 OFFCURVE",
"408 239 CURVE",
"333 157 LINE"
);
}
);
width = 550;
}
);
note = nine.osf;
},
{
glyphname = zero.tf;
lastChange = "2020-07-29 06:27:51 +0000";
layers = (
{
layerId = "DA2C6654-D585-4A87-87E3-B198D23B8793";
paths = (
{
closed = 1;
nodes = (
"313 660 OFFCURVE",
"237 660 OFFCURVE",
"161 660 CURVE",
"45 475 LINE",
"45 375 OFFCURVE",
"45 275 OFFCURVE",
"45 175 CURVE",
"161 -10 LINE",
"237 -10 OFFCURVE",
"313 -10 OFFCURVE",
"389 -10 CURVE",
"505 175 LINE",
"505 275 OFFCURVE",
"505 375 OFFCURVE",
"505 475 CURVE",
"389 660 LINE"
);
},
{
closed = 1;
nodes = (
"300 70 OFFCURVE",
"250 70 OFFCURVE",
"200 70 CURVE",
"125 206 LINE",
"125 285 OFFCURVE",
"125 365 OFFCURVE",
"125 444 CURVE",
"200 580 LINE",
"250 580 OFFCURVE",
"300 580 OFFCURVE",
"350 580 CURVE",
"425 444 LINE",
"425 365 OFFCURVE",
"425 285 OFFCURVE",
"425 206 CURVE",
"350 70 LINE"
);
}
);
width = 550;
}
);
note = zero.tf;
},
{
glyphname = one.tf;
lastChange = "2020-07-29 06:27:51 +0000";
layers = (
{
layerId = "DA2C6654-D585-4A87-87E3-B198D23B8793";
paths = (
{
closed = 1;
nodes = (
"351 75 OFFCURVE",
"327 171 OFFCURVE",
"327 363 CURVE SMOOTH",
"327 554 OFFCURVE",
"288 650 OFFCURVE",
"210 650 CURVE SMOOTH",
"131 650 OFFCURVE",
"92 638 OFFCURVE",
"92 613 CURVE SMOOTH",
"92 588 OFFCURVE",
"118 575 OFFCURVE",
"170 575 CURVE SMOOTH",
"221 575 OFFCURVE",
"247 492 OFFCURVE",
"247 325 CURVE SMOOTH",
"247 158 OFFCURVE",
"220 75 OFFCURVE",
"165 75 CURVE SMOOTH",
"110 75 OFFCURVE",
"82 63 OFFCURVE",
"82 38 CURVE SMOOTH",
"82 13 OFFCURVE",
"147 0 OFFCURVE",
"277 0 CURVE SMOOTH",
"407 0 OFFCURVE",
"472 13 OFFCURVE",
"472 38 CURVE SMOOTH",
"472 63 OFFCURVE",
"448 75 OFFCURVE",
"400 75 CURVE SMOOTH"
);
}
);
width = 550;
}
);
note = one.tf;
},
{
glyphname = five.tf;
lastChange = "2020-07-29 06:27:51 +0000";
layers = (
{
layerId = "DA2C6654-D585-4A87-87E3-B198D23B8793";
paths = (
{
closed = 1;
nodes = (
"310 420 OFFCURVE",
"279 420 OFFCURVE",
"250 420 CURVE",
"183 376 LINE",
"172 346 OFFCURVE",
"168 372 OFFCURVE",
"173 453 CURVE SMOOTH",
"178 534 OFFCURVE",
"221 575 OFFCURVE",
"302 575 CURVE SMOOTH",
"383 575 OFFCURVE",
"424 588 OFFCURVE",
"424 613 CURVE SMOOTH",
"424 638 OFFCURVE",
"371 650 OFFCURVE",
"265 650 CURVE SMOOTH",
"52 650 OFFCURVE",
"73 277 OFFCURVE",
"122 267 CURVE SMOOTH",
"147 262 OFFCURVE",
"166 274 OFFCURVE",
"179 305 CURVE",
"243 342 LINE",
"271 342 OFFCURVE",
"295 342 OFFCURVE",
"316 342 CURVE",
"371 309 LINE",
"405 246 LINE",
"405 218 OFFCURVE",
"405 190 OFFCURVE",
"405 162 CURVE",
"369 100 LINE",
"311 68 LINE",
"290 68 OFFCURVE",
"262 68 OFFCURVE",
"225 68 CURVE",
"151 131 LINE",
"147 168 OFFCURVE",
"132 187 OFFCURVE",
"105 187 CURVE SMOOTH",
"78 187 OFFCURVE",
"66 167 OFFCURVE",
"69 127 CURVE",
"129 38 LINE",
"225 -10 LINE",
"262 -10 OFFCURVE",
"299 -10 OFFCURVE",
"334 -10 CURVE",
"428 42 LINE",
"485 140 LINE",
"485 183 OFFCURVE",
"485 225 OFFCURVE",
"485 268 CURVE",
"433 366 LINE",
"345 420 LINE"
);
}
);
width = 550;
}
);
note = five.tf;
},
{
glyphname = six.tf;
lastChange = "2020-07-29 06:27:51 +0000";
layers = (
{
layerId = "DA2C6654-D585-4A87-87E3-B198D23B8793";
paths = (
{
closed = 1;
nodes = (
"311 420 OFFCURVE",
"274 420 OFFCURVE",
"236 420 CURVE",
"206 387 OFFCURVE",
"214 417 OFFCURVE",
"261 510 CURVE SMOOTH",
"308 603 OFFCURVE",
"317 650 OFFCURVE",
"288 650 CURVE SMOOTH",
"259 650 OFFCURVE",
"237 634 OFFCURVE",
"222 601 CURVE SMOOTH",
"93 329 LINE",
"88 317 OFFCURVE",
"78 290 OFFCURVE",
"62 249 CURVE",
"62 215 OFFCURVE",
"62 177 OFFCURVE",
"62 135 CURVE",
"118 41 LINE",
"214 -10 LINE",
"253 -10 OFFCURVE",
"292 -10 OFFCURVE",
"331 -10 CURVE",
"430 43 LINE",
"488 143 LINE",
"488 187 OFFCURVE",
"488 230 OFFCURVE",
"488 272 CURVE",
"435 368 LINE",
"346 420 LINE"
);
},
{
closed = 1;
nodes = (
"408 229 OFFCURVE",
"408 186 OFFCURVE",
"408 143 CURVE",
"329 67 LINE",
"291 67 OFFCURVE",
"254 67 OFFCURVE",
"217 67 CURVE",
"142 138 LINE",
"142 179 OFFCURVE",
"142 220 OFFCURVE",
"142 261 CURVE",
"217 343 LINE",
"258 343 OFFCURVE",
"297 343 OFFCURVE",
"334 343 CURVE",
"408 270 LINE"
);
}
);
width = 550;
}
);
note = six.tf;
},
{
glyphname = nine.tf;
lastChange = "2020-07-29 06:27:51 +0000";
layers = (
{
layerId = "DA2C6654-D585-4A87-87E3-B198D23B8793";
paths = (
{
closed = 1;
nodes = (
"297 660 OFFCURVE",
"258 660 OFFCURVE",
"219 660 CURVE",
"120 607 LINE",
"62 508 LINE",
"62 464 OFFCURVE",
"62 421 OFFCURVE",
"62 379 CURVE",
"116 283 LINE",
"206 230 LINE",
"240 230 OFFCURVE",
"276 230 OFFCURVE",
"314 230 CURVE",
"344 263 OFFCURVE",
"336 233 OFFCURVE",
"289 140 CURVE SMOOTH",
"242 47 OFFCURVE",
"233 0 OFFCURVE",
"262 0 CURVE SMOOTH",
"291 0 OFFCURVE",
"313 16 OFFCURVE",
"328 49 CURVE SMOOTH",
"457 321 LINE",
"462 333 OFFCURVE",
"472 360 OFFCURVE",
"488 401 CURVE",
"488 435 OFFCURVE",
"488 473 OFFCURVE",
"488 515 CURVE",
"432 609 LINE",
"336 660 LINE"
);
},
{
closed = 1;
nodes = (
"292 307 OFFCURVE",
"253 307 OFFCURVE",
"216 307 CURVE",
"142 380 LINE",
"142 421 OFFCURVE",
"142 464 OFFCURVE",
"142 507 CURVE",
"221 583 LINE",
"259 583 OFFCURVE",
"296 583 OFFCURVE",
"333 583 CURVE",
"408 512 LINE",
"408 471 OFFCURVE",
"408 430 OFFCURVE",
"408 389 CURVE",
"333 307 LINE"
);
}
);
width = 550;
}
);
note = nine.tf;
},
{
glyphname = zero.tosf;
lastChange = "2020-07-29 06:27:51 +0000";
layers = (
{
layerId = "DA2C6654-D585-4A87-87E3-B198D23B8793";
paths = (
{
closed = 1;
nodes = (
"254 -10 OFFCURVE",
"297 -10 OFFCURVE",
"340 -10 CURVE",
"447 53 LINE",
"509 171 LINE",
"509 223 OFFCURVE",
"509 275 OFFCURVE",
"509 327 CURVE",
"447 446 LINE",
"340 510 LINE",
"297 510 OFFCURVE",
"254 510 OFFCURVE",
"211 510 CURVE",
"104 446 LINE",
"41 327 LINE",
"41 275 OFFCURVE",
"41 223 OFFCURVE",
"41 171 CURVE",
"104 53 LINE",
"211 -10 LINE"
);
},
{
closed = 1;
nodes = (
"290 68 OFFCURVE",
"262 68 OFFCURVE",
"234 68 CURVE",
"163 111 LINE",
"121 193 LINE",
"121 230 OFFCURVE",
"121 268 OFFCURVE",
"121 305 CURVE",
"163 388 LINE",
"234 432 LINE",
"262 432 OFFCURVE",
"290 432 OFFCURVE",
"318 432 CURVE",
"387 388 LINE",
"429 305 LINE",
"429 268 OFFCURVE",
"429 230 OFFCURVE",
"429 193 CURVE",
"387 111 LINE",
"317 68 LINE"
);
}
);
width = 550;
}
);
note = zero.tosf;
},
{
glyphname = one.tosf;
lastChange = "2020-07-29 06:27:51 +0000";
layers = (
{
layerId = "DA2C6654-D585-4A87-87E3-B198D23B8793";
paths = (
{
closed = 1;
nodes = (
"348 75 OFFCURVE",
"325 146 OFFCURVE",
"325 288 CURVE SMOOTH",
"325 429 OFFCURVE",
"286 500 OFFCURVE",
"208 500 CURVE SMOOTH",
"129 500 OFFCURVE",
"90 488 OFFCURVE",
"90 463 CURVE SMOOTH",
"90 438 OFFCURVE",
"116 425 OFFCURVE",
"168 425 CURVE SMOOTH",
"219 425 OFFCURVE",
"245 367 OFFCURVE",
"245 250 CURVE SMOOTH",
"245 133 OFFCURVE",
"221 75 OFFCURVE",
"173 75 CURVE SMOOTH",
"124 75 OFFCURVE",
"100 63 OFFCURVE",
"100 38 CURVE SMOOTH",
"100 13 OFFCURVE",
"160 0 OFFCURVE",
"280 0 CURVE SMOOTH",
"400 0 OFFCURVE",
"460 13 OFFCURVE",
"460 38 CURVE SMOOTH",
"460 63 OFFCURVE",
"438 75 OFFCURVE",
"393 75 CURVE SMOOTH"
);
}
);
width = 550;
}
);
note = one.tosf;
},
{
glyphname = five.tosf;
lastChange = "2020-07-29 06:27:51 +0000";
layers = (
{
layerId = "DA2C6654-D585-4A87-87E3-B198D23B8793";
paths = (
{
closed = 1;
nodes = (
"312 270 OFFCURVE",
"280 270 OFFCURVE",
"251 270 CURVE",
"180 226 LINE",
"169 196 OFFCURVE",
"165 222 OFFCURVE",
"170 303 CURVE SMOOTH",
"175 384 OFFCURVE",
"219 425 OFFCURVE",
"302 425 CURVE SMOOTH",
"385 425 OFFCURVE",
"427 438 OFFCURVE",
"427 463 CURVE SMOOTH",
"427 488 OFFCURVE",
"373 500 OFFCURVE",
"264 500 CURVE SMOOTH",
"47 500 OFFCURVE",
"69 127 OFFCURVE",
"118 117 CURVE SMOOTH",
"143 112 OFFCURVE",
"167 137 OFFCURVE",
"191 192 CURVE",
"255 192 OFFCURVE",
"297 192 OFFCURVE",
"318 192 CURVE",
"372 159 LINE",
"405 96 LINE",
"405 68 OFFCURVE",
"405 33 OFFCURVE",
"405 -9 CURVE",
"332 -82 LINE",
"299 -82 OFFCURVE",
"263 -82 OFFCURVE",
"226 -82 CURVE",
"150 -19 LINE",
"147 18 OFFCURVE",
"132 37 OFFCURVE",
"105 37 CURVE SMOOTH",
"78 37 OFFCURVE",
"66 17 OFFCURVE",
"69 -23 CURVE",
"128 -112 LINE",
"224 -160 LINE",
"263 -160 OFFCURVE",
"300 -160 OFFCURVE",
"337 -160 CURVE",
"430 -108 LINE",
"485 -10 LINE",
"485 33 OFFCURVE",
"485 75 OFFCURVE",
"485 118 CURVE",
"434 217 LINE",
"347 270 LINE"
);
}
);
width = 550;
}
);
note = five.tosf;
},
{
glyphname = six.tosf;
lastChange = "2020-07-29 06:27:51 +0000";
layers = (
{
layerId = "DA2C6654-D585-4A87-87E3-B198D23B8793";
paths = (
{
closed = 1;
nodes = (
"311 420 OFFCURVE",
"274 420 OFFCURVE",
"236 420 CURVE",
"206 387 OFFCURVE",
"214 417 OFFCURVE",
"261 510 CURVE SMOOTH",
"308 603 OFFCURVE",
"317 650 OFFCURVE",
"288 650 CURVE SMOOTH",
"259 650 OFFCURVE",
"237 634 OFFCURVE",
"222 601 CURVE SMOOTH",
"93 329 LINE",
"88 317 OFFCURVE",
"78 290 OFFCURVE",
"62 249 CURVE",
"62 215 OFFCURVE",
"62 177 OFFCURVE",
"62 135 CURVE",
"118 41 LINE",
"214 -10 LINE",
"253 -10 OFFCURVE",
"292 -10 OFFCURVE",
"331 -10 CURVE",
"430 43 LINE",
"488 143 LINE",
"488 187 OFFCURVE",
"488 230 OFFCURVE",
"488 272 CURVE",
"435 368 LINE",
"346 420 LINE"
);
},
{
closed = 1;
nodes = (
"408 229 OFFCURVE",
"408 186 OFFCURVE",
"408 143 CURVE",
"329 67 LINE",
"291 67 OFFCURVE",
"254 67 OFFCURVE",
"217 67 CURVE",
"142 138 LINE",
"142 179 OFFCURVE",
"142 220 OFFCURVE",
"142 261 CURVE",
"217 343 LINE",
"258 343 OFFCURVE",
"297 343 OFFCURVE",
"334 343 CURVE",
"408 270 LINE"
);
}
);
width = 550;
}
);
note = six.tosf;
},
{
glyphname = nine.tosf;
lastChange = "2020-07-29 06:27:51 +0000";
layers = (
{
layerId = "DA2C6654-D585-4A87-87E3-B198D23B8793";
paths = (
{
closed = 1;
nodes = (
"297 510 OFFCURVE",
"258 510 OFFCURVE",
"219 510 CURVE",
"120 457 LINE",
"62 358 LINE",
"62 314 OFFCURVE",
"62 271 OFFCURVE",
"62 229 CURVE",
"116 133 LINE",
"206 80 LINE",
"240 80 OFFCURVE",
"276 80 OFFCURVE",
"314 80 CURVE",
"344 113 OFFCURVE",
"336 83 OFFCURVE",
"289 -10 CURVE SMOOTH",
"242 -103 OFFCURVE",
"233 -150 OFFCURVE",
"262 -150 CURVE SMOOTH",
"291 -150 OFFCURVE",
"313 -134 OFFCURVE",
"328 -101 CURVE SMOOTH",
"457 171 LINE",
"462 183 OFFCURVE",
"472 210 OFFCURVE",
"488 251 CURVE",
"488 285 OFFCURVE",
"488 323 OFFCURVE",
"488 365 CURVE",
"432 459 LINE",
"336 510 LINE"
);
},
{
closed = 1;
nodes = (
"292 157 OFFCURVE",
"253 157 OFFCURVE",
"216 157 CURVE",
"142 230 LINE",
"142 271 OFFCURVE",
"142 314 OFFCURVE",
"142 357 CURVE",
"221 433 LINE",
"259 433 OFFCURVE",
"296 433 OFFCURVE",
"333 433 CURVE",
"408 362 LINE",
"408 321 OFFCURVE",
"408 280 OFFCURVE",
"408 239 CURVE",
"333 157 LINE"
);
}
);
width = 550;
}
);
note = nine.tosf;
},
{
glyphname = zero.dnom;
lastChange = "2020-07-29 06:27:51 +0000";
layers = (
{
layerId = "DA2C6654-D585-4A87-87E3-B198D23B8793";
paths = (
{
closed = 1;
nodes = (
"299 394 OFFCURVE",
"251 394 OFFCURVE",
"204 394 CURVE",
"124 281 LINE",
"124 222 OFFCURVE",
"124 162 OFFCURVE",
"124 103 CURVE",
"204 -10 LINE",
"251 -10 OFFCURVE",
"299 -10 OFFCURVE",
"346 -10 CURVE",
"426 103 LINE",
"426 162 OFFCURVE",
"426 222 OFFCURVE",
"426 281 CURVE",
"346 394 LINE"
);
},
{
closed = 1;
nodes = (
"288 69 OFFCURVE",
"262 69 OFFCURVE",
"236 69 CURVE",
"193 135 LINE",
"193 173 OFFCURVE",
"193 211 OFFCURVE",
"193 249 CURVE",
"236 315 LINE",
"262 315 OFFCURVE",
"288 315 OFFCURVE",
"314 315 CURVE",
"357 249 LINE",
"357 211 OFFCURVE",
"357 173 OFFCURVE",
"357 135 CURVE",
"314 69 LINE"
);
}
);
width = 550;
}
);
note = zero.dnom;
},
{
glyphname = one.dnom;
lastChange = "2020-07-29 06:27:51 +0000";
layers = (
{
layerId = "DA2C6654-D585-4A87-87E3-B198D23B8793";
paths = (
{
closed = 1;
nodes = (
"331 65 OFFCURVE",
"319 119 OFFCURVE",
"319 228 CURVE SMOOTH",
"319 336 OFFCURVE",
"293 390 OFFCURVE",
"242 390 CURVE SMOOTH",
"190 390 OFFCURVE",
"164 379 OFFCURVE",
"164 357 CURVE SMOOTH",
"164 335 OFFCURVE",
"177 324 OFFCURVE",
"204 324 CURVE SMOOTH",
"231 324 OFFCURVE",
"244 281 OFFCURVE",
"244 195 CURVE SMOOTH",
"244 108 OFFCURVE",
"230 65 OFFCURVE",
"201 65 CURVE SMOOTH",
"172 65 OFFCURVE",
"158 54 OFFCURVE",
"158 33 CURVE SMOOTH",
"158 11 OFFCURVE",
"197 0 OFFCURVE",
"275 0 CURVE SMOOTH",
"353 0 OFFCURVE",
"392 11 OFFCURVE",
"392 33 CURVE SMOOTH",
"392 54 OFFCURVE",
"380 65 OFFCURVE",
"356 65 CURVE SMOOTH"
);
}
);
width = 550;
}
);
note = one.dnom;
},
{
glyphname = two.dnom;
lastChange = "2020-07-29 06:27:51 +0000";
layers = (
{
layerId = "DA2C6654-D585-4A87-87E3-B198D23B8793";
paths = (
{
closed = 1;
nodes = (
"156 11 OFFCURVE",
"196 0 OFFCURVE",
"275 0 CURVE SMOOTH",
"354 0 OFFCURVE",
"394 11 OFFCURVE",
"394 33 CURVE SMOOTH",
"394 54 OFFCURVE",
"368 65 OFFCURVE",
"315 65 CURVE SMOOTH",
"262 65 OFFCURVE",
"241 71 OFFCURVE",
"254 84 CURVE",
"266 97 OFFCURVE",
"290 122 OFFCURVE",
"326 159 CURVE",
"384 244 LINE",
"384 275 OFFCURVE",
"384 307 OFFCURVE",
"384 339 CURVE",
"323 398 LINE",
"288 398 OFFCURVE",
"254 398 OFFCURVE",
"219 398 CURVE",
"152 336 LINE",
"155 306 OFFCURVE",
"167 291 OFFCURVE",
"188 291 CURVE SMOOTH",
"209 291 OFFCURVE",
"219 296 OFFCURVE",
"219 306 CURVE",
"243 333 LINE",
"259 333 OFFCURVE",
"283 333 OFFCURVE",
"316 333 CURVE",
"316 298 OFFCURVE",
"316 269 OFFCURVE",
"316 246 CURVE",
"239 151 LINE",
"184 94 OFFCURVE",
"156 54 OFFCURVE",
"156 33 CURVE SMOOTH"
);
}
);
width = 550;
}
);
note = two.dnom;
},
{
glyphname = three.dnom;
lastChange = "2020-07-29 06:27:51 +0000";
layers = (
{
layerId = "DA2C6654-D585-4A87-87E3-B198D23B8793";
paths = (
{
closed = 1;
nodes = (
"307 203 OFFCURVE",
"324 209 OFFCURVE",
"389 216 CURVE",
"389 269 OFFCURVE",
"389 305 OFFCURVE",
"389 322 CURVE",
"359 368 LINE",
"306 397 LINE",
"284 397 OFFCURVE",
"262 397 OFFCURVE",
"239 397 CURVE",
"185 367 LINE",
"159 316 LINE",
"161 296 OFFCURVE",
"172 286 OFFCURVE",
"192 286 CURVE SMOOTH",
"212 286 OFFCURVE",
"222 293 OFFCURVE",
"222 306 CURVE",
"251 332 LINE",
"266 332 OFFCURVE",
"280 332 OFFCURVE",
"295 332 CURVE",
"323 306 LINE",
"323 293 OFFCURVE",
"323 268 OFFCURVE",
"323 233 CURVE",
"279 233 OFFCURVE",
"253 233 OFFCURVE",
"246 233 CURVE SMOOTH",
"239 233 OFFCURVE",
"235 223 OFFCURVE",
"235 203 CURVE SMOOTH",
"235 182 OFFCURVE",
"239 172 OFFCURVE",
"246 172 CURVE SMOOTH",
"253 172 OFFCURVE",
"269 172 OFFCURVE",
"292 172 CURVE",
"329 140 LINE",
"329 122 OFFCURVE",
"329 94 OFFCURVE",
"329 56 CURVE",
"294 56 OFFCURVE",
"267 56 OFFCURVE",
"248 56 CURVE",
"217 86 LINE",
"217 102 OFFCURVE",
"207 110 OFFCURVE",
"187 110 CURVE SMOOTH",
"166 110 OFFCURVE",
"155 100 OFFCURVE",
"153 79 CURVE",
"182 23 LINE",
"240 -10 LINE",
"265 -10 OFFCURVE",
"294 -10 OFFCURVE",
"329 -10 CURVE",
"394 59 LINE",
"394 93 OFFCURVE",
"394 124 OFFCURVE",
"394 152 CURVE",
"340 200 LINE"
);
}
);
width = 550;
}
);
note = three.dnom;
},
{
glyphname = four.dnom;
lastChange = "2020-07-29 06:27:51 +0000";
layers = (
{
layerId = "DA2C6654-D585-4A87-87E3-B198D23B8793";
paths = (
{
closed = 1;
nodes = (
"407 130 OFFCURVE",
"400 141 OFFCURVE",
"387 141 CURVE SMOOTH",
"374 141 OFFCURVE",
"367 183 OFFCURVE",
"367 266 CURVE SMOOTH",
"367 349 OFFCURVE",
"356 390 OFFCURVE",
"334 390 CURVE SMOOTH",
"289 390 OFFCURVE",
"143 146 OFFCURVE",
"143 106 CURVE SMOOTH",
"143 86 OFFCURVE",
"169 76 OFFCURVE",
"221 76 CURVE SMOOTH",
"273 76 OFFCURVE",
"299 63 OFFCURVE",
"299 38 CURVE SMOOTH",
"299 13 OFFCURVE",
"310 0 OFFCURVE",
"333 0 CURVE SMOOTH",
"356 0 OFFCURVE",
"367 13 OFFCURVE",
"367 38 CURVE SMOOTH",
"367 63 OFFCURVE",
"374 76 OFFCURVE",
"387 76 CURVE SMOOTH",
"400 76 OFFCURVE",
"407 87 OFFCURVE",
"407 109 CURVE SMOOTH"
);
},
{
closed = 1;
nodes = (
"232 141 OFFCURVE",
"232 164 OFFCURVE",
"259 211 CURVE SMOOTH",
"286 257 OFFCURVE",
"299 257 OFFCURVE",
"299 211 CURVE SMOOTH",
"299 164 OFFCURVE",
"286 141 OFFCURVE",
"259 141 CURVE SMOOTH"
);
}
);
width = 550;
}
);
note = four.dnom;
},
{
glyphname = five.dnom;
lastChange = "2020-07-29 06:27:51 +0000";
layers = (
{
layerId = "DA2C6654-D585-4A87-87E3-B198D23B8793";
paths = (
{
closed = 1;
nodes = (
"307 260 OFFCURVE",
"274 260 OFFCURVE",
"243 260 CURVE",
"228 235 OFFCURVE",
"221 240 OFFCURVE",
"224 275 CURVE SMOOTH",
"227 309 OFFCURVE",
"252 326 OFFCURVE",
"301 326 CURVE SMOOTH",
"350 326 OFFCURVE",
"374 337 OFFCURVE",
"374 358 CURVE SMOOTH",
"374 379 OFFCURVE",
"340 390 OFFCURVE",
"271 390 CURVE SMOOTH",
"134 390 OFFCURVE",
"144 169 OFFCURVE",
"185 160 CURVE SMOOTH",
"206 155 OFFCURVE",
"222 167 OFFCURVE",
"234 194 CURVE",
"266 194 OFFCURVE",
"291 194 OFFCURVE",
"310 194 CURVE",
"343 157 LINE",
"343 136 OFFCURVE",
"343 116 OFFCURVE",
"343 95 CURVE",
"308 59 LINE",
"289 59 OFFCURVE",
"269 59 OFFCURVE",
"249 59 CURVE",
"211 91 LINE",
"210 109 OFFCURVE",
"198 118 OFFCURVE",
"176 118 CURVE SMOOTH",
"154 118 OFFCURVE",
"144 99 OFFCURVE",
"147 60 CURVE",
"222 -10 LINE",
"260 -10 OFFCURVE",
"298 -10 OFFCURVE",
"335 -10 CURVE",
"408 66 LINE",
"408 106 OFFCURVE",
"408 146 OFFCURVE",
"408 185 CURVE",
"342 260 LINE"
);
}
);
width = 550;
}
);
note = five.dnom;
},
{
glyphname = six.dnom;
lastChange = "2020-07-29 06:27:51 +0000";
layers = (
{
layerId = "DA2C6654-D585-4A87-87E3-B198D23B8793";
paths = (
{
closed = 1;
nodes = (
"303 262 OFFCURVE",
"278 262 OFFCURVE",
"265 262 CURVE",
"256 255 OFFCURVE",
"264 275 OFFCURVE",
"289 321 CURVE SMOOTH",
"314 366 OFFCURVE",
"313 389 OFFCURVE",
"288 389 CURVE SMOOTH",
"263 389 OFFCURVE",
"246 380 OFFCURVE",
"238 363 CURVE SMOOTH",
"167 214 LINE",
"161 199 OFFCURVE",
"153 179 OFFCURVE",
"143 154 CURVE",
"143 131 OFFCURVE",
"143 108 OFFCURVE",
"143 85 CURVE",
"177 26 LINE",
"239 -10 LINE",
"265 -10 OFFCURVE",
"296 -10 OFFCURVE",
"333 -10 CURVE",
"407 66 LINE",
"407 105 OFFCURVE",
"407 144 OFFCURVE",
"407 183 CURVE",
"338 262 LINE"
);
},
{
closed = 1;
nodes = (
"288 57 OFFCURVE",
"268 57 OFFCURVE",
"247 57 CURVE",
"208 98 LINE",
"208 118 OFFCURVE",
"208 138 OFFCURVE",
"208 159 CURVE",
"246 199 LINE",
"266 199 OFFCURVE",
"286 199 OFFCURVE",
"306 199 CURVE",
"341 159 LINE",
"341 138 OFFCURVE",
"341 118 OFFCURVE",
"341 97 CURVE",
"307 57 LINE"
);
}
);
width = 550;
}
);
note = six.dnom;
},
{
glyphname = seven.dnom;
lastChange = "2020-07-29 06:27:51 +0000";
layers = (
{
layerId = "DA2C6654-D585-4A87-87E3-B198D23B8793";
paths = (
{
closed = 1;
nodes = (
"201 390 OFFCURVE",
"164 380 OFFCURVE",
"164 359 CURVE SMOOTH",
"164 338 OFFCURVE",
"190 327 OFFCURVE",
"241 327 CURVE SMOOTH",
"292 327 OFFCURVE",
"296 273 OFFCURVE",
"254 164 CURVE SMOOTH",
"211 55 OFFCURVE",
"201 0 OFFCURVE",
"223 0 CURVE SMOOTH",
"266 0 OFFCURVE",
"386 324 OFFCURVE",
"386 362 CURVE SMOOTH",
"386 381 OFFCURVE",
"349 390 OFFCURVE",
"275 390 CURVE SMOOTH"
);
}
);
width = 550;
}
);
note = seven.dnom;
},
{
glyphname = eight.dnom;
lastChange = "2020-07-29 06:27:51 +0000";
layers = (
{
layerId = "DA2C6654-D585-4A87-87E3-B198D23B8793";
paths = (
{
closed = 1;
nodes = (
"350 200 OFFCURVE",
"349 206 OFFCURVE",
"365 213 CURVE",
"391 256 LINE",
"391 275 OFFCURVE",
"391 301 OFFCURVE",
"391 333 CURVE",
"326 396 LINE",
"292 396 OFFCURVE",
"258 396 OFFCURVE",
"225 396 CURVE",
"159 333 LINE",
"159 301 OFFCURVE",
"159 275 OFFCURVE",
"159 255 CURVE",
"185 213 LINE",
"201 206 OFFCURVE",
"200 200 OFFCURVE",
"181 193 CURVE",
"151 144 LINE",
"151 121 OFFCURVE",
"151 92 OFFCURVE",
"151 57 CURVE",
"221 -10 LINE",
"257 -10 OFFCURVE",
"293 -10 OFFCURVE",
"329 -10 CURVE",
"400 57 LINE",
"400 92 OFFCURVE",
"400 121 OFFCURVE",
"400 143 CURVE",
"369 193 LINE"
);
},
{
closed = 1;
nodes = (
"268 330 OFFCURVE",
"282 330 OFFCURVE",
"297 330 CURVE",
"326 303 LINE",
"326 289 OFFCURVE",
"326 275 OFFCURVE",
"326 260 CURVE",
"297 233 LINE",
"282 233 OFFCURVE",
"268 233 OFFCURVE",
"254 233 CURVE",
"225 260 LINE",
"225 275 OFFCURVE",
"225 289 OFFCURVE",
"225 303 CURVE",
"253 330 LINE"
);
},
{
closed = 1;
nodes = (
"284 53 OFFCURVE",
"267 53 OFFCURVE",
"250 53 CURVE",
"217 85 LINE",
"217 102 OFFCURVE",
"217 119 OFFCURVE",
"217 136 CURVE",
"250 168 LINE",
"267 168 OFFCURVE",
"284 168 OFFCURVE",
"301 168 CURVE",
"334 136 LINE",
"334 119 OFFCURVE",
"334 102 OFFCURVE",
"334 85 CURVE",
"301 53 LINE"
);
}
);
width = 550;
}
);
note = eight.dnom;
},
{
glyphname = nine.dnom;
lastChange = "2020-07-29 06:27:51 +0000";
layers = (
{
layerId = "DA2C6654-D585-4A87-87E3-B198D23B8793";
paths = (
{
closed = 1;
nodes = (
"289 397 OFFCURVE",
"258 397 OFFCURVE",
"219 397 CURVE",
"143 322 LINE",
"143 282 OFFCURVE",
"143 243 OFFCURVE",
"143 204 CURVE",
"212 125 LINE",
"247 125 OFFCURVE",
"272 125 OFFCURVE",
"285 125 CURVE",
"294 132 OFFCURVE",
"286 113 OFFCURVE",
"261 68 CURVE SMOOTH",
"236 23 OFFCURVE",
"237 0 OFFCURVE",
"262 0 CURVE SMOOTH",
"287 0 OFFCURVE",
"304 8 OFFCURVE",
"312 25 CURVE SMOOTH",
"383 173 LINE",
"389 188 OFFCURVE",
"397 209 OFFCURVE",
"407 234 CURVE",
"407 256 OFFCURVE",
"407 278 OFFCURVE",
"407 301 CURVE",
"373 361 LINE",
"314 397 LINE"
);
},
{
closed = 1;
nodes = (
"284 188 OFFCURVE",
"264 188 OFFCURVE",
"245 188 CURVE",
"209 229 LINE",
"209 250 OFFCURVE",
"209 270 OFFCURVE",
"209 291 CURVE",
"244 330 LINE",
"264 330 OFFCURVE",
"284 330 OFFCURVE",
"304 330 CURVE",
"342 290 LINE",
"342 270 OFFCURVE",
"342 250 OFFCURVE",
"342 229 CURVE",
"304 188 LINE"
);
}
);
width = 550;
}
);
note = nine.dnom;
},
{
glyphname = one.numr;
lastChange = "2020-07-29 06:27:51 +0000";
layers = (
{
layerId = "DA2C6654-D585-4A87-87E3-B198D23B8793";
paths = (
{
closed = 1;
nodes = (
"331 325 OFFCURVE",
"319 379 OFFCURVE",
"319 488 CURVE SMOOTH",
"319 596 OFFCURVE",
"293 650 OFFCURVE",
"242 650 CURVE SMOOTH",
"190 650 OFFCURVE",
"164 639 OFFCURVE",
"164 617 CURVE SMOOTH",
"164 595 OFFCURVE",
"177 584 OFFCURVE",
"204 584 CURVE SMOOTH",
"231 584 OFFCURVE",
"244 541 OFFCURVE",
"244 455 CURVE SMOOTH",
"244 368 OFFCURVE",
"230 325 OFFCURVE",
"201 325 CURVE SMOOTH",
"172 325 OFFCURVE",
"158 314 OFFCURVE",
"158 293 CURVE SMOOTH",
"158 271 OFFCURVE",
"197 260 OFFCURVE",
"275 260 CURVE SMOOTH",
"353 260 OFFCURVE",
"392 271 OFFCURVE",
"392 293 CURVE SMOOTH",
"392 314 OFFCURVE",
"380 325 OFFCURVE",
"356 325 CURVE SMOOTH"
);
}
);
width = 550;
}
);
note = one.numr;
},
{
glyphname = two.numr;
lastChange = "2020-07-29 06:27:51 +0000";
layers = (
{
layerId = "DA2C6654-D585-4A87-87E3-B198D23B8793";
paths = (
{
closed = 1;
nodes = (
"156 271 OFFCURVE",
"196 260 OFFCURVE",
"275 260 CURVE SMOOTH",
"354 260 OFFCURVE",
"394 271 OFFCURVE",
"394 293 CURVE SMOOTH",
"394 314 OFFCURVE",
"368 325 OFFCURVE",
"315 325 CURVE SMOOTH",
"262 325 OFFCURVE",
"241 331 OFFCURVE",
"254 344 CURVE",
"266 357 OFFCURVE",
"290 382 OFFCURVE",
"326 419 CURVE",
"384 504 LINE",
"384 535 OFFCURVE",
"384 567 OFFCURVE",
"384 599 CURVE",
"323 658 LINE",
"288 658 OFFCURVE",
"254 658 OFFCURVE",
"219 658 CURVE",
"152 596 LINE",
"155 566 OFFCURVE",
"167 551 OFFCURVE",
"188 551 CURVE SMOOTH",
"209 551 OFFCURVE",
"219 556 OFFCURVE",
"219 566 CURVE",
"243 593 LINE",
"259 593 OFFCURVE",
"283 593 OFFCURVE",
"316 593 CURVE",
"316 558 OFFCURVE",
"316 529 OFFCURVE",
"316 506 CURVE",
"239 411 LINE",
"184 354 OFFCURVE",
"156 314 OFFCURVE",
"156 293 CURVE SMOOTH"
);
}
);
width = 550;
}
);
note = two.numr;
},
{
glyphname = three.numr;
lastChange = "2020-07-29 06:27:51 +0000";
layers = (
{
layerId = "DA2C6654-D585-4A87-87E3-B198D23B8793";
paths = (
{
closed = 1;
nodes = (
"307 463 OFFCURVE",
"324 469 OFFCURVE",
"389 476 CURVE",
"389 529 OFFCURVE",
"389 565 OFFCURVE",
"389 582 CURVE",
"359 628 LINE",
"306 657 LINE",
"284 657 OFFCURVE",
"262 657 OFFCURVE",
"239 657 CURVE",
"185 627 LINE",
"159 576 LINE",
"161 556 OFFCURVE",
"172 546 OFFCURVE",
"192 546 CURVE SMOOTH",
"212 546 OFFCURVE",
"222 553 OFFCURVE",
"222 566 CURVE",
"251 592 LINE",
"266 592 OFFCURVE",
"280 592 OFFCURVE",
"295 592 CURVE",
"323 566 LINE",
"323 553 OFFCURVE",
"323 528 OFFCURVE",
"323 493 CURVE",
"279 493 OFFCURVE",
"253 493 OFFCURVE",
"246 493 CURVE SMOOTH",
"239 493 OFFCURVE",
"235 483 OFFCURVE",
"235 463 CURVE SMOOTH",
"235 442 OFFCURVE",
"239 432 OFFCURVE",
"246 432 CURVE SMOOTH",
"253 432 OFFCURVE",
"269 432 OFFCURVE",
"292 432 CURVE",
"329 400 LINE",
"329 382 OFFCURVE",
"329 354 OFFCURVE",
"329 316 CURVE",
"294 316 OFFCURVE",
"267 316 OFFCURVE",
"248 316 CURVE",
"217 346 LINE",
"217 362 OFFCURVE",
"207 370 OFFCURVE",
"187 370 CURVE SMOOTH",
"166 370 OFFCURVE",
"155 360 OFFCURVE",
"153 339 CURVE",
"182 283 LINE",
"240 250 LINE",
"265 250 OFFCURVE",
"294 250 OFFCURVE",
"329 250 CURVE",
"394 319 LINE",
"394 353 OFFCURVE",
"394 384 OFFCURVE",
"394 412 CURVE",
"340 460 LINE"
);
}
);
width = 550;
}
);
note = three.numr;
},
{
glyphname = fraction;
lastChange = "2020-07-29 06:27:51 +0000";
layers = (
{
layerId = "DA2C6654-D585-4A87-87E3-B198D23B8793";
paths = (
{
closed = 1;
nodes = (
"363 726 OFFCURVE",
"109 -17 OFFCURVE",
"147 -32 CURVE SMOOTH",
"185 -47 OFFCURVE",
"442 700 OFFCURVE",
"403 713 CURVE SMOOTH"
);
}
);
width = 550;
}
);
note = fraction;
unicode = 2044;
},
{
glyphname = asterisk;
lastChange = "2020-07-29 06:27:51 +0000";
layers = (
{
layerId = "DA2C6654-D585-4A87-87E3-B198D23B8793";
paths = (
{
closed = 1;
nodes = (
"458 567 OFFCURVE",
"436 634 OFFCURVE",
"364 611 CURVE SMOOTH",
"328 599 OFFCURVE",
"310 613 OFFCURVE",
"310 652 CURVE SMOOTH",
"310 691 OFFCURVE",
"298 710 OFFCURVE",
"275 710 CURVE SMOOTH",
"252 710 OFFCURVE",
"240 690 OFFCURVE",
"240 651 CURVE SMOOTH",
"240 611 OFFCURVE",
"222 597 OFFCURVE",
"186 609 CURVE SMOOTH",
"114 632 OFFCURVE",
"93 565 OFFCURVE",
"161 542 CURVE SMOOTH",
"195 531 OFFCURVE",
"200 509 OFFCURVE",
"177 477 CURVE SMOOTH",
"130 412 OFFCURVE",
"187 369 OFFCURVE",
"237 438 CURVE SMOOTH",
"262 473 OFFCURVE",
"287 473 OFFCURVE",
"312 438 CURVE SMOOTH",
"363 369 OFFCURVE",
"419 412 OFFCURVE",
"371 478 CURVE SMOOTH",
"347 511 OFFCURVE",
"353 533 OFFCURVE",
"388 544 CURVE SMOOTH"
);
}
);
width = 550;
}
);
note = asterisk;
unicode = 002A;
},
{
glyphname = periodcentered;
lastChange = "2020-07-29 06:27:51 +0000";
layers = (
{
layerId = "DA2C6654-D585-4A87-87E3-B198D23B8793";
paths = (
{
closed = 1;
nodes = (
"327 306 OFFCURVE",
"310 322 OFFCURVE",
"275 322 CURVE SMOOTH",
"240 322 OFFCURVE",
"223 306 OFFCURVE",
"223 273 CURVE SMOOTH",
"223 240 OFFCURVE",
"240 224 OFFCURVE",
"275 224 CURVE SMOOTH",
"310 224 OFFCURVE",
"327 240 OFFCURVE",
"327 273 CURVE SMOOTH"
);
}
);
width = 550;
}
);
note = periodcentered;
unicode = 00B7;
},
{
glyphname = bullet;
lastChange = "2020-07-29 06:27:51 +0000";
layers = (
{
layerId = "DA2C6654-D585-4A87-87E3-B198D23B8793";
paths = (
{
closed = 1;
nodes = (
"193 385 OFFCURVE",
"152 344 OFFCURVE",
"152 262 CURVE SMOOTH",
"152 180 OFFCURVE",
"193 139 OFFCURVE",
"275 139 CURVE SMOOTH",
"357 139 OFFCURVE",
"398 180 OFFCURVE",
"398 262 CURVE SMOOTH",
"398 344 OFFCURVE",
"357 385 OFFCURVE",
"275 385 CURVE SMOOTH"
);
}
);
width = 550;
}
);
note = bullet;
unicode = 2022;
},
{
glyphname = comma;
lastChange = "2020-07-29 06:27:51 +0000";
layers = (
{
layerId = "DA2C6654-D585-4A87-87E3-B198D23B8793";
paths = (
{
closed = 1;
nodes = (
"238 -103 OFFCURVE",
"254 -102 OFFCURVE",
"283 -92 CURVE",
"329 -28 LINE",
"329 11 OFFCURVE",
"329 41 OFFCURVE",
"329 64 CURVE SMOOTH",
"329 86 OFFCURVE",
"311 97 OFFCURVE",
"275 97 CURVE SMOOTH",
"239 97 OFFCURVE",
"221 81 OFFCURVE",
"221 49 CURVE SMOOTH",
"221 16 OFFCURVE",
"229 -2 OFFCURVE",
"246 -5 CURVE",
"262 -9 OFFCURVE",
"270 -18 OFFCURVE",
"270 -32 CURVE",
"251 -65 LINE",
"232 -83 LINE",
"230 -84 OFFCURVE",
"231 -89 OFFCURVE",
"235 -96 CURVE"
);
}
);
width = 550;
}
);
note = comma;
unicode = 002C;
},
{
glyphname = exclam;
lastChange = "2020-07-29 06:27:51 +0000";
layers = (
{
layerId = "DA2C6654-D585-4A87-87E3-B198D23B8793";
paths = (
{
closed = 1;
nodes = (
"249 650 OFFCURVE",
"236 575 OFFCURVE",
"236 426 CURVE SMOOTH",
"236 276 OFFCURVE",
"249 201 OFFCURVE",
"275 201 CURVE SMOOTH",
"301 201 OFFCURVE",
"314 276 OFFCURVE",
"314 426 CURVE SMOOTH",
"314 575 OFFCURVE",
"301 650 OFFCURVE",
"275 650 CURVE SMOOTH"
);
},
{
closed = 1;
nodes = (
"327 82 OFFCURVE",
"310 98 OFFCURVE",
"275 98 CURVE SMOOTH",
"240 98 OFFCURVE",
"223 82 OFFCURVE",
"223 49 CURVE SMOOTH",
"223 16 OFFCURVE",
"240 0 OFFCURVE",
"275 0 CURVE SMOOTH",
"310 0 OFFCURVE",
"327 16 OFFCURVE",
"327 49 CURVE SMOOTH"
);
}
);
width = 550;
}
);
note = exclam;
unicode = 0021;
},
{
glyphname = numbersign;
lastChange = "2020-07-29 06:27:51 +0000";
layers = (
{
layerId = "DA2C6654-D585-4A87-87E3-B198D23B8793";
paths = (
{
closed = 1;
nodes = (
"492 404 OFFCURVE",
"510 415 OFFCURVE",
"510 437 CURVE SMOOTH",
"510 459 OFFCURVE",
"492 470 OFFCURVE",
"456 470 CURVE SMOOTH",
"420 470 OFFCURVE",
"402 497 OFFCURVE",
"402 550 CURVE SMOOTH",
"402 603 OFFCURVE",
"391 630 OFFCURVE",
"370 630 CURVE SMOOTH",
"349 630 OFFCURVE",
"338 603 OFFCURVE",
"338 550 CURVE SMOOTH",
"338 497 OFFCURVE",
"318 470 OFFCURVE",
"278 470 CURVE SMOOTH",
"238 470 OFFCURVE",
"218 497 OFFCURVE",
"218 550 CURVE SMOOTH",
"218 603 OFFCURVE",
"207 630 OFFCURVE",
"186 630 CURVE SMOOTH",
"165 630 OFFCURVE",
"154 603 OFFCURVE",
"154 550 CURVE SMOOTH",
"154 497 OFFCURVE",
"135 470 OFFCURVE",
"97 470 CURVE SMOOTH",
"59 470 OFFCURVE",
"40 459 OFFCURVE",
"40 437 CURVE SMOOTH",
"40 415 OFFCURVE",
"59 404 OFFCURVE",
"97 404 CURVE SMOOTH",
"135 404 OFFCURVE",
"154 378 OFFCURVE",
"154 325 CURVE SMOOTH",
"154 272 OFFCURVE",
"135 246 OFFCURVE",
"97 246 CURVE SMOOTH",
"59 246 OFFCURVE",
"40 235 OFFCURVE",
"40 213 CURVE SMOOTH",
"40 191 OFFCURVE",
"59 180 OFFCURVE",
"97 180 CURVE SMOOTH",
"135 180 OFFCURVE",
"154 153 OFFCURVE",
"154 100 CURVE SMOOTH",
"154 47 OFFCURVE",
"165 20 OFFCURVE",
"186 20 CURVE SMOOTH",
"207 20 OFFCURVE",
"218 47 OFFCURVE",
"218 100 CURVE SMOOTH",
"218 153 OFFCURVE",
"238 180 OFFCURVE",
"278 180 CURVE SMOOTH",
"318 180 OFFCURVE",
"338 153 OFFCURVE",
"338 100 CURVE SMOOTH",
"338 47 OFFCURVE",
"349 20 OFFCURVE",
"370 20 CURVE SMOOTH",
"391 20 OFFCURVE",
"402 47 OFFCURVE",
"402 100 CURVE SMOOTH",
"402 153 OFFCURVE",
"420 180 OFFCURVE",
"456 180 CURVE SMOOTH",
"492 180 OFFCURVE",
"510 191 OFFCURVE",
"510 213 CURVE SMOOTH",
"510 235 OFFCURVE",
"492 246 OFFCURVE",
"456 246 CURVE SMOOTH",
"420 246 OFFCURVE",
"402 272 OFFCURVE",
"402 325 CURVE SMOOTH",
"402 378 OFFCURVE",
"420 404 OFFCURVE",
"456 404 CURVE SMOOTH"
);
},
{
closed = 1;
nodes = (
"338 272 OFFCURVE",
"318 246 OFFCURVE",
"278 246 CURVE SMOOTH",
"238 246 OFFCURVE",
"218 272 OFFCURVE",
"218 325 CURVE SMOOTH",
"218 378 OFFCURVE",
"238 404 OFFCURVE",
"278 404 CURVE SMOOTH",
"318 404 OFFCURVE",
"338 378 OFFCURVE",
"338 325 CURVE SMOOTH"
);
}
);
width = 550;
}
);
note = numbersign;
unicode = 0023;
},
{
glyphname = period;
lastChange = "2020-07-29 06:27:51 +0000";
layers = (
{
layerId = "DA2C6654-D585-4A87-87E3-B198D23B8793";
paths = (
{
closed = 1;
nodes = (
"327 82 OFFCURVE",
"310 98 OFFCURVE",
"275 98 CURVE SMOOTH",
"240 98 OFFCURVE",
"223 82 OFFCURVE",
"223 49 CURVE SMOOTH",
"223 16 OFFCURVE",
"240 0 OFFCURVE",
"275 0 CURVE SMOOTH",
"310 0 OFFCURVE",
"327 16 OFFCURVE",
"327 49 CURVE SMOOTH"
);
}
);
width = 550;
}
);
note = period;
unicode = 002E;
},
{
glyphname = question;
lastChange = "2020-07-29 06:27:51 +0000";
layers = (
{
layerId = "DA2C6654-D585-4A87-87E3-B198D23B8793";
paths = (
{
closed = 1;
nodes = (
"295 660 OFFCURVE",
"257 660 OFFCURVE",
"220 660 CURVE",
"130 613 LINE",
"79 533 LINE",
"79 500 OFFCURVE",
"92 484 OFFCURVE",
"119 484 CURVE SMOOTH",
"146 484 OFFCURVE",
"159 499 OFFCURVE",
"159 529 CURVE",
"223 585 LINE",
"258 585 OFFCURVE",
"293 585 OFFCURVE",
"330 585 CURVE",
"391 530 LINE",
"391 499 OFFCURVE",
"391 468 OFFCURVE",
"391 437 CURVE",
"323 374 LINE",
"285 374 OFFCURVE",
"259 374 OFFCURVE",
"244 374 CURVE SMOOTH",
"229 374 OFFCURVE",
"222 345 OFFCURVE",
"222 288 CURVE SMOOTH",
"222 230 OFFCURVE",
"235 201 OFFCURVE",
"262 201 CURVE SMOOTH",
"289 201 OFFCURVE",
"302 218 OFFCURVE",
"302 251 CURVE SMOOTH",
"302 284 OFFCURVE",
"328 304 OFFCURVE",
"380 310 CURVE",
"471 405 LINE",
"471 458 OFFCURVE",
"471 501 OFFCURVE",
"471 534 CURVE",
"423 614 LINE",
"335 660 LINE"
);
},
{
closed = 1;
nodes = (
"209 16 OFFCURVE",
"226 0 OFFCURVE",
"261 0 CURVE SMOOTH",
"295 0 OFFCURVE",
"312 16 OFFCURVE",
"312 49 CURVE SMOOTH",
"312 82 OFFCURVE",
"295 98 OFFCURVE",
"261 98 CURVE SMOOTH",
"226 98 OFFCURVE",
"209 82 OFFCURVE",
"209 49 CURVE SMOOTH"
);
}
);
width = 550;
}
);
note = question;
unicode = 003F;
},
{
glyphname = quotedbl;
lastChange = "2020-07-29 06:27:51 +0000";
layers = (
{
layerId = "DA2C6654-D585-4A87-87E3-B198D23B8793";
paths = (
{
closed = 1;
nodes = (
"228 436 OFFCURVE",
"249 537 OFFCURVE",
"249 602 CURVE SMOOTH",
"249 634 OFFCURVE",
"233 650 OFFCURVE",
"200 650 CURVE SMOOTH",
"167 650 OFFCURVE",
"151 634 OFFCURVE",
"151 602 CURVE SMOOTH",
"151 537 OFFCURVE",
"173 436 OFFCURVE",
"201 436 CURVE SMOOTH"
);
},
{
closed = 1;
nodes = (
"378 436 OFFCURVE",
"399 537 OFFCURVE",
"399 602 CURVE SMOOTH",
"399 634 OFFCURVE",
"383 650 OFFCURVE",
"350 650 CURVE SMOOTH",
"317 650 OFFCURVE",
"301 634 OFFCURVE",
"301 602 CURVE SMOOTH",
"301 537 OFFCURVE",
"323 436 OFFCURVE",
"351 436 CURVE SMOOTH"
);
}
);
width = 550;
}
);
note = quotedbl;
unicode = 0022;
},
{
glyphname = quotesingle;
lastChange = "2020-07-29 06:27:51 +0000";
layers = (
{
layerId = "DA2C6654-D585-4A87-87E3-B198D23B8793";
paths = (
{
closed = 1;
nodes = (
"309 485 OFFCURVE",
"329 513 OFFCURVE",
"329 602 CURVE SMOOTH",
"329 639 OFFCURVE",
"311 650 OFFCURVE",
"275 650 CURVE SMOOTH",
"239 650 OFFCURVE",
"221 634 OFFCURVE",
"221 602 CURVE SMOOTH",
"221 513 OFFCURVE",
"235 485 OFFCURVE",
"256 456 CURVE",
"256 456 OFFCURVE",
"270 456 OFFCURVE",
"288 456 CURVE"
);
}
);
width = 550;
}
);
note = quotesingle;
unicode = 0027;
},
{
glyphname = slash;
lastChange = "2020-07-29 06:27:51 +0000";
layers = (
{
layerId = "DA2C6654-D585-4A87-87E3-B198D23B8793";
paths = (
{
closed = 1;
nodes = (
"441 703 OFFCURVE",
"22 -22 OFFCURVE",
"66 -47 CURVE SMOOTH",
"109 -72 OFFCURVE",
"528 654 OFFCURVE",
"485 679 CURVE SMOOTH"
);
}
);
width = 550;
}
);
note = slash;
unicode = 002F;
},
{
glyphname = underscore;
lastChange = "2020-07-29 06:27:51 +0000";
layers = (
{
layerId = "DA2C6654-D585-4A87-87E3-B198D23B8793";
paths = (
{
closed = 1;
nodes = (
"118 -123 OFFCURVE",
"40 -136 OFFCURVE",
"40 -161 CURVE SMOOTH",
"40 -187 OFFCURVE",
"118 -200 OFFCURVE",
"275 -200 CURVE SMOOTH",
"432 -200 OFFCURVE",
"510 -187 OFFCURVE",
"510 -161 CURVE SMOOTH",
"510 -136 OFFCURVE",
"432 -123 OFFCURVE",
"275 -123 CURVE SMOOTH"
);
}
);
width = 550;
}
);
note = underscore;
unicode = 005F;
},
{
glyphname = braceleft;
lastChange = "2020-07-29 06:27:51 +0000";
layers = (
{
layerId = "DA2C6654-D585-4A87-87E3-B198D23B8793";
paths = (
{
closed = 1;
nodes = (
"411 787 OFFCURVE",
"372 800 OFFCURVE",
"295 800 CURVE SMOOTH",
"217 800 OFFCURVE",
"177 794 OFFCURVE",
"175 781 CURVE",
"175 768 OFFCURVE",
"175 746 OFFCURVE",
"175 717 CURVE",
"200 625 LINE",
"215 582 OFFCURVE",
"228 547 OFFCURVE",
"238 519 CURVE",
"253 469 LINE",
"253 457 OFFCURVE",
"253 436 OFFCURVE",
"253 405 CURVE",
"184 351 LINE",
"140 351 OFFCURVE",
"118 338 OFFCURVE",
"118 311 CURVE SMOOTH",
"118 284 OFFCURVE",
"140 271 OFFCURVE",
"184 271 CURVE",
"253 217 LINE",
"253 186 OFFCURVE",
"253 165 OFFCURVE",
"253 153 CURVE",
"238 103 LINE",
"228 75 OFFCURVE",
"215 40 OFFCURVE",
"200 -3 CURVE",
"175 -95 LINE",
"175 -124 OFFCURVE",
"175 -146 OFFCURVE",
"175 -159 CURVE",
"177 -172 OFFCURVE",
"217 -178 OFFCURVE",
"295 -178 CURVE SMOOTH",
"372 -178 OFFCURVE",
"411 -165 OFFCURVE",
"411 -138 CURVE SMOOTH",
"411 -111 OFFCURVE",
"387 -98 OFFCURVE",
"339 -98 CURVE SMOOTH",
"291 -98 OFFCURVE",
"267 -89 OFFCURVE",
"267 -70 CURVE",
"283 -11 LINE",
"294 22 OFFCURVE",
"305 53 OFFCURVE",
"316 82 CURVE",
"333 144 LINE",
"333 162 OFFCURVE",
"333 208 OFFCURVE",
"333 281 CURVE",
"253 301 OFFCURVE",
"253 321 OFFCURVE",
"333 341 CURVE",
"333 414 OFFCURVE",
"333 460 OFFCURVE",
"333 478 CURVE",
"316 540 LINE",
"305 569 OFFCURVE",
"294 600 OFFCURVE",
"283 633 CURVE",
"267 692 LINE",
"267 711 OFFCURVE",
"291 720 OFFCURVE",
"339 720 CURVE SMOOTH",
"387 720 OFFCURVE",
"411 733 OFFCURVE",
"411 760 CURVE SMOOTH"
);
}
);
width = 550;
}
);
note = braceleft;
unicode = 007B;
},
{
glyphname = bracketleft;
lastChange = "2020-07-29 06:27:51 +0000";
layers = (
{
layerId = "DA2C6654-D585-4A87-87E3-B198D23B8793";
paths = (
{
closed = 1;
nodes = (
"455 -111 OFFCURVE",
"424 -98 OFFCURVE",
"362 -98 CURVE SMOOTH",
"299 -98 OFFCURVE",
"268 38 OFFCURVE",
"268 311 CURVE SMOOTH",
"268 584 OFFCURVE",
"299 720 OFFCURVE",
"362 720 CURVE SMOOTH",
"424 720 OFFCURVE",
"455 733 OFFCURVE",
"455 760 CURVE SMOOTH",
"455 787 OFFCURVE",
"411 800 OFFCURVE",
"322 800 CURVE SMOOTH",
"233 800 OFFCURVE",
"188 637 OFFCURVE",
"188 311 CURVE SMOOTH",
"188 -15 OFFCURVE",
"233 -178 OFFCURVE",
"322 -178 CURVE SMOOTH",
"411 -178 OFFCURVE",
"455 -165 OFFCURVE",
"455 -138 CURVE SMOOTH"
);
}
);
width = 550;
}
);
note = bracketleft;
unicode = 005B;
},
{
glyphname = bracketright;
lastChange = "2020-07-29 06:27:51 +0000";
layers = (
{
layerId = "DA2C6654-D585-4A87-87E3-B198D23B8793";
paths = (
{
closed = 1;
nodes = (
"95 733 OFFCURVE",
"126 720 OFFCURVE",
"189 720 CURVE SMOOTH",
"251 720 OFFCURVE",
"282 584 OFFCURVE",
"282 311 CURVE SMOOTH",
"282 38 OFFCURVE",
"251 -98 OFFCURVE",
"189 -98 CURVE SMOOTH",
"126 -98 OFFCURVE",
"95 -111 OFFCURVE",
"95 -138 CURVE SMOOTH",
"95 -165 OFFCURVE",
"140 -178 OFFCURVE",
"229 -178 CURVE SMOOTH",
"318 -178 OFFCURVE",
"362 -15 OFFCURVE",
"362 311 CURVE SMOOTH",
"362 637 OFFCURVE",
"318 800 OFFCURVE",
"229 800 CURVE SMOOTH",
"140 800 OFFCURVE",
"95 787 OFFCURVE",
"95 760 CURVE SMOOTH"
);
}
);
width = 550;
}
);
note = bracketright;
unicode = 005D;
},
{
glyphname = parenleft;
lastChange = "2020-07-29 06:27:51 +0000";
layers = (
{
layerId = "DA2C6654-D585-4A87-87E3-B198D23B8793";
paths = (
{
closed = 1;
nodes = (
"374 -94 OFFCURVE",
"383 -94 CURVE",
"308 14 LINE",
"248 179 LINE",
"248 250 OFFCURVE",
"248 322 OFFCURVE",
"248 393 CURVE",
"308 558 LINE",
"383 666 LINE",
"374 666 OFFCURVE",
"327 703 OFFCURVE",
"327 712 CURVE",
"239 590 LINE",
"168 404 LINE",
"168 325 OFFCURVE",
"168 247 OFFCURVE",
"168 168 CURVE",
"239 -18 LINE",
"327 -140 LINE",
"327 -129 OFFCURVE"
);
}
);
width = 550;
}
);
note = parenleft;
unicode = 0028;
},
{
glyphname = parenleft.case;
lastChange = "2020-07-29 06:27:51 +0000";
layers = (
{
layerId = "DA2C6654-D585-4A87-87E3-B198D23B8793";
paths = (
{
closed = 1;
nodes = (
"374 -54 OFFCURVE",
"383 -54 CURVE",
"308 54 LINE",
"248 219 LINE",
"248 290 OFFCURVE",
"248 362 OFFCURVE",
"248 433 CURVE",
"308 598 LINE",
"383 706 LINE",
"374 706 OFFCURVE",
"317 743 OFFCURVE",
"317 752 CURVE",
"234 630 LINE",
"168 444 LINE",
"168 365 OFFCURVE",
"168 287 OFFCURVE",
"168 208 CURVE",
"234 22 LINE",
"317 -100 LINE",
"317 -91 OFFCURVE"
);
}
);
width = 550;
}
);
note = parenleft.case;
},
{
glyphname = parenright.case;
lastChange = "2020-07-29 06:27:51 +0000";
layers = (
{
layerId = "DA2C6654-D585-4A87-87E3-B198D23B8793";
paths = (
{
closed = 1;
nodes = (
"177 -54 OFFCURVE",
"234 -91 OFFCURVE",
"234 -100 CURVE",
"317 22 LINE",
"383 208 LINE",
"383 287 OFFCURVE",
"383 365 OFFCURVE",
"383 444 CURVE",
"317 630 LINE",
"234 752 LINE",
"234 743 OFFCURVE",
"177 706 OFFCURVE",
"168 706 CURVE",
"243 598 LINE",
"303 433 LINE",
"303 362 OFFCURVE",
"303 290 OFFCURVE",
"303 219 CURVE",
"243 54 LINE",
"168 -54 LINE"
);
}
);
width = 550;
}
);
note = parenright.case;
},
{
glyphname = emdash;
lastChange = "2020-07-29 06:27:51 +0000";
layers = (
{
layerId = "DA2C6654-D585-4A87-87E3-B198D23B8793";
paths = (
{
closed = 1;
nodes = (
"118 310 OFFCURVE",
"40 297 OFFCURVE",
"40 272 CURVE SMOOTH",
"40 246 OFFCURVE",
"118 233 OFFCURVE",
"275 233 CURVE SMOOTH",
"432 233 OFFCURVE",
"510 246 OFFCURVE",
"510 272 CURVE SMOOTH",
"510 297 OFFCURVE",
"432 310 OFFCURVE",
"275 310 CURVE SMOOTH"
);
}
);
width = 550;
}
);
note = emdash;
unicode = 2014;
},
{
glyphname = endash;
lastChange = "2020-07-29 06:27:51 +0000";
layers = (
{
layerId = "DA2C6654-D585-4A87-87E3-B198D23B8793";
paths = (
{
closed = 1;
nodes = (
"142 309 OFFCURVE",
"75 296 OFFCURVE",
"75 271 CURVE SMOOTH",
"75 245 OFFCURVE",
"142 232 OFFCURVE",
"275 232 CURVE SMOOTH",
"408 232 OFFCURVE",
"475 245 OFFCURVE",
"475 271 CURVE SMOOTH",
"475 296 OFFCURVE",
"408 309 OFFCURVE",
"275 309 CURVE SMOOTH"
);
}
);
width = 550;
}
);
note = endash;
unicode = 2013;
},
{
glyphname = hyphen;
lastChange = "2020-07-29 06:27:51 +0000";
layers = (
{
layerId = "DA2C6654-D585-4A87-87E3-B198D23B8793";
paths = (
{
closed = 1;
nodes = (
"178 307 OFFCURVE",
"130 295 OFFCURVE",
"130 270 CURVE SMOOTH",
"130 245 OFFCURVE",
"178 233 OFFCURVE",
"275 233 CURVE SMOOTH",
"372 233 OFFCURVE",
"420 245 OFFCURVE",
"420 270 CURVE SMOOTH",
"420 295 OFFCURVE",
"372 307 OFFCURVE",
"275 307 CURVE SMOOTH"
);
}
);
width = 550;
}
);
note = hyphen;
unicode = 002D;
},
{
glyphname = guillemotleft;
lastChange = "2020-07-29 06:27:51 +0000";
layers = (
{
layerId = "DA2C6654-D585-4A87-87E3-B198D23B8793";
paths = (
{
closed = 1;
nodes = (
"320 415 OFFCURVE",
"336 451 OFFCURVE",
"318 470 CURVE",
"281 506 OFFCURVE",
"59 315 OFFCURVE",
"191 170 CURVE SMOOTH",
"323 25 OFFCURVE",
"370 89 OFFCURVE",
"271 198 CURVE SMOOTH",
"222 252 OFFCURVE",
"222 306 OFFCURVE",
"271 361 CURVE SMOOTH"
);
},
{
closed = 1;
nodes = (
"449 328 OFFCURVE",
"449 347 OFFCURVE",
"432 365 CURVE",
"396 400 OFFCURVE",
"286 298 OFFCURVE",
"354 223 CURVE SMOOTH",
"422 148 OFFCURVE",
"467 210 OFFCURVE",
"432 250 CURVE",
"414 269 OFFCURVE",
"414 289 OFFCURVE",
"432 309 CURVE SMOOTH"
);
}
);
width = 550;
}
);
note = guillemotleft;
unicode = 00AB;
},
{
glyphname = guilsinglleft;
lastChange = "2020-07-29 06:27:51 +0000";
layers = (
{
layerId = "DA2C6654-D585-4A87-87E3-B198D23B8793";
paths = (
{
closed = 1;
nodes = (
"358 415 OFFCURVE",
"374 451 OFFCURVE",
"356 470 CURVE",
"319 506 OFFCURVE",
"97 315 OFFCURVE",
"229 170 CURVE SMOOTH",
"361 25 OFFCURVE",
"408 89 OFFCURVE",
"309 198 CURVE SMOOTH",
"260 252 OFFCURVE",
"260 306 OFFCURVE",
"309 361 CURVE SMOOTH"
);
}
);
width = 550;
}
);
note = guilsinglleft;
unicode = 2039;
},
{
glyphname = quoteright;
lastChange = "2020-07-29 06:27:51 +0000";
layers = (
{
layerId = "DA2C6654-D585-4A87-87E3-B198D23B8793";
paths = (
{
closed = 1;
nodes = (
"238 450 OFFCURVE",
"254 451 OFFCURVE",
"283 460 CURVE",
"329 525 LINE",
"329 564 OFFCURVE",
"329 594 OFFCURVE",
"329 617 CURVE SMOOTH",
"329 639 OFFCURVE",
"311 650 OFFCURVE",
"275 650 CURVE SMOOTH",
"239 650 OFFCURVE",
"221 634 OFFCURVE",
"221 602 CURVE SMOOTH",
"221 569 OFFCURVE",
"229 551 OFFCURVE",
"246 548 CURVE",
"262 544 OFFCURVE",
"270 535 OFFCURVE",
"270 521 CURVE",
"251 488 LINE",
"232 470 LINE",
"230 469 OFFCURVE",
"231 464 OFFCURVE",
"235 457 CURVE"
);
}
);
width = 550;
}
);
note = quoteright;
unicode = 2019;
},
{
glyphname = cent;
lastChange = "2020-07-29 06:27:51 +0000";
layers = (
{
layerId = "DA2C6654-D585-4A87-87E3-B198D23B8793";
paths = (
{
closed = 1;
nodes = (
"303 67 OFFCURVE",
"283 67 OFFCURVE",
"280 67 CURVE SMOOTH",
"275 67 OFFCURVE",
"319 430 OFFCURVE",
"399 401 CURVE",
"417 342 OFFCURVE",
"438 313 OFFCURVE",
"463 313 CURVE SMOOTH",
"487 313 OFFCURVE",
"496 337 OFFCURVE",
"489 384 CURVE",
"412 482 LINE",
"373 494 OFFCURVE",
"356 516 OFFCURVE",
"361 547 CURVE SMOOTH",
"372 610 OFFCURVE",
"298 623 OFFCURVE",
"287 559 CURVE SMOOTH",
"281 526 OFFCURVE",
"257 509 OFFCURVE",
"215 508 CURVE",
"111 443 LINE",
"51 326 LINE",
"51 275 OFFCURVE",
"51 220 OFFCURVE",
"51 162 CURVE",
"127 37 LINE",
"169 18 OFFCURVE",
"187 -7 OFFCURVE",
"182 -38 CURVE SMOOTH",
"170 -102 OFFCURVE",
"244 -114 OFFCURVE",
"255 -54 CURVE SMOOTH",
"260 -24 OFFCURVE",
"265 -9 OFFCURVE",
"270 -10 CURVE",
"279 -10 OFFCURVE",
"313 -10 OFFCURVE",
"371 -10 CURVE",
"488 96 LINE",
"495 157 OFFCURVE",
"487 188 OFFCURVE",
"463 188 CURVE SMOOTH",
"439 188 OFFCURVE",
"421 168 OFFCURVE",
"409 128 CURVE",
"340 67 LINE"
);
},
{
closed = 1;
nodes = (
"131 231 OFFCURVE",
"131 275 OFFCURVE",
"131 327 CURVE",
"207 424 LINE",
"283 435 OFFCURVE",
"215 82 OFFCURVE",
"170 113 CURVE",
"131 194 LINE"
);
}
);
width = 550;
}
);
note = cent;
unicode = 00A2;
},
{
glyphname = currency;
lastChange = "2020-07-29 06:27:51 +0000";
layers = (
{
layerId = "DA2C6654-D585-4A87-87E3-B198D23B8793";
paths = (
{
closed = 1;
nodes = (
"459 291 OFFCURVE",
"459 329 OFFCURVE",
"459 367 CURVE",
"438 398 OFFCURVE",
"440 426 OFFCURVE",
"466 452 CURVE SMOOTH",
"518 503 OFFCURVE",
"468 553 OFFCURVE",
"417 502 CURVE SMOOTH",
"391 476 OFFCURVE",
"362 473 OFFCURVE",
"329 494 CURVE",
"293 494 OFFCURVE",
"256 494 OFFCURVE",
"218 494 CURVE",
"187 473 OFFCURVE",
"159 475 OFFCURVE",
"133 501 CURVE SMOOTH",
"81 553 OFFCURVE",
"32 503 OFFCURVE",
"84 452 CURVE SMOOTH",
"109 426 OFFCURVE",
"112 398 OFFCURVE",
"91 368 CURVE",
"91 329 OFFCURVE",
"91 291 OFFCURVE",
"91 252 CURVE",
"112 222 OFFCURVE",
"109 194 OFFCURVE",
"84 169 CURVE SMOOTH",
"32 117 OFFCURVE",
"81 67 OFFCURVE",
"133 119 CURVE SMOOTH",
"159 144 OFFCURVE",
"188 147 OFFCURVE",
"219 126 CURVE",
"256 126 OFFCURVE",
"293 126 OFFCURVE",
"329 126 CURVE",
"362 147 OFFCURVE",
"391 144 OFFCURVE",
"417 119 CURVE SMOOTH",
"468 67 OFFCURVE",
"518 117 OFFCURVE",
"466 169 CURVE SMOOTH",
"440 194 OFFCURVE",
"438 222 OFFCURVE",
"459 253 CURVE"
);
},
{
closed = 1;
nodes = (
"291 198 OFFCURVE",
"260 198 OFFCURVE",
"229 198 CURVE",
"163 264 LINE",
"163 295 OFFCURVE",
"163 326 OFFCURVE",
"163 357 CURVE",
"229 422 LINE",
"260 422 OFFCURVE",
"291 422 OFFCURVE",
"322 422 CURVE",
"387 357 LINE",
"387 326 OFFCURVE",
"387 295 OFFCURVE",
"387 264 CURVE",
"322 198 LINE"
);
}
);
width = 550;
}
);
note = currency;
unicode = 00A4;
},
{
glyphname = dollar;
lastChange = "2020-07-29 06:27:51 +0000";
layers = (
{
layerId = "DA2C6654-D585-4A87-87E3-B198D23B8793";
paths = (
{
closed = 1;
nodes = (
"325 346 OFFCURVE",
"270 356 OFFCURVE",
"223 365 CURVE",
"156 400 LINE",
"156 422 OFFCURVE",
"156 443 OFFCURVE",
"156 462 CURVE",
"208 496 LINE",
"241 496 OFFCURVE",
"295 496 OFFCURVE",
"371 496 CURVE",
"380 442 OFFCURVE",
"397 415 OFFCURVE",
"420 415 CURVE SMOOTH",
"443 415 OFFCURVE",
"454 433 OFFCURVE",
"453 469 CURVE",
"400 545 LINE",
"366 556 OFFCURVE",
"353 583 OFFCURVE",
"360 625 CURVE SMOOTH",
"375 709 OFFCURVE",
"301 722 OFFCURVE",
"286 638 CURVE SMOOTH",
"279 596 OFFCURVE",
"273 575 OFFCURVE",
"268 575 CURVE SMOOTH",
"263 575 OFFCURVE",
"231 575 OFFCURVE",
"173 575 CURVE",
"76 494 LINE",
"76 451 OFFCURVE",
"76 408 OFFCURVE",
"76 363 CURVE",
"184 292 LINE",
"247 281 OFFCURVE",
"301 272 OFFCURVE",
"348 264 CURVE",
"404 231 LINE",
"404 207 OFFCURVE",
"404 185 OFFCURVE",
"404 166 CURVE",
"355 132 LINE",
"321 132 OFFCURVE",
"280 132 OFFCURVE",
"233 132 CURVE",
"151 185 LINE",
"144 212 OFFCURVE",
"129 226 OFFCURVE",
"104 226 CURVE SMOOTH",
"79 226 OFFCURVE",
"66 220 OFFCURVE",
"65 208 CURVE",
"87 151 LINE",
"142 93 LINE",
"172 81 OFFCURVE",
"183 53 OFFCURVE",
"176 8 CURVE SMOOTH",
"160 -81 OFFCURVE",
"233 -94 OFFCURVE",
"249 -7 CURVE SMOOTH",
"256 36 OFFCURVE",
"267 57 OFFCURVE",
"282 55 CURVE",
"300 55 OFFCURVE",
"336 55 OFFCURVE",
"391 55 CURVE",
"484 131 LINE",
"484 174 OFFCURVE",
"484 219 OFFCURVE",
"484 267 CURVE",
"388 334 LINE"
);
}
);
width = 550;
}
);
note = dollar;
unicode = 0024;
},
{
glyphname = Euro;
lastChange = "2020-07-29 06:27:51 +0000";
layers = (
{
layerId = "DA2C6654-D585-4A87-87E3-B198D23B8793";
paths = (
{
closed = 1;
nodes = (
"453 217 OFFCURVE",
"438 192 OFFCURVE",
"434 141 CURVE",
"367 65 LINE",
"322 65 OFFCURVE",
"275 65 OFFCURVE",
"227 65 CURVE",
"145 149 LINE",
"136 204 OFFCURVE",
"153 232 OFFCURVE",
"196 232 CURVE SMOOTH",
"280 232 OFFCURVE",
"342 292 OFFCURVE",
"219 292 CURVE SMOOTH",
"157 292 OFFCURVE",
"126 296 OFFCURVE",
"125 303 CURVE",
"125 318 OFFCURVE",
"125 328 OFFCURVE",
"125 334 CURVE SMOOTH",
"125 339 OFFCURVE",
"165 342 OFFCURVE",
"245 342 CURVE SMOOTH",
"405 342 OFFCURVE",
"465 402 OFFCURVE",
"273 402 CURVE SMOOTH",
"177 402 OFFCURVE",
"133 432 OFFCURVE",
"141 493 CURVE",
"223 585 LINE",
"274 585 OFFCURVE",
"321 585 OFFCURVE",
"365 585 CURVE",
"435 512 LINE",
"444 463 OFFCURVE",
"459 451 OFFCURVE",
"480 475 CURVE SMOOTH",
"501 498 OFFCURVE",
"496 560 OFFCURVE",
"466 660 CURVE",
"355 660 OFFCURVE",
"261 660 OFFCURVE",
"186 660 CURVE",
"63 525 LINE",
"54 442 OFFCURVE",
"39 391 OFFCURVE",
"20 372 CURVE SMOOTH",
"0 352 OFFCURVE",
"-1 342 OFFCURVE",
"18 342 CURVE SMOOTH",
"36 342 OFFCURVE",
"45 339 OFFCURVE",
"45 334 CURVE SMOOTH",
"45 328 OFFCURVE",
"45 317 OFFCURVE",
"45 300 CURVE",
"46 292 OFFCURVE",
"37 279 OFFCURVE",
"18 260 CURVE SMOOTH",
"-1 241 OFFCURVE",
"0 232 OFFCURVE",
"21 232 CURVE SMOOTH",
"41 232 OFFCURVE",
"56 193 OFFCURVE",
"67 116 CURVE",
"190 -10 LINE",
"263 -10 OFFCURVE",
"334 -10 OFFCURVE",
"405 -10 CURVE",
"515 109 LINE",
"515 181 OFFCURVE",
"503 217 OFFCURVE",
"478 217 CURVE SMOOTH"
);
}
);
width = 550;
}
);
note = Euro;
unicode = 20AC;
},
{
glyphname = florin;
lastChange = "2020-07-29 06:27:51 +0000";
layers = (
{
layerId = "DA2C6654-D585-4A87-87E3-B198D23B8793";
paths = (
{
closed = 1;
nodes = (
"374 585 OFFCURVE",
"395 585 OFFCURVE",
"416 585 CURVE",
"456 534 LINE",
"456 501 OFFCURVE",
"469 484 OFFCURVE",
"496 484 CURVE SMOOTH",
"523 484 OFFCURVE",
"536 502 OFFCURVE",
"536 537 CURVE",
"496 617 LINE",
"427 660 LINE",
"399 660 OFFCURVE",
"361 660 OFFCURVE",
"314 660 CURVE",
"235 566 LINE",
"235 511 OFFCURVE",
"235 470 OFFCURVE",
"235 443 CURVE SMOOTH",
"235 416 OFFCURVE",
"215 402 OFFCURVE",
"174 402 CURVE SMOOTH",
"133 402 OFFCURVE",
"113 392 OFFCURVE",
"113 372 CURVE SMOOTH",
"113 352 OFFCURVE",
"133 342 OFFCURVE",
"174 342 CURVE SMOOTH",
"215 342 OFFCURVE",
"235 313 OFFCURVE",
"235 255 CURVE SMOOTH",
"235 196 OFFCURVE",
"235 150 OFFCURVE",
"234 116 CURVE",
"197 65 LINE",
"175 65 OFFCURVE",
"154 65 OFFCURVE",
"133 65 CURVE",
"93 117 LINE",
"93 150 OFFCURVE",
"80 167 OFFCURVE",
"53 167 CURVE SMOOTH",
"26 167 OFFCURVE",
"13 149 OFFCURVE",
"13 114 CURVE",
"53 33 LINE",
"122 -10 LINE",
"150 -10 OFFCURVE",
"188 -10 OFFCURVE",
"235 -10 CURVE",
"314 85 LINE",
"315 140 OFFCURVE",
"315 196 OFFCURVE",
"315 255 CURVE SMOOTH",
"315 313 OFFCURVE",
"336 342 OFFCURVE",
"379 342 CURVE SMOOTH",
"422 342 OFFCURVE",
"443 352 OFFCURVE",
"443 372 CURVE SMOOTH",
"443 392 OFFCURVE",
"422 402 OFFCURVE",
"379 402 CURVE SMOOTH",
"336 402 OFFCURVE",
"315 416 OFFCURVE",
"315 443 CURVE SMOOTH",
"315 470 OFFCURVE",
"315 501 OFFCURVE",
"315 535 CURVE",
"352 585 LINE"
);
}
);
width = 550;
}
);
note = florin;
unicode = 0192;
},
{
glyphname = sterling;
lastChange = "2020-07-29 06:27:51 +0000";
layers = (
{
layerId = "DA2C6654-D585-4A87-87E3-B198D23B8793";
paths = (
{
closed = 1;
nodes = (
"274 185 OFFCURVE",
"274 211 OFFCURVE",
"274 231 CURVE",
"267 252 OFFCURVE",
"283 262 OFFCURVE",
"322 262 CURVE SMOOTH",
"361 262 OFFCURVE",
"380 272 OFFCURVE",
"380 292 CURVE SMOOTH",
"380 312 OFFCURVE",
"356 322 OFFCURVE",
"308 322 CURVE SMOOTH",
"260 322 OFFCURVE",
"235 325 OFFCURVE",
"232 330 CURVE",
"203 384 LINE",
"179 448 LINE",
"179 472 OFFCURVE",
"179 500 OFFCURVE",
"179 533 CURVE",
"241 585 LINE",
"270 585 OFFCURVE",
"300 585 OFFCURVE",
"329 585 CURVE",
"390 528 LINE",
"390 499 OFFCURVE",
"403 484 OFFCURVE",
"430 484 CURVE SMOOTH",
"457 484 OFFCURVE",
"470 500 OFFCURVE",
"470 533 CURVE",
"424 614 LINE",
"340 660 LINE",
"303 660 OFFCURVE",
"267 660 OFFCURVE",
"232 660 CURVE",
"147 617 LINE",
"99 537 LINE",
"99 502 OFFCURVE",
"99 471 OFFCURVE",
"99 446 CURVE",
"128 366 LINE",
"144 337 OFFCURVE",
"140 322 OFFCURVE",
"116 322 CURVE SMOOTH",
"92 322 OFFCURVE",
"80 312 OFFCURVE",
"80 292 CURVE SMOOTH",
"80 272 OFFCURVE",
"97 262 OFFCURVE",
"131 262 CURVE SMOOTH",
"165 262 OFFCURVE",
"187 252 OFFCURVE",
"196 231 CURVE",
"196 211 OFFCURVE",
"196 188 OFFCURVE",
"196 163 CURVE",
"158 107 LINE",
"111 73 LINE",
"111 74 OFFCURVE",
"111 63 OFFCURVE",
"111 38 CURVE SMOOTH",
"111 13 OFFCURVE",
"169 0 OFFCURVE",
"286 0 CURVE SMOOTH",
"403 0 OFFCURVE",
"461 13 OFFCURVE",
"461 38 CURVE SMOOTH",
"461 63 OFFCURVE",
"417 75 OFFCURVE",
"329 75 CURVE SMOOTH",
"240 75 OFFCURVE",
"205 80 OFFCURVE",
"223 91 CURVE",
"274 152 LINE"
);
}
);
width = 550;
}
);
note = sterling;
unicode = 00A3;
},
{
glyphname = yen;
lastChange = "2020-07-29 06:27:51 +0000";
layers = (
{
layerId = "DA2C6654-D585-4A87-87E3-B198D23B8793";
paths = (
{
closed = 1;
nodes = (
"493 584 OFFCURVE",
"510 650 OFFCURVE",
"480 650 CURVE SMOOTH",
"450 650 OFFCURVE",
"409 593 OFFCURVE",
"356 478 CURVE SMOOTH",
"303 363 OFFCURVE",
"250 363 OFFCURVE",
"196 478 CURVE SMOOTH",
"142 593 OFFCURVE",
"100 650 OFFCURVE",
"70 650 CURVE SMOOTH",
"40 650 OFFCURVE",
"58 584 OFFCURVE",
"123 452 CURVE SMOOTH",
"188 319 OFFCURVE",
"200 253 OFFCURVE",
"159 253 CURVE SMOOTH",
"118 253 OFFCURVE",
"97 243 OFFCURVE",
"97 223 CURVE SMOOTH",
"97 203 OFFCURVE",
"147 193 OFFCURVE",
"247 193 CURVE SMOOTH",
"347 193 OFFCURVE",
"397 203 OFFCURVE",
"397 223 CURVE SMOOTH",
"397 243 OFFCURVE",
"386 253 OFFCURVE",
"364 253 CURVE SMOOTH",
"341 253 OFFCURVE",
"363 319 OFFCURVE",
"428 452 CURVE SMOOTH"
);
},
{
closed = 1;
nodes = (
"97 93 OFFCURVE",
"120 83 OFFCURVE",
"166 83 CURVE SMOOTH",
"212 83 OFFCURVE",
"235 69 OFFCURVE",
"235 42 CURVE SMOOTH",
"235 14 OFFCURVE",
"248 0 OFFCURVE",
"275 0 CURVE SMOOTH",
"302 0 OFFCURVE",
"315 14 OFFCURVE",
"315 42 CURVE SMOOTH",
"315 69 OFFCURVE",
"329 83 OFFCURVE",
"356 83 CURVE SMOOTH",
"383 83 OFFCURVE",
"397 93 OFFCURVE",
"397 113 CURVE SMOOTH",
"397 133 OFFCURVE",
"347 143 OFFCURVE",
"247 143 CURVE SMOOTH",
"147 143 OFFCURVE",
"97 133 OFFCURVE",
"97 113 CURVE SMOOTH"
);
}
);
width = 550;
}
);
note = yen;
unicode = 00A5;
},
{
glyphname = plus;
lastChange = "2020-07-29 06:27:51 +0000";
layers = (
{
layerId = "DA2C6654-D585-4A87-87E3-B198D23B8793";
paths = (
{
closed = 1;
nodes = (
"455 293 OFFCURVE",
"431 305 OFFCURVE",
"383 305 CURVE SMOOTH",
"334 305 OFFCURVE",
"310 329 OFFCURVE",
"310 378 CURVE SMOOTH",
"310 426 OFFCURVE",
"298 450 OFFCURVE",
"275 450 CURVE SMOOTH",
"252 450 OFFCURVE",
"240 426 OFFCURVE",
"240 378 CURVE SMOOTH",
"240 329 OFFCURVE",
"216 305 OFFCURVE",
"168 305 CURVE SMOOTH",
"119 305 OFFCURVE",
"95 293 OFFCURVE",
"95 270 CURVE SMOOTH",
"95 247 OFFCURVE",
"119 235 OFFCURVE",
"168 235 CURVE SMOOTH",
"216 235 OFFCURVE",
"240 211 OFFCURVE",
"240 163 CURVE SMOOTH",
"240 114 OFFCURVE",
"252 90 OFFCURVE",
"275 90 CURVE SMOOTH",
"298 90 OFFCURVE",
"310 114 OFFCURVE",
"310 163 CURVE SMOOTH",
"310 211 OFFCURVE",
"334 235 OFFCURVE",
"383 235 CURVE SMOOTH",
"431 235 OFFCURVE",
"455 247 OFFCURVE",
"455 270 CURVE SMOOTH"
);
}
);
width = 550;
}
);
note = plus;
unicode = 002B;
},
{
glyphname = minus;
lastChange = "2020-07-29 06:27:51 +0000";
layers = (
{
layerId = "DA2C6654-D585-4A87-87E3-B198D23B8793";
paths = (
{
closed = 1;
nodes = (
"162 307 OFFCURVE",
"105 295 OFFCURVE",
"105 270 CURVE SMOOTH",
"105 245 OFFCURVE",
"162 233 OFFCURVE",
"275 233 CURVE SMOOTH",
"388 233 OFFCURVE",
"445 245 OFFCURVE",
"445 270 CURVE SMOOTH",
"445 295 OFFCURVE",
"388 307 OFFCURVE",
"275 307 CURVE SMOOTH"
);
}
);
width = 550;
}
);
note = minus;
unicode = 2212;
},
{
glyphname = multiply;
lastChange = "2020-07-29 06:27:51 +0000";
layers = (
{
layerId = "DA2C6654-D585-4A87-87E3-B198D23B8793";
paths = (
{
closed = 1;
nodes = (
"444 390 OFFCURVE",
"395 439 OFFCURVE",
"327 371 CURVE SMOOTH",
"292 336 OFFCURVE",
"258 336 OFFCURVE",
"224 371 CURVE SMOOTH",
"155 439 OFFCURVE",
"106 390 OFFCURVE",
"175 322 CURVE SMOOTH",
"209 287 OFFCURVE",
"209 253 OFFCURVE",
"175 219 CURVE SMOOTH",
"106 150 OFFCURVE",
"155 101 OFFCURVE",
"224 170 CURVE SMOOTH",
"258 204 OFFCURVE",
"292 204 OFFCURVE",
"327 170 CURVE SMOOTH",
"395 101 OFFCURVE",
"444 150 OFFCURVE",
"376 219 CURVE SMOOTH",
"341 253 OFFCURVE",
"341 287 OFFCURVE",
"376 322 CURVE SMOOTH"
);
}
);
width = 550;
}
);
note = multiply;
unicode = 00D7;
},
{
glyphname = divide;
lastChange = "2020-07-29 06:27:51 +0000";
layers = (
{
layerId = "DA2C6654-D585-4A87-87E3-B198D23B8793";
paths = (
{
closed = 1;
nodes = (
"327 438 OFFCURVE",
"310 454 OFFCURVE",
"275 454 CURVE SMOOTH",
"240 454 OFFCURVE",
"223 438 OFFCURVE",
"223 405 CURVE SMOOTH",
"223 372 OFFCURVE",
"240 356 OFFCURVE",
"275 356 CURVE SMOOTH",
"310 356 OFFCURVE",
"327 372 OFFCURVE",
"327 405 CURVE SMOOTH"
);
},
{
closed = 1;
nodes = (
"148 307 OFFCURVE",
"85 295 OFFCURVE",
"85 270 CURVE SMOOTH",
"85 245 OFFCURVE",
"148 233 OFFCURVE",
"275 233 CURVE SMOOTH",
"402 233 OFFCURVE",
"465 245 OFFCURVE",
"465 270 CURVE SMOOTH",
"465 295 OFFCURVE",
"402 307 OFFCURVE",
"275 307 CURVE SMOOTH"
);
},
{
closed = 1;
nodes = (
"327 166 OFFCURVE",
"310 182 OFFCURVE",
"275 182 CURVE SMOOTH",
"240 182 OFFCURVE",
"223 166 OFFCURVE",
"223 134 CURVE SMOOTH",
"223 101 OFFCURVE",
"240 85 OFFCURVE",
"275 85 CURVE SMOOTH",
"310 85 OFFCURVE",
"327 101 OFFCURVE",
"327 134 CURVE SMOOTH"
);
}
);
width = 550;
}
);
note = divide;
unicode = 00F7;
},
{
glyphname = equal;
lastChange = "2020-07-29 06:27:51 +0000";
layers = (
{
layerId = "DA2C6654-D585-4A87-87E3-B198D23B8793";
paths = (
{
closed = 1;
nodes = (
"145 405 OFFCURVE",
"80 393 OFFCURVE",
"80 368 CURVE SMOOTH",
"80 343 OFFCURVE",
"145 330 OFFCURVE",
"275 330 CURVE SMOOTH",
"405 330 OFFCURVE",
"470 343 OFFCURVE",
"470 368 CURVE SMOOTH",
"470 393 OFFCURVE",
"405 405 OFFCURVE",
"275 405 CURVE SMOOTH"
);
},
{
closed = 1;
nodes = (
"145 225 OFFCURVE",
"80 213 OFFCURVE",
"80 188 CURVE SMOOTH",
"80 163 OFFCURVE",
"145 150 OFFCURVE",
"275 150 CURVE SMOOTH",
"405 150 OFFCURVE",
"470 163 OFFCURVE",
"470 188 CURVE SMOOTH",
"470 213 OFFCURVE",
"405 225 OFFCURVE",
"275 225 CURVE SMOOTH"
);
}
);
width = 550;
}
);
note = equal;
unicode = 003D;
},
{
glyphname = notequal;
lastChange = "2020-07-29 06:27:51 +0000";
layers = (
{
layerId = "DA2C6654-D585-4A87-87E3-B198D23B8793";
paths = (
{
closed = 1;
nodes = (
"446 330 OFFCURVE",
"470 343 OFFCURVE",
"470 368 CURVE SMOOTH",
"470 393 OFFCURVE",
"449 405 OFFCURVE",
"407 405 CURVE SMOOTH",
"364 405 OFFCURVE",
"348 424 OFFCURVE",
"359 463 CURVE SMOOTH",
"379 540 OFFCURVE",
"316 561 OFFCURVE",
"292 472 CURVE SMOOTH",
"280 427 OFFCURVE",
"242 405 OFFCURVE",
"177 405 CURVE SMOOTH",
"112 405 OFFCURVE",
"80 393 OFFCURVE",
"80 368 CURVE SMOOTH",
"80 343 OFFCURVE",
"109 330 OFFCURVE",
"167 330 CURVE SMOOTH",
"283 330 OFFCURVE",
"250 225 OFFCURVE",
"153 225 CURVE SMOOTH",
"104 225 OFFCURVE",
"80 213 OFFCURVE",
"80 188 CURVE SMOOTH",
"80 163 OFFCURVE",
"101 150 OFFCURVE",
"143 150 CURVE SMOOTH",
"185 150 OFFCURVE",
"201 132 OFFCURVE",
"191 95 CURVE SMOOTH",
"171 21 OFFCURVE",
"234 1 OFFCURVE",
"257 86 CURVE SMOOTH",
"268 129 OFFCURVE",
"307 150 OFFCURVE",
"372 150 CURVE SMOOTH",
"437 150 OFFCURVE",
"470 163 OFFCURVE",
"470 188 CURVE SMOOTH",
"470 213 OFFCURVE",
"441 225 OFFCURVE",
"382 225 CURVE SMOOTH",
"265 225 OFFCURVE",
"299 330 OFFCURVE",
"397 330 CURVE SMOOTH"
);
}
);
width = 550;
}
);
note = notequal;
unicode = 2260;
},
{
glyphname = greater;
lastChange = "2020-07-29 06:27:51 +0000";
layers = (
{
layerId = "DA2C6654-D585-4A87-87E3-B198D23B8793";
paths = (
{
closed = 1;
nodes = (
"80 553 OFFCURVE",
"47 481 OFFCURVE",
"236 373 CURVE SMOOTH",
"330 318 OFFCURVE",
"330 264 OFFCURVE",
"236 210 CURVE SMOOTH",
"141 155 OFFCURVE",
"101 117 OFFCURVE",
"114 94 CURVE SMOOTH",
"141 48 OFFCURVE",
"456 230 OFFCURVE",
"456 291 CURVE SMOOTH",
"456 321 OFFCURVE",
"402 367 OFFCURVE",
"295 429 CURVE SMOOTH"
);
}
);
width = 550;
}
);
note = greater;
unicode = 003E;
},
{
glyphname = greaterequal;
lastChange = "2020-07-29 06:27:51 +0000";
layers = (
{
layerId = "DA2C6654-D585-4A87-87E3-B198D23B8793";
paths = (
{
closed = 1;
nodes = (
"93 559 OFFCURVE",
"62 486 OFFCURVE",
"242 382 CURVE SMOOTH",
"332 330 OFFCURVE",
"331 285 OFFCURVE",
"239 247 CURVE SMOOTH",
"146 209 OFFCURVE",
"105 178 OFFCURVE",
"114 153 CURVE SMOOTH",
"132 103 OFFCURVE",
"469 236 OFFCURVE",
"469 297 CURVE SMOOTH",
"469 327 OFFCURVE",
"415 373 OFFCURVE",
"308 435 CURVE SMOOTH"
);
},
{
closed = 1;
nodes = (
"110 3 OFFCURVE",
"167 -10 OFFCURVE",
"280 -10 CURVE SMOOTH",
"393 -10 OFFCURVE",
"450 3 OFFCURVE",
"450 28 CURVE SMOOTH",
"450 53 OFFCURVE",
"393 65 OFFCURVE",
"280 65 CURVE SMOOTH",
"167 65 OFFCURVE",
"110 53 OFFCURVE",
"110 28 CURVE SMOOTH"
);
}
);
width = 550;
}
);
note = greaterequal;
unicode = 2265;
},
{
glyphname = plusminus;
lastChange = "2020-07-29 06:27:51 +0000";
layers = (
{
layerId = "DA2C6654-D585-4A87-87E3-B198D23B8793";
paths = (
{
closed = 1;
nodes = (
"334 325 OFFCURVE",
"310 346 OFFCURVE",
"310 388 CURVE SMOOTH",
"310 429 OFFCURVE",
"298 450 OFFCURVE",
"275 450 CURVE SMOOTH",
"252 450 OFFCURVE",
"240 429 OFFCURVE",
"240 388 CURVE SMOOTH",
"240 346 OFFCURVE",
"216 325 OFFCURVE",
"168 325 CURVE SMOOTH",
"119 325 OFFCURVE",
"95 313 OFFCURVE",
"95 290 CURVE SMOOTH",
"95 267 OFFCURVE",
"119 255 OFFCURVE",
"168 255 CURVE SMOOTH",
"216 255 OFFCURVE",
"240 234 OFFCURVE",
"240 193 CURVE SMOOTH",
"240 151 OFFCURVE",
"252 130 OFFCURVE",
"275 130 CURVE SMOOTH",
"298 130 OFFCURVE",
"310 151 OFFCURVE",
"310 193 CURVE SMOOTH",
"310 234 OFFCURVE",
"334 255 OFFCURVE",
"383 255 CURVE SMOOTH",
"431 255 OFFCURVE",
"455 267 OFFCURVE",
"455 290 CURVE SMOOTH",
"455 313 OFFCURVE",
"431 325 OFFCURVE",
"383 325 CURVE SMOOTH"
);
},
{
closed = 1;
nodes = (
"105 3 OFFCURVE",
"162 -10 OFFCURVE",
"275 -10 CURVE SMOOTH",
"388 -10 OFFCURVE",
"445 3 OFFCURVE",
"445 28 CURVE SMOOTH",
"445 53 OFFCURVE",
"388 65 OFFCURVE",
"275 65 CURVE SMOOTH",
"162 65 OFFCURVE",
"105 53 OFFCURVE",
"105 28 CURVE SMOOTH"
);
}
);
width = 550;
}
);
note = plusminus;
unicode = 00B1;
},
{
glyphname = approxequal;
lastChange = "2020-07-29 06:27:51 +0000";
layers = (
{
layerId = "DA2C6654-D585-4A87-87E3-B198D23B8793";
paths = (
{
closed = 1;
nodes = (
"413 428 OFFCURVE",
"402 411 OFFCURVE",
"402 376 CURVE",
"374 376 OFFCURVE",
"355 376 OFFCURVE",
"344 376 CURVE",
"315 391 LINE",
"300 402 OFFCURVE",
"283 414 OFFCURVE",
"264 427 CURVE",
"218 448 LINE",
"199 448 OFFCURVE",
"172 448 OFFCURVE",
"138 448 CURVE",
"80 390 LINE",
"80 358 OFFCURVE",
"80 337 OFFCURVE",
"80 328 CURVE",
"81 323 OFFCURVE",
"92 320 OFFCURVE",
"114 320 CURVE SMOOTH",
"136 320 OFFCURVE",
"147 327 OFFCURVE",
"147 341 CURVE",
"174 372 LINE",
"191 372 OFFCURVE",
"205 372 OFFCURVE",
"216 372 CURVE",
"247 356 LINE",
"261 346 OFFCURVE",
"277 334 OFFCURVE",
"296 321 CURVE",
"341 300 LINE",
"360 300 OFFCURVE",
"385 300 OFFCURVE",
"415 300 CURVE",
"470 358 LINE",
"470 390 OFFCURVE",
"470 411 OFFCURVE",
"470 420 CURVE",
"469 425 OFFCURVE",
"457 428 OFFCURVE",
"435 428 CURVE SMOOTH"
);
},
{
closed = 1;
nodes = (
"413 251 OFFCURVE",
"402 234 OFFCURVE",
"402 199 CURVE",
"374 199 OFFCURVE",
"355 199 OFFCURVE",
"344 199 CURVE",
"315 214 LINE",
"300 225 OFFCURVE",
"283 237 OFFCURVE",
"264 250 CURVE",
"218 271 LINE",
"199 271 OFFCURVE",
"172 271 OFFCURVE",
"138 271 CURVE",
"80 213 LINE",
"80 181 OFFCURVE",
"80 160 OFFCURVE",
"80 151 CURVE",
"81 146 OFFCURVE",
"92 143 OFFCURVE",
"114 143 CURVE SMOOTH",
"136 143 OFFCURVE",
"147 150 OFFCURVE",
"147 164 CURVE",
"174 195 LINE",
"191 195 OFFCURVE",
"205 195 OFFCURVE",
"216 195 CURVE",
"247 179 LINE",
"261 169 OFFCURVE",
"277 157 OFFCURVE",
"296 144 CURVE",
"341 123 LINE",
"360 123 OFFCURVE",
"385 123 OFFCURVE",
"415 123 CURVE",
"470 181 LINE",
"470 213 OFFCURVE",
"470 234 OFFCURVE",
"470 243 CURVE",
"469 248 OFFCURVE",
"457 251 OFFCURVE",
"435 251 CURVE SMOOTH"
);
}
);
width = 550;
}
);
note = approxequal;
unicode = 2248;
},
{
glyphname = logicalnot;
lastChange = "2020-07-29 06:27:51 +0000";
layers = (
{
layerId = "DA2C6654-D585-4A87-87E3-B198D23B8793";
paths = (
{
closed = 1;
nodes = (
"480 364 OFFCURVE",
"412 405 OFFCURVE",
"275 405 CURVE SMOOTH",
"138 405 OFFCURVE",
"70 393 OFFCURVE",
"70 368 CURVE SMOOTH",
"70 343 OFFCURVE",
"125 330 OFFCURVE",
"235 330 CURVE SMOOTH",
"345 330 OFFCURVE",
"400 302 OFFCURVE",
"400 245 CURVE SMOOTH",
"400 188 OFFCURVE",
"413 160 OFFCURVE",
"440 160 CURVE SMOOTH",
"467 160 OFFCURVE",
"480 201 OFFCURVE",
"480 283 CURVE SMOOTH"
);
}
);
width = 550;
}
);
note = logicalnot;
unicode = 00AC;
},
{
glyphname = emptyset;
lastChange = "2020-07-29 06:27:51 +0000";
layers = (
{
layerId = "DA2C6654-D585-4A87-87E3-B198D23B8793";
paths = (
{
closed = 1;
nodes = (
"448 497 OFFCURVE",
"448 531 OFFCURVE",
"473 574 CURVE SMOOTH",
"521 659 OFFCURVE",
"461 693 OFFCURVE",
"415 613 CURVE SMOOTH",
"392 573 OFFCURVE",
"364 562 OFFCURVE",
"333 579 CURVE",
"294 579 OFFCURVE",
"252 579 OFFCURVE",
"206 579 CURVE",
"98 505 LINE",
"39 378 LINE",
"39 327 OFFCURVE",
"39 281 OFFCURVE",
"39 240 CURVE",
"79 133 LINE",
"103 107 OFFCURVE",
"103 73 OFFCURVE",
"78 31 CURVE SMOOTH",
"29 -54 OFFCURVE",
"91 -88 OFFCURVE",
"137 -8 CURVE SMOOTH",
"160 31 OFFCURVE",
"187 43 OFFCURVE",
"219 26 CURVE",
"256 26 OFFCURVE",
"298 26 OFFCURVE",
"345 26 CURVE",
"453 100 LINE",
"512 226 LINE",
"512 277 OFFCURVE",
"512 323 OFFCURVE",
"512 364 CURVE",
"472 472 LINE"
);
},
{
closed = 1;
nodes = (
"111 274 OFFCURVE",
"111 321 OFFCURVE",
"111 359 CURVE",
"151 452 LINE",
"225 507 LINE",
"258 507 OFFCURVE",
"287 507 OFFCURVE",
"312 507 CURVE",
"355 486 OFFCURVE",
"167 141 OFFCURVE",
"111 218 CURVE"
);
},
{
closed = 1;
nodes = (
"292 98 OFFCURVE",
"263 98 OFFCURVE",
"239 98 CURVE",
"196 119 OFFCURVE",
"384 463 OFFCURVE",
"440 388 CURVE",
"440 331 OFFCURVE",
"440 283 OFFCURVE",
"440 246 CURVE",
"400 152 LINE",
"325 98 LINE"
);
}
);
width = 550;
}
);
note = emptyset;
unicode = 2205;
},
{
glyphname = infinity;
lastChange = "2020-07-29 06:27:51 +0000";
layers = (
{
layerId = "DA2C6654-D585-4A87-87E3-B198D23B8793";
paths = (
{
closed = 1;
nodes = (
"415 510 OFFCURVE",
"379 510 OFFCURVE",
"350 510 CURVE",
"294 451 LINE",
"281 416 OFFCURVE",
"268 417 OFFCURVE",
"255 452 CURVE",
"199 510 LINE",
"170 510 OFFCURVE",
"134 510 OFFCURVE",
"91 510 CURVE",
"15 389 LINE",
"15 330 OFFCURVE",
"15 270 OFFCURVE",
"15 210 CURVE",
"91 89 LINE",
"134 89 OFFCURVE",
"170 89 OFFCURVE",
"199 89 CURVE",
"255 148 LINE",
"268 183 OFFCURVE",
"281 182 OFFCURVE",
"294 147 CURVE",
"350 88 LINE",
"379 88 OFFCURVE",
"415 88 OFFCURVE",
"458 88 CURVE",
"534 209 LINE",
"534 269 OFFCURVE",
"534 329 OFFCURVE",
"534 389 CURVE",
"458 510 LINE"
);
},
{
closed = 1;
nodes = (
"404 160 OFFCURVE",
"382 160 OFFCURVE",
"361 160 CURVE",
"325 228 LINE",
"312 276 OFFCURVE",
"311 323 OFFCURVE",
"324 369 CURVE",
"361 438 LINE",
"382 438 OFFCURVE",
"404 438 OFFCURVE",
"427 438 CURVE",
"462 361 LINE",
"462 320 OFFCURVE",
"462 279 OFFCURVE",
"462 238 CURVE",
"427 160 LINE"
);
},
{
closed = 1;
nodes = (
"167 161 OFFCURVE",
"145 161 OFFCURVE",
"122 161 CURVE",
"87 239 LINE",
"87 280 OFFCURVE",
"87 320 OFFCURVE",
"87 361 CURVE",
"122 437 LINE",
"145 437 OFFCURVE",
"167 437 OFFCURVE",
"188 437 CURVE",
"225 368 LINE",
"238 322 OFFCURVE",
"238 276 OFFCURVE",
"225 230 CURVE",
"188 161 LINE"
);
}
);
width = 550;
}
);
note = infinity;
unicode = 221E;
},
{
glyphname = integral;
lastChange = "2020-07-29 06:27:51 +0000";
layers = (
{
layerId = "DA2C6654-D585-4A87-87E3-B198D23B8793";
paths = (
{
closed = 1;
nodes = (
"422 760 OFFCURVE",
"380 760 OFFCURVE",
"327 760 CURVE",
"236 676 LINE",
"236 619 OFFCURVE",
"236 502 OFFCURVE",
"236 325 CURVE SMOOTH",
"236 148 OFFCURVE",
"236 29 OFFCURVE",
"236 -32 CURVE",
"176 -31 OFFCURVE",
"130 -30 OFFCURVE",
"98 -30 CURVE SMOOTH",
"66 -30 OFFCURVE",
"50 -43 OFFCURVE",
"50 -70 CURVE SMOOTH",
"50 -97 OFFCURVE",
"66 -110 OFFCURVE",
"98 -110 CURVE SMOOTH",
"130 -110 OFFCURVE",
"172 -110 OFFCURVE",
"225 -110 CURVE",
"316 -26 LINE",
"316 31 OFFCURVE",
"316 148 OFFCURVE",
"316 325 CURVE SMOOTH",
"316 502 OFFCURVE",
"316 621 OFFCURVE",
"316 682 CURVE",
"376 681 OFFCURVE",
"422 680 OFFCURVE",
"454 680 CURVE SMOOTH",
"485 680 OFFCURVE",
"501 693 OFFCURVE",
"501 720 CURVE SMOOTH",
"501 747 OFFCURVE",
"485 760 OFFCURVE",
"454 760 CURVE SMOOTH"
);
}
);
width = 550;
}
);
note = integral;
unicode = 222B;
},
{
glyphname = product;
lastChange = "2020-07-29 06:27:51 +0000";
layers = (
{
layerId = "DA2C6654-D585-4A87-87E3-B198D23B8793";
paths = (
{
closed = 1;
nodes = (
"515 637 OFFCURVE",
"435 650 OFFCURVE",
"275 650 CURVE SMOOTH",
"115 650 OFFCURVE",
"35 637 OFFCURVE",
"35 612 CURVE SMOOTH",
"35 586 OFFCURVE",
"52 573 OFFCURVE",
"85 573 CURVE SMOOTH",
"118 573 OFFCURVE",
"135 478 OFFCURVE",
"135 287 CURVE SMOOTH",
"135 96 OFFCURVE",
"148 0 OFFCURVE",
"175 0 CURVE SMOOTH",
"202 0 OFFCURVE",
"215 96 OFFCURVE",
"215 287 CURVE SMOOTH",
"215 478 OFFCURVE",
"235 573 OFFCURVE",
"275 573 CURVE SMOOTH",
"315 573 OFFCURVE",
"335 478 OFFCURVE",
"335 287 CURVE SMOOTH",
"335 96 OFFCURVE",
"348 0 OFFCURVE",
"375 0 CURVE SMOOTH",
"402 0 OFFCURVE",
"415 96 OFFCURVE",
"415 287 CURVE SMOOTH",
"415 478 OFFCURVE",
"432 573 OFFCURVE",
"465 573 CURVE SMOOTH",
"498 573 OFFCURVE",
"515 586 OFFCURVE",
"515 612 CURVE SMOOTH"
);
}
);
width = 550;
}
);
note = product;
unicode = 220F;
},
{
glyphname = summation;
lastChange = "2020-07-29 06:27:51 +0000";
layers = (
{
layerId = "DA2C6654-D585-4A87-87E3-B198D23B8793";
paths = (
{
closed = 1;
nodes = (
"485 638 OFFCURVE",
"415 650 OFFCURVE",
"275 650 CURVE SMOOTH",
"135 650 OFFCURVE",
"65 637 OFFCURVE",
"65 611 CURVE SMOOTH",
"65 584 OFFCURVE",
"99 529 OFFCURVE",
"167 445 CURVE SMOOTH",
"234 360 OFFCURVE",
"234 277 OFFCURVE",
"167 196 CURVE SMOOTH",
"99 114 OFFCURVE",
"65 61 OFFCURVE",
"65 37 CURVE SMOOTH",
"65 12 OFFCURVE",
"135 0 OFFCURVE",
"275 0 CURVE SMOOTH",
"415 0 OFFCURVE",
"485 13 OFFCURVE",
"485 38 CURVE SMOOTH",
"485 63 OFFCURVE",
"431 75 OFFCURVE",
"324 75 CURVE SMOOTH",
"216 75 OFFCURVE",
"195 115 OFFCURVE",
"262 196 CURVE SMOOTH",
"329 277 OFFCURVE",
"328 360 OFFCURVE",
"261 446 CURVE SMOOTH",
"194 532 OFFCURVE",
"214 575 OFFCURVE",
"323 575 CURVE SMOOTH",
"431 575 OFFCURVE",
"485 588 OFFCURVE",
"485 613 CURVE SMOOTH"
);
}
);
width = 550;
}
);
note = summation;
unicode = 2211;
},
{
glyphname = radical;
lastChange = "2020-07-29 06:27:51 +0000";
layers = (
{
layerId = "DA2C6654-D585-4A87-87E3-B198D23B8793";
paths = (
{
closed = 1;
nodes = (
"529 638 OFFCURVE",
"499 650 OFFCURVE",
"439 650 CURVE SMOOTH",
"379 650 OFFCURVE",
"333 564 OFFCURVE",
"301 393 CURVE SMOOTH",
"268 222 OFFCURVE",
"231 197 OFFCURVE",
"189 318 CURVE SMOOTH",
"146 439 OFFCURVE",
"111 500 OFFCURVE",
"82 500 CURVE SMOOTH",
"24 500 OFFCURVE",
"215 0 OFFCURVE",
"265 0 CURVE SMOOTH",
"290 0 OFFCURVE",
"321 96 OFFCURVE",
"360 288 CURVE SMOOTH",
"398 479 OFFCURVE",
"436 575 OFFCURVE",
"473 575 CURVE SMOOTH",
"510 575 OFFCURVE",
"529 588 OFFCURVE",
"529 613 CURVE SMOOTH"
);
}
);
width = 550;
}
);
note = radical;
unicode = 221A;
},
{
glyphname = uni00B5;
lastChange = "2020-07-29 06:27:51 +0000";
layers = (
{
layerId = "DA2C6654-D585-4A87-87E3-B198D23B8793";
paths = (
{
closed = 1;
nodes = (
"467 118 OFFCURVE",
"467 191 OFFCURVE",
"467 315 CURVE SMOOTH",
"467 438 OFFCURVE",
"454 500 OFFCURVE",
"427 500 CURVE SMOOTH",
"400 500 OFFCURVE",
"387 451 OFFCURVE",
"387 354 CURVE SMOOTH",
"387 257 OFFCURVE",
"382 191 OFFCURVE",
"373 156 CURVE",
"302 70 LINE",
"256 70 OFFCURVE",
"196 70 OFFCURVE",
"123 70 CURVE",
"123 149 OFFCURVE",
"123 240 OFFCURVE",
"123 344 CURVE SMOOTH",
"123 448 OFFCURVE",
"110 500 OFFCURVE",
"83 500 CURVE SMOOTH",
"56 500 OFFCURVE",
"43 383 OFFCURVE",
"43 150 CURVE SMOOTH",
"43 -83 OFFCURVE",
"56 -200 OFFCURVE",
"83 -200 CURVE SMOOTH",
"110 -200 OFFCURVE",
"123 -160 OFFCURVE",
"123 -81 CURVE SMOOTH",
"123 -2 OFFCURVE",
"134 22 OFFCURVE",
"155 -10 CURVE",
"196 -10 OFFCURVE",
"243 -10 OFFCURVE",
"296 -10 CURVE",
"373 98 LINE",
"382 144 OFFCURVE",
"387 159 OFFCURVE",
"387 143 CURVE SMOOTH",
"387 127 OFFCURVE",
"387 100 OFFCURVE",
"387 63 CURVE",
"462 -10 LINE",
"507 -10 OFFCURVE",
"530 3 OFFCURVE",
"530 30 CURVE SMOOTH",
"530 57 OFFCURVE",
"520 70 OFFCURVE",
"499 70 CURVE",
"467 96 LINE"
);
}
);
width = 550;
}
);
note = uni00B5;
unicode = 00B5;
},
{
glyphname = partialdiff;
lastChange = "2020-07-29 06:27:51 +0000";
layers = (
{
layerId = "DA2C6654-D585-4A87-87E3-B198D23B8793";
paths = (
{
closed = 1;
nodes = (
"267 665 OFFCURVE",
"143 699 OFFCURVE",
"134 676 CURVE",
"124 653 OFFCURVE",
"186 618 OFFCURVE",
"320 569 CURVE",
"365 488 OFFCURVE",
"373 468 OFFCURVE",
"343 510 CURVE",
"284 510 OFFCURVE",
"234 510 OFFCURVE",
"193 510 CURVE",
"101 443 LINE",
"51 324 LINE",
"51 274 OFFCURVE",
"51 210 OFFCURVE",
"51 133 CURVE",
"169 -10 LINE",
"240 -10 OFFCURVE",
"300 -10 OFFCURVE",
"349 -10 CURVE",
"453 67 LINE",
"505 188 LINE",
"505 231 OFFCURVE",
"505 361 OFFCURVE",
"505 576 CURVE"
);
},
{
closed = 1;
nodes = (
"299 67 OFFCURVE",
"252 67 OFFCURVE",
"206 67 CURVE",
"131 167 LINE",
"131 222 OFFCURVE",
"131 277 OFFCURVE",
"131 333 CURVE",
"203 433 LINE",
"251 433 OFFCURVE",
"299 433 OFFCURVE",
"348 433 CURVE",
"425 334 LINE",
"425 277 OFFCURVE",
"425 223 OFFCURVE",
"425 170 CURVE",
"348 67 LINE"
);
}
);
width = 550;
}
);
note = partialdiff;
unicode = 2202;
},
{
glyphname = percent;
lastChange = "2020-07-29 06:27:51 +0000";
layers = (
{
layerId = "DA2C6654-D585-4A87-87E3-B198D23B8793";
paths = (
{
closed = 1;
nodes = (
"365 712 OFFCURVE",
"111 -31 OFFCURVE",
"149 -46 CURVE SMOOTH",
"187 -61 OFFCURVE",
"444 686 OFFCURVE",
"405 699 CURVE SMOOTH"
);
},
{
closed = 1;
nodes = (
"115 336 OFFCURVE",
"151 336 OFFCURVE",
"186 336 CURVE",
"246 426 LINE",
"246 474 OFFCURVE",
"246 523 OFFCURVE",
"246 572 CURVE",
"187 660 LINE",
"151 660 OFFCURVE",
"115 660 OFFCURVE",
"79 660 CURVE",
"20 572 LINE",
"20 523 OFFCURVE",
"20 474 OFFCURVE",
"20 425 CURVE",
"79 336 LINE"
);
},
{
closed = 1;
nodes = (
"146 410 OFFCURVE",
"120 410 OFFCURVE",
"94 410 CURVE",
"94 469 OFFCURVE",
"94 528 OFFCURVE",
"94 587 CURVE",
"120 587 OFFCURVE",
"146 587 OFFCURVE",
"172 587 CURVE",
"172 528 OFFCURVE",
"172 469 OFFCURVE",
"172 410 CURVE"
);
},
{
closed = 1;
nodes = (
"400 -10 OFFCURVE",
"436 -10 OFFCURVE",
"472 -10 CURVE",
"531 79 LINE",
"531 128 OFFCURVE",
"531 176 OFFCURVE",
"531 225 CURVE",
"472 314 LINE",
"436 314 OFFCURVE",
"400 314 OFFCURVE",
"364 314 CURVE",
"305 225 LINE",
"305 176 OFFCURVE",
"305 128 OFFCURVE",
"305 79 CURVE",
"364 -10 LINE"
);
},
{
closed = 1;
nodes = (
"431 63 OFFCURVE",
"405 63 OFFCURVE",
"379 63 CURVE",
"379 122 OFFCURVE",
"379 181 OFFCURVE",
"379 240 CURVE",
"405 240 OFFCURVE",
"431 240 OFFCURVE",
"457 240 CURVE",
"457 181 OFFCURVE",
"457 122 OFFCURVE",
"457 63 CURVE"
);
}
);
width = 550;
}
);
note = percent;
unicode = 0025;
},
{
glyphname = perthousand;
lastChange = "2020-07-29 06:27:51 +0000";
layers = (
{
layerId = "DA2C6654-D585-4A87-87E3-B198D23B8793";
paths = (
{
closed = 1;
nodes = (
"365 712 OFFCURVE",
"111 -31 OFFCURVE",
"149 -46 CURVE SMOOTH",
"187 -61 OFFCURVE",
"443 686 OFFCURVE",
"404 699 CURVE SMOOTH"
);
},
{
closed = 1;
nodes = (
"115 336 OFFCURVE",
"151 336 OFFCURVE",
"186 336 CURVE",
"246 426 LINE",
"246 474 OFFCURVE",
"246 523 OFFCURVE",
"246 572 CURVE",
"187 660 LINE",
"151 660 OFFCURVE",
"115 660 OFFCURVE",
"79 660 CURVE",
"20 572 LINE",
"20 523 OFFCURVE",
"20 474 OFFCURVE",
"20 425 CURVE",
"79 336 LINE"
);
},
{
closed = 1;
nodes = (
"146 410 OFFCURVE",
"120 410 OFFCURVE",
"94 410 CURVE",
"94 469 OFFCURVE",
"94 528 OFFCURVE",
"94 587 CURVE",
"120 587 OFFCURVE",
"146 587 OFFCURVE",
"172 587 CURVE",
"172 528 OFFCURVE",
"172 469 OFFCURVE",
"172 410 CURVE"
);
},
{
closed = 1;
nodes = (
"412 133 OFFCURVE",
"444 133 OFFCURVE",
"475 133 CURVE",
"531 195 LINE",
"531 228 OFFCURVE",
"531 262 OFFCURVE",
"531 295 CURVE",
"475 357 LINE",
"444 357 OFFCURVE",
"412 357 OFFCURVE",
"381 357 CURVE",
"325 294 LINE",
"325 261 OFFCURVE",
"325 229 OFFCURVE",
"325 196 CURVE",
"381 133 LINE"
);
},
{
closed = 1;
nodes = (
"439 197 OFFCURVE",
"417 197 OFFCURVE",
"394 197 CURVE",
"394 229 OFFCURVE",
"394 261 OFFCURVE",
"394 292 CURVE",
"417 292 OFFCURVE",
"439 292 OFFCURVE",
"462 292 CURVE",
"462 261 OFFCURVE",
"462 229 OFFCURVE",
"462 197 CURVE"
);
},
{
closed = 1;
nodes = (
"331 -116 OFFCURVE",
"362 -116 OFFCURVE",
"393 -116 CURVE",
"449 -53 LINE",
"449 -20 OFFCURVE",
"449 13 OFFCURVE",
"449 46 CURVE",
"393 108 LINE",
"362 108 OFFCURVE",
"330 108 OFFCURVE",
"299 108 CURVE",
"244 46 LINE",
"244 13 OFFCURVE",
"244 -20 OFFCURVE",
"244 -53 CURVE",
"300 -116 LINE"
);
},
{
closed = 1;
nodes = (
"357 -52 OFFCURVE",
"341 -52 OFFCURVE",
"330 -52 CURVE",
"312 -27 LINE",
"312 -12 OFFCURVE",
"312 12 OFFCURVE",
"312 44 CURVE",
"335 44 OFFCURVE",
"357 44 OFFCURVE",
"380 44 CURVE",
"380 12 OFFCURVE",
"380 -20 OFFCURVE",
"380 -52 CURVE"
);
}
);
width = 550;
}
);
note = perthousand;
unicode = 2030;
},
{
glyphname = arrowup;
lastChange = "2020-07-29 06:27:51 +0000";
layers = (
{
layerId = "DA2C6654-D585-4A87-87E3-B198D23B8793";
paths = (
{
closed = 1;
nodes = (
"311 667 OFFCURVE",
"239 667 OFFCURVE",
"166 601 CURVE SMOOTH",
"21 469 OFFCURVE",
"85 422 OFFCURVE",
"194 521 CURVE SMOOTH",
"248 570 OFFCURVE",
"302 570 OFFCURVE",
"357 521 CURVE SMOOTH",
"465 422 OFFCURVE",
"529 469 OFFCURVE",
"384 601 CURVE SMOOTH"
);
},
{
closed = 1;
nodes = (
"250 510 OFFCURVE",
"237 428 OFFCURVE",
"237 265 CURVE SMOOTH",
"237 102 OFFCURVE",
"250 20 OFFCURVE",
"275 20 CURVE SMOOTH",
"300 20 OFFCURVE",
"312 102 OFFCURVE",
"312 265 CURVE SMOOTH",
"312 428 OFFCURVE",
"300 510 OFFCURVE",
"275 510 CURVE SMOOTH"
);
}
);
width = 550;
}
);
note = arrowup;
unicode = 2191;
},
{
glyphname = arrowright;
lastChange = "2020-07-29 06:27:51 +0000";
layers = (
{
layerId = "DA2C6654-D585-4A87-87E3-B198D23B8793";
paths = (
{
closed = 1;
nodes = (
"327 533 OFFCURVE",
"280 469 OFFCURVE",
"379 361 CURVE SMOOTH",
"428 306 OFFCURVE",
"428 252 OFFCURVE",
"379 198 CURVE SMOOTH",
"330 143 OFFCURVE",
"314 107 OFFCURVE",
"333 89 CURVE",
"369 52 OFFCURVE",
"591 243 OFFCURVE",
"459 388 CURVE SMOOTH"
);
},
{
closed = 1;
nodes = (
"368 305 OFFCURVE",
"314 317 OFFCURVE",
"207 317 CURVE SMOOTH",
"99 317 OFFCURVE",
"45 305 OFFCURVE",
"45 280 CURVE SMOOTH",
"45 255 OFFCURVE",
"99 242 OFFCURVE",
"207 242 CURVE SMOOTH",
"314 242 OFFCURVE",
"368 255 OFFCURVE",
"368 280 CURVE SMOOTH"
);
}
);
width = 550;
}
);
note = arrowright;
unicode = 2192;
},
{
glyphname = arrowdown;
lastChange = "2020-07-29 06:27:51 +0000";
layers = (
{
layerId = "DA2C6654-D585-4A87-87E3-B198D23B8793";
paths = (
{
closed = 1;
nodes = (
"301 118 OFFCURVE",
"313 200 OFFCURVE",
"313 363 CURVE SMOOTH",
"313 526 OFFCURVE",
"301 608 OFFCURVE",
"276 608 CURVE SMOOTH",
"251 608 OFFCURVE",
"238 526 OFFCURVE",
"238 363 CURVE SMOOTH",
"238 200 OFFCURVE",
"251 118 OFFCURVE",
"276 118 CURVE SMOOTH"
);
},
{
closed = 1;
nodes = (
"447 172 OFFCURVE",
"411 156 OFFCURVE",
"357 107 CURVE SMOOTH",
"302 58 OFFCURVE",
"248 58 OFFCURVE",
"194 107 CURVE SMOOTH",
"85 206 OFFCURVE",
"21 159 OFFCURVE",
"166 27 CURVE SMOOTH",
"311 -105 OFFCURVE",
"502 117 OFFCURVE",
"466 154 CURVE"
);
}
);
width = 550;
}
);
note = arrowdown;
unicode = 2193;
},
{
glyphname = arrowleft;
lastChange = "2020-07-29 06:27:51 +0000";
layers = (
{
layerId = "DA2C6654-D585-4A87-87E3-B198D23B8793";
paths = (
{
closed = 1;
nodes = (
"220 415 OFFCURVE",
"236 451 OFFCURVE",
"218 470 CURVE",
"181 506 OFFCURVE",
"-41 315 OFFCURVE",
"91 170 CURVE SMOOTH",
"223 25 OFFCURVE",
"270 89 OFFCURVE",
"171 198 CURVE SMOOTH",
"122 252 OFFCURVE",
"122 306 OFFCURVE",
"171 361 CURVE SMOOTH"
);
},
{
closed = 1;
nodes = (
"505 305 OFFCURVE",
"451 317 OFFCURVE",
"344 317 CURVE SMOOTH",
"236 317 OFFCURVE",
"182 305 OFFCURVE",
"182 280 CURVE SMOOTH",
"182 255 OFFCURVE",
"236 242 OFFCURVE",
"344 242 CURVE SMOOTH",
"451 242 OFFCURVE",
"505 255 OFFCURVE",
"505 280 CURVE SMOOTH"
);
}
);
width = 550;
}
);
note = arrowleft;
unicode = 2190;
},
{
glyphname = arrowboth;
lastChange = "2020-07-29 06:27:51 +0000";
layers = (
{
layerId = "DA2C6654-D585-4A87-87E3-B198D23B8793";
paths = (
{
closed = 1;
nodes = (
"220 415 OFFCURVE",
"236 451 OFFCURVE",
"218 470 CURVE",
"181 506 OFFCURVE",
"-41 315 OFFCURVE",
"91 170 CURVE SMOOTH",
"223 25 OFFCURVE",
"270 89 OFFCURVE",
"171 198 CURVE SMOOTH",
"122 252 OFFCURVE",
"122 306 OFFCURVE",
"171 361 CURVE SMOOTH"
);
},
{
closed = 1;
nodes = (
"328 533 OFFCURVE",
"281 469 OFFCURVE",
"380 361 CURVE SMOOTH",
"429 306 OFFCURVE",
"429 252 OFFCURVE",
"380 198 CURVE SMOOTH",
"331 143 OFFCURVE",
"315 107 OFFCURVE",
"334 89 CURVE",
"370 52 OFFCURVE",
"592 243 OFFCURVE",
"460 388 CURVE SMOOTH"
);
},
{
closed = 1;
nodes = (
"369 305 OFFCURVE",
"337 317 OFFCURVE",
"274 317 CURVE SMOOTH",
"211 317 OFFCURVE",
"179 305 OFFCURVE",
"179 280 CURVE SMOOTH",
"179 255 OFFCURVE",
"211 242 OFFCURVE",
"274 242 CURVE SMOOTH",
"337 242 OFFCURVE",
"369 255 OFFCURVE",
"369 280 CURVE SMOOTH"
);
}
);
width = 550;
}
);
note = arrowboth;
unicode = 2194;
},
{
glyphname = arrowupdn;
lastChange = "2020-07-29 06:27:51 +0000";
layers = (
{
layerId = "DA2C6654-D585-4A87-87E3-B198D23B8793";
paths = (
{
closed = 1;
nodes = (
"248 570 OFFCURVE",
"302 570 OFFCURVE",
"357 521 CURVE SMOOTH",
"411 471 OFFCURVE",
"447 455 OFFCURVE",
"466 474 CURVE SMOOTH",
"502 510 OFFCURVE",
"311 732 OFFCURVE",
"166 600 CURVE SMOOTH",
"21 468 OFFCURVE",
"85 421 OFFCURVE",
"194 521 CURVE SMOOTH"
);
},
{
closed = 1;
nodes = (
"250 512 OFFCURVE",
"237 446 OFFCURVE",
"237 315 CURVE SMOOTH",
"237 183 OFFCURVE",
"250 117 OFFCURVE",
"275 117 CURVE SMOOTH",
"300 117 OFFCURVE",
"312 183 OFFCURVE",
"312 315 CURVE SMOOTH",
"312 446 OFFCURVE",
"300 512 OFFCURVE",
"275 512 CURVE SMOOTH"
);
},
{
closed = 1;
nodes = (
"302 57 OFFCURVE",
"248 57 OFFCURVE",
"194 107 CURVE SMOOTH",
"139 156 OFFCURVE",
"103 172 OFFCURVE",
"85 154 CURVE SMOOTH",
"48 117 OFFCURVE",
"239 -105 OFFCURVE",
"384 27 CURVE SMOOTH",
"529 159 OFFCURVE",
"465 206 OFFCURVE",
"357 107 CURVE SMOOTH"
);
}
);
width = 550;
}
);
note = arrowupdn;
unicode = 2195;
},
{
glyphname = lozenge;
lastChange = "2020-07-29 06:27:51 +0000";
layers = (
{
layerId = "DA2C6654-D585-4A87-87E3-B198D23B8793";
paths = (
{
closed = 1;
nodes = (
"237 737 OFFCURVE",
"12 394 OFFCURVE",
"163 166 CURVE SMOOTH",
"314 -63 OFFCURVE",
"539 280 OFFCURVE",
"388 509 CURVE SMOOTH"
);
},
{
closed = 1;
nodes = (
"299 576 OFFCURVE",
"441 371 OFFCURVE",
"347 235 CURVE SMOOTH",
"253 98 OFFCURVE",
"111 303 OFFCURVE",
"205 440 CURVE SMOOTH"
);
}
);
width = 550;
}
);
note = lozenge;
unicode = 25CA;
},
{
glyphname = at;
lastChange = "2020-07-29 06:27:51 +0000";
layers = (
{
layerId = "DA2C6654-D585-4A87-87E3-B198D23B8793";
paths = (
{
closed = 1;
nodes = (
"493 549 OFFCURVE",
"488 562 OFFCURVE",
"487 566 CURVE",
"479 591 LINE",
"467 615 LINE",
"460 620 OFFCURVE",
"454 625 OFFCURVE",
"449 628 CURVE",
"432 641 LINE",
"417 649 LINE",
"407 652 OFFCURVE",
"398 654 OFFCURVE",
"389 656 CURVE",
"378 656 OFFCURVE",
"369 656 OFFCURVE",
"360 656 CURVE",
"335 653 OFFCURVE",
"316 650 OFFCURVE",
"301 648 CURVE",
"270 634 LINE",
"268 633 OFFCURVE",
"263 631 OFFCURVE",
"256 628 CURVE",
"248 625 OFFCURVE",
"230 617 OFFCURVE",
"203 606 CURVE",
"108 508 LINE",
"101 481 OFFCURVE",
"88 437 OFFCURVE",
"70 376 CURVE",
"49 214 LINE",
"49 144 OFFCURVE",
"49 100 OFFCURVE",
"49 82 CURVE",
"65 22 LINE",
"75 -6 OFFCURVE",
"81 -23 OFFCURVE",
"83 -30 CURVE",
"93 -55 LINE",
"96 -65 OFFCURVE",
"98 -74 OFFCURVE",
"100 -81 CURVE",
"118 -95 LINE",
"145 -107 LINE",
"147 -109 OFFCURVE",
"151 -112 OFFCURVE",
"158 -117 CURVE",
"176 -120 LINE",
"186 -120 OFFCURVE",
"199 -120 OFFCURVE",
"215 -120 CURVE",
"247 -94 LINE",
"264 -75 OFFCURVE",
"274 -63 OFFCURVE",
"277 -58 CURVE",
"286 -47 LINE",
"289 -44 OFFCURVE",
"300 -32 OFFCURVE",
"319 -11 CURVE",
"330 8 OFFCURVE",
"337 21 OFFCURVE",
"341 28 CURVE",
"349 48 LINE",
"348 54 OFFCURVE",
"348 57 OFFCURVE",
"348 58 CURVE",
"351 64 LINE",
"350 63 OFFCURVE",
"343 68 OFFCURVE",
"332 80 CURVE",
"308 103 OFFCURVE",
"292 59 OFFCURVE",
"291 56 CURVE",
"280 34 LINE",
"268 19 OFFCURVE",
"255 2 OFFCURVE",
"242 -16 CURVE",
"215 -48 LINE",
"194 -48 LINE SMOOTH",
"192 -48 OFFCURVE",
"185 -48 OFFCURVE",
"174 -48 CURVE",
"169 -45 OFFCURVE",
"161 -40 OFFCURVE",
"149 -33 CURVE",
"135 -30 LINE",
"137 -34 OFFCURVE",
"137 -34 OFFCURVE",
"134 -30 CURVE",
"113 3 LINE",
"98 54 LINE",
"98 91 OFFCURVE",
"98 142 OFFCURVE",
"98 207 CURVE",
"115 347 LINE",
"134 409 OFFCURVE",
"146 449 OFFCURVE",
"151 467 CURVE",
"227 542 LINE",
"250 551 OFFCURVE",
"277 562 OFFCURVE",
"306 575 CURVE",
"328 578 OFFCURVE",
"348 580 OFFCURVE",
"366 583 CURVE",
"371 583 OFFCURVE",
"375 583 OFFCURVE",
"378 583 CURVE",
"390 582 LINE",
"389 583 OFFCURVE",
"397 581 OFFCURVE",
"412 576 CURVE",
"428 565 LINE",
"429 564 OFFCURVE",
"431 563 OFFCURVE",
"435 560 CURVE",
"439 559 LINE",
"440 552 LINE",
"442 546 OFFCURVE",
"446 534 OFFCURVE",
"452 515 CURVE",
"452 494 OFFCURVE",
"452 475 OFFCURVE",
"452 458 CURVE",
"442 403 LINE",
"427 344 OFFCURVE",
"425 339 OFFCURVE",
"418 280 CURVE SMOOTH",
"410 220 OFFCURVE",
"389 210 OFFCURVE",
"389 265 CURVE",
"390 277 OFFCURVE",
"390 294 OFFCURVE",
"391 317 CURVE",
"391 340 OFFCURVE",
"392 354 OFFCURVE",
"394 359 CURVE SMOOTH",
"396 364 OFFCURVE",
"400 380 OFFCURVE",
"405 408 CURVE",
"405 424 OFFCURVE",
"405 440 OFFCURVE",
"405 455 CURVE",
"394 480 LINE",
"387 480 OFFCURVE",
"378 480 OFFCURVE",
"368 480 CURVE",
"353 463 OFFCURVE",
"342 450 OFFCURVE",
"335 443 CURVE",
"326 420 OFFCURVE",
"318 410 OFFCURVE",
"313 413 CURVE SMOOTH",
"270 440 LINE",
"264 443 OFFCURVE",
"259 445 OFFCURVE",
"255 447 CURVE",
"230 451 LINE",
"227 452 OFFCURVE",
"225 452 OFFCURVE",
"224 453 CURVE",
"218 456 LINE",
"217 456 OFFCURVE",
"215 456 OFFCURVE",
"213 456 CURVE",
"213 452 OFFCURVE",
"213 447 OFFCURVE",
"214 442 CURVE",
"214 436 OFFCURVE",
"214 433 OFFCURVE",
"214 432 CURVE SMOOTH",
"214 431 OFFCURVE",
"211 418 OFFCURVE",
"206 393 CURVE",
"199 368 OFFCURVE",
"193 346 OFFCURVE",
"168 258 CURVE",
"165 231 OFFCURVE",
"162 214 OFFCURVE",
"161 207 CURVE",
"161 191 OFFCURVE",
"161 173 OFFCURVE",
"161 153 CURVE",
"165 117 OFFCURVE",
"166 90 OFFCURVE",
"166 58 CURVE",
"168 58 OFFCURVE",
"169 58 OFFCURVE",
"169 59 CURVE",
"169 59 OFFCURVE",
"176 67 OFFCURVE",
"190 84 CURVE SMOOTH",
"204 100 OFFCURVE",
"227 127 OFFCURVE",
"259 165 CURVE",
"270 181 OFFCURVE",
"281 196 OFFCURVE",
"290 209 CURVE",
"309 256 LINE",
"318 286 OFFCURVE",
"326 311 OFFCURVE",
"332 331 CURVE",
"335 337 OFFCURVE",
"336 340 OFFCURVE",
"336 340 CURVE SMOOTH",
"336 340 OFFCURVE",
"336 341 OFFCURVE",
"336 342 CURVE SMOOTH",
"336 343 OFFCURVE",
"341 356 OFFCURVE",
"351 383 CURVE",
"359 394 OFFCURVE",
"364 401 OFFCURVE",
"365 403 CURVE",
"360 387 LINE SMOOTH",
"359 384 OFFCURVE",
"357 372 OFFCURVE",
"352 351 CURVE",
"352 351 OFFCURVE",
"352 342 OFFCURVE",
"352 323 CURVE",
"349 272 OFFCURVE",
"349 233 OFFCURVE",
"349 178 CURVE",
"371 167 OFFCURVE",
"383 161 OFFCURVE",
"384 160 CURVE",
"392 154 LINE",
"395 154 OFFCURVE",
"396 154 OFFCURVE",
"400 157 CURVE",
"404 165 LINE",
"405 166 OFFCURVE",
"406 169 OFFCURVE",
"409 172 CURVE",
"423 183 LINE",
"426 186 OFFCURVE",
"431 191 OFFCURVE",
"438 198 CURVE",
"464 277 LINE",
"469 296 OFFCURVE",
"473 313 OFFCURVE",
"476 327 CURVE SMOOTH",
"477 332 OFFCURVE",
"482 351 OFFCURVE",
"490 384 CURVE",
"501 450 LINE",
"501 472 OFFCURVE",
"501 498 OFFCURVE",
"501 527 CURVE"
);
},
{
closed = 1;
nodes = (
"262 414 OFFCURVE",
"262 414 OFFCURVE",
"262 414 CURVE",
"262 413 OFFCURVE",
"262 413 OFFCURVE",
"262 414 CURVE"
);
},
{
closed = 1;
nodes = (
"248 211 OFFCURVE",
"237 199 OFFCURVE",
"224 185 CURVE SMOOTH",
"211 170 OFFCURVE",
"203 169 OFFCURVE",
"201 181 CURVE",
"201 202 OFFCURVE",
"201 208 OFFCURVE",
"206 235 CURVE",
"214 260 OFFCURVE",
"223 288 OFFCURVE",
"233 320 CURVE",
"236 343 OFFCURVE",
"239 358 OFFCURVE",
"240 365 CURVE",
"251 386 OFFCURVE",
"303 358 OFFCURVE",
"298 343 CURVE",
"295 335 OFFCURVE",
"288 314 OFFCURVE",
"277 280 CURVE",
"255 221 LINE"
);
}
);
width = 550;
}
);
note = at;
unicode = 0040;
},
{
glyphname = ampersand;
lastChange = "2020-07-29 06:27:51 +0000";
layers = (
{
layerId = "DA2C6654-D585-4A87-87E3-B198D23B8793";
paths = (
{
closed = 1;
nodes = (
"514 363 OFFCURVE",
"470 375 OFFCURVE",
"383 375 CURVE SMOOTH",
"295 375 OFFCURVE",
"232 375 OFFCURVE",
"194 375 CURVE",
"126 434 LINE",
"126 467 OFFCURVE",
"126 499 OFFCURVE",
"126 529 CURVE",
"186 585 LINE",
"219 585 OFFCURVE",
"251 585 OFFCURVE",
"282 585 CURVE",
"336 538 LINE",
"336 509 OFFCURVE",
"348 494 OFFCURVE",
"371 494 CURVE SMOOTH",
"394 494 OFFCURVE",
"406 520 OFFCURVE",
"406 573 CURVE",
"314 660 LINE",
"262 660 OFFCURVE",
"218 660 OFFCURVE",
"181 660 CURVE",
"94 614 LINE",
"46 533 LINE",
"46 500 OFFCURVE",
"46 462 OFFCURVE",
"46 417 CURVE",
"124 350 LINE",
"173 345 OFFCURVE",
"172 338 OFFCURVE",
"122 331 CURVE",
"36 246 LINE",
"36 197 OFFCURVE",
"36 156 OFFCURVE",
"36 122 CURVE",
"82 38 LINE",
"165 -10 LINE",
"201 -10 OFFCURVE",
"255 -10 OFFCURVE",
"328 -10 CURVE",
"347 58 OFFCURVE",
"356 52 OFFCURVE",
"356 -27 CURVE SMOOTH",
"356 -106 OFFCURVE",
"368 -146 OFFCURVE",
"391 -146 CURVE SMOOTH",
"414 -146 OFFCURVE",
"426 -72 OFFCURVE",
"426 77 CURVE SMOOTH",
"426 226 OFFCURVE",
"441 300 OFFCURVE",
"470 300 CURVE SMOOTH",
"499 300 OFFCURVE",
"514 313 OFFCURVE",
"514 338 CURVE SMOOTH"
);
},
{
closed = 1;
nodes = (
"356 198 OFFCURVE",
"356 162 OFFCURVE",
"356 130 CURVE",
"282 65 LINE",
"247 65 OFFCURVE",
"212 65 OFFCURVE",
"178 65 CURVE",
"116 128 LINE",
"116 164 OFFCURVE",
"116 200 OFFCURVE",
"116 235 CURVE",
"188 300 LINE",
"230 300 OFFCURVE",
"269 300 OFFCURVE",
"304 300 CURVE SMOOTH",
"339 300 OFFCURVE",
"356 280 OFFCURVE",
"356 239 CURVE SMOOTH"
);
}
);
width = 550;
}
);
note = ampersand;
unicode = 0026;
},
{
glyphname = paragraph;
lastChange = "2020-07-29 06:27:51 +0000";
layers = (
{
layerId = "DA2C6654-D585-4A87-87E3-B198D23B8793";
paths = (
{
closed = 1;
nodes = (
"505 542 OFFCURVE",
"463 650 OFFCURVE",
"379 650 CURVE SMOOTH",
"294 650 OFFCURVE",
"234 650 OFFCURVE",
"197 650 CURVE",
"103 603 LINE",
"47 516 LINE",
"47 478 OFFCURVE",
"47 440 OFFCURVE",
"47 402 CURVE",
"103 315 LINE",
"197 268 LINE",
"234 268 OFFCURVE",
"259 268 OFFCURVE",
"274 268 CURVE SMOOTH",
"288 268 OFFCURVE",
"295 223 OFFCURVE",
"295 134 CURVE SMOOTH",
"295 45 OFFCURVE",
"308 0 OFFCURVE",
"334 0 CURVE SMOOTH",
"360 0 OFFCURVE",
"373 45 OFFCURVE",
"373 134 CURVE SMOOTH",
"373 223 OFFCURVE",
"382 268 OFFCURVE",
"400 268 CURVE SMOOTH",
"418 268 OFFCURVE",
"427 223 OFFCURVE",
"427 134 CURVE SMOOTH",
"427 45 OFFCURVE",
"440 0 OFFCURVE",
"466 0 CURVE SMOOTH",
"492 0 OFFCURVE",
"505 108 OFFCURVE",
"505 325 CURVE SMOOTH"
);
},
{
closed = 1;
nodes = (
"427 383 OFFCURVE",
"399 345 OFFCURVE",
"343 345 CURVE SMOOTH",
"286 345 OFFCURVE",
"238 345 OFFCURVE",
"198 345 CURVE",
"127 400 LINE",
"127 439 OFFCURVE",
"127 479 OFFCURVE",
"127 518 CURVE",
"198 573 LINE",
"238 573 OFFCURVE",
"286 573 OFFCURVE",
"343 573 CURVE SMOOTH",
"399 573 OFFCURVE",
"427 535 OFFCURVE",
"427 459 CURVE SMOOTH"
);
}
);
width = 550;
}
);
note = paragraph;
unicode = 00B6;
},
{
glyphname = section;
lastChange = "2020-07-29 06:27:51 +0000";
layers = (
{
layerId = "DA2C6654-D585-4A87-87E3-B198D23B8793";
paths = (
{
closed = 1;
nodes = (
"383 224 OFFCURVE",
"382 233 OFFCURVE",
"415 236 CURVE",
"463 290 LINE",
"463 317 OFFCURVE",
"463 346 OFFCURVE",
"463 378 CURVE",
"416 439 LINE",
"345 472 LINE",
"308 483 OFFCURVE",
"273 493 OFFCURVE",
"242 502 CURVE",
"199 518 LINE",
"170 546 LINE",
"170 561 OFFCURVE",
"170 577 OFFCURVE",
"170 596 CURVE",
"218 631 LINE",
"247 631 OFFCURVE",
"277 631 OFFCURVE",
"310 631 CURVE",
"365 592 LINE",
"370 563 OFFCURVE",
"384 549 OFFCURVE",
"407 549 CURVE SMOOTH",
"430 549 OFFCURVE",
"441 574 OFFCURVE",
"440 623 CURVE",
"346 710 LINE",
"291 710 OFFCURVE",
"237 710 OFFCURVE",
"184 710 CURVE",
"90 628 LINE",
"90 586 OFFCURVE",
"90 551 OFFCURVE",
"90 522 CURVE",
"142 466 LINE",
"181 449 OFFCURVE",
"182 439 OFFCURVE",
"143 435 CURVE",
"90 379 LINE",
"90 353 OFFCURVE",
"90 321 OFFCURVE",
"90 282 CURVE",
"191 210 LINE",
"245 194 OFFCURVE",
"286 182 OFFCURVE",
"315 174 CURVE",
"357 157 LINE",
"383 129 LINE",
"383 113 OFFCURVE",
"383 95 OFFCURVE",
"383 76 CURVE",
"339 41 LINE",
"309 41 OFFCURVE",
"275 41 OFFCURVE",
"237 41 CURVE",
"170 94 LINE",
"163 121 OFFCURVE",
"148 135 OFFCURVE",
"123 135 CURVE SMOOTH",
"98 135 OFFCURVE",
"85 126 OFFCURVE",
"83 109 CURVE",
"123 28 LINE",
"219 -36 LINE",
"272 -36 OFFCURVE",
"323 -36 OFFCURVE",
"373 -36 CURVE",
"463 42 LINE",
"463 84 OFFCURVE",
"463 120 OFFCURVE",
"463 150 CURVE",
"417 207 LINE"
);
},
{
closed = 1;
nodes = (
"170 341 OFFCURVE",
"170 357 OFFCURVE",
"170 376 CURVE",
"217 413 LINE",
"246 416 OFFCURVE",
"264 417 OFFCURVE",
"273 414 CURVE",
"281 411 OFFCURVE",
"303 403 OFFCURVE",
"340 390 CURVE",
"383 361 LINE",
"383 340 OFFCURVE",
"383 320 OFFCURVE",
"383 301 CURVE",
"340 260 LINE",
"314 257 OFFCURVE",
"282 263 OFFCURVE",
"245 277 CURVE",
"201 296 LINE",
"170 326 LINE"
);
}
);
width = 550;
}
);
note = section;
unicode = 00A7;
},
{
glyphname = copyright;
lastChange = "2020-07-29 06:27:51 +0000";
layers = (
{
layerId = "DA2C6654-D585-4A87-87E3-B198D23B8793";
paths = (
{
closed = 1;
nodes = (
"251 54 OFFCURVE",
"301 54 OFFCURVE",
"350 54 CURVE",
"468 128 LINE",
"533 256 LINE",
"533 307 OFFCURVE",
"533 357 OFFCURVE",
"533 408 CURVE",
"468 535 LINE",
"351 609 LINE",
"301 609 OFFCURVE",
"251 609 OFFCURVE",
"201 609 CURVE",
"83 535 LINE",
"18 408 LINE",
"18 357 OFFCURVE",
"18 307 OFFCURVE",
"18 256 CURVE",
"84 128 LINE",
"201 54 LINE"
);
},
{
closed = 1;
nodes = (
"294 126 OFFCURVE",
"258 126 OFFCURVE",
"221 126 CURVE",
"136 181 LINE",
"90 275 LINE",
"90 313 OFFCURVE",
"90 351 OFFCURVE",
"90 389 CURVE",
"136 482 LINE",
"220 537 LINE",
"257 537 OFFCURVE",
"294 537 OFFCURVE",
"331 537 CURVE",
"415 482 LINE",
"461 389 LINE",
"461 351 OFFCURVE",
"461 313 OFFCURVE",
"461 275 CURVE",
"415 181 LINE",
"331 126 LINE"
);
},
{
closed = 1;
nodes = (
"391 295 OFFCURVE",
"381 313 OFFCURVE",
"360 313 CURVE SMOOTH",
"339 313 OFFCURVE",
"327 296 OFFCURVE",
"323 261 CURVE",
"294 261 OFFCURVE",
"270 261 OFFCURVE",
"253 261 CURVE",
"227 299 LINE",
"227 320 OFFCURVE",
"227 342 OFFCURVE",
"227 363 CURVE",
"254 402 LINE",
"271 402 OFFCURVE",
"293 402 OFFCURVE",
"321 402 CURVE",
"326 368 OFFCURVE",
"339 351 OFFCURVE",
"360 351 CURVE SMOOTH",
"381 351 OFFCURVE",
"391 369 OFFCURVE",
"390 404 CURVE",
"328 468 LINE",
"295 468 OFFCURVE",
"262 468 OFFCURVE",
"228 468 CURVE",
"160 390 LINE",
"160 351 OFFCURVE",
"160 311 OFFCURVE",
"160 272 CURVE",
"227 195 LINE",
"262 195 OFFCURVE",
"295 195 OFFCURVE",
"328 195 CURVE",
"391 260 LINE"
);
}
);
width = 550;
}
);
note = copyright;
unicode = 00A9;
},
